<svg width="32" height="32" fill="none" xmlns="http://www.w3.org/2000/svg"><path d="M8.384 17.52a.35.35 0 00-.171.457l.786 1.689a.35.35 0 00.315.202c.05 0 .1-.01.147-.031l5.942-2.776-.539 5.628a.35.35 0 00.115.293c.261.216.586.339.923.35.094 0 .186-.012.277-.035.482-.126.856-.556 1.111-1.29l2.338-6.924 4.631-2.16c1.364-.636 2.066-1.926 1.594-2.932a1.77 1.77 0 00-1.366-.955 3.24 3.24 0 00-1.909.294l-5.344 2.506-5.746-2.247c-.724-.273-1.297-.266-1.699.024a1.424 1.424 0 00-.52 1.13.35.35 0 00.15.275l3.869 2.66-2.216 1.049-3.716-.944a.35.35 0 00-.388.168l-.926 1.667a.349.349 0 00.182.493l2.75 1.136-.59.272zm1.6-6.953a.598.598 0 01.21-.377c.2-.143.563-.122 1.05.06l5.116 1.995-2.335 1.09-4.04-2.768zM6.84 15.614l.608-1.08 3.576.888a.35.35 0 00.23-.02l11.622-5.429c.462-.228.983-.31 1.493-.238.358.033.676.24.853.553.293.629-.283 1.548-1.259 2.002l-4.026 1.888.245-.724a.355.355 0 10-.675-.223l-2.877 8.56c-.17.485-.384.776-.622.838-.147.029-.3 0-.426-.08l.699-7.34a.35.35 0 00-.7-.066l-.107 1.122-5.999 2.796-.492-1.049.985-.461a.35.35 0 000-.64L6.84 15.614z" fill="#F2717D"/></svg>