<svg width="32" height="32" fill="none" xmlns="http://www.w3.org/2000/svg"><g clip-path="url(#clip0)"><path d="M31.495 25.264h-.851a14.589 14.589 0 00-2.63-7.885 14.701 14.701 0 00-6.762-5.293 14.56 14.56 0 00-4.717-.959l1.497-1.497a1.691 1.691 0 00-1.195-2.883 1.68 1.68 0 00-.837.22 1.68 1.68 0 00-.837-.22c-.451 0-.875.175-1.194.494-.32.32-.495.743-.495 1.195 0 .451.176.875.495 1.194l1.496 1.497a14.558 14.558 0 00-6.367 1.713.506.506 0 00.477.892 13.55 13.55 0 016.345-1.604.51.51 0 00.162 0c1.657.01 3.274.313 4.808.901a13.625 13.625 0 013.527 2.003 13.724 13.724 0 012.768 2.925 13.561 13.561 0 012.448 7.307H2.368a13.548 13.548 0 011.508-5.756 13.686 13.686 0 014.053-4.739.506.506 0 00-.599-.814 14.755 14.755 0 00-4.352 5.089 14.588 14.588 0 00-1.621 6.22H.505a.505.505 0 00-.505.505 2.53 2.53 0 002.526 2.526h26.948A2.53 2.53 0 0032 25.77a.505.505 0 00-.505-.505zM16 10.233l-1.317-1.317a.673.673 0 01-.199-.48.67.67 0 01.199-.48.675.675 0 01.96 0 .505.505 0 00.714 0 .674.674 0 01.48-.199.68.68 0 01.48 1.159L16 10.233zm13.474 17.052H2.526a1.52 1.52 0 01-1.429-1.01h29.806a1.518 1.518 0 01-1.43 1.01z" fill="#1B3281"/><path fill-rule="evenodd" clip-rule="evenodd" d="M18.032 7.241c.658.659.658 1.73 0 2.39l-1.497 1.496.136.005a14.556 14.556 0 018.37 3.105 14.701 14.701 0 014.916 7.057c.41 1.282.64 2.615.686 3.97h.852c.279 0 .505.226.505.505a2.53 2.53 0 01-2.526 2.526H2.526A2.53 2.53 0 010 25.77c0-.28.226-.505.505-.505h.852a14.59 14.59 0 013.509-9.02 14.755 14.755 0 012.464-2.289.506.506 0 01.598.814 13.749 13.749 0 00-4.052 4.739 13.545 13.545 0 00-1.508 5.756h27.265a13.608 13.608 0 00-.638-3.66 13.566 13.566 0 00-1.81-3.647 13.726 13.726 0 00-2.768-2.925 13.625 13.625 0 00-3.527-2.003 13.606 13.606 0 00-4.808-.902.5.5 0 01-.162 0 13.545 13.545 0 00-6.345 1.604.51.51 0 01-.684-.207.506.506 0 01.207-.683 14.558 14.558 0 016.367-1.714L13.97 9.63a1.678 1.678 0 01-.495-1.194c0-.452.175-.876.495-1.195a1.692 1.692 0 012.031-.274 1.68 1.68 0 01.837-.22c.451 0 .876.175 1.195.494zM16 6.854a1.77 1.77 0 01.837-.207A1.791 1.791 0 0118.102 9.7l-1.336 1.336a14.647 14.647 0 018.336 3.121 14.8 14.8 0 014.95 7.106c.403 1.26.634 2.57.688 3.9h.755c.334 0 .605.27.605.605a2.63 2.63 0 01-2.626 2.626H2.526A2.63 2.63 0 01-.1 25.77c0-.334.27-.605.605-.605h.755a14.688 14.688 0 013.529-8.985 14.806 14.806 0 012.482-2.304.606.606 0 01.717.975 13.65 13.65 0 00-4.023 4.704 13.448 13.448 0 00-1.493 5.61H29.53a13.46 13.46 0 00-2.425-7.15 13.625 13.625 0 00-2.749-2.903 13.527 13.527 0 00-3.501-1.989 13.506 13.506 0 00-4.765-.895.59.59 0 01-.176 0 13.448 13.448 0 00-6.29 1.592.609.609 0 01-.82-.247.606.606 0 01.248-.82 14.653 14.653 0 016.183-1.715l-1.336-1.336a1.778 1.778 0 01-.524-1.265c0-.478.186-.928.524-1.266a1.778 1.778 0 011.265-.523c.296 0 .582.071.837.207zm-.07 3.308l.07.07.07-.07-.07-.07 1.246-1.247a.58.58 0 00-.818-.819.605.605 0 01-.856 0 .575.575 0 00-.818 0 .574.574 0 000 .819L16 10.09l-.07.071zM2.525 27.185h26.948c.564 0 1.052-.332 1.279-.81h-.6a.116.116 0 01-.012 0H1.859a.116.116 0 01-.013 0h-.6c.228.478.716.81 1.28.81zm-1.39-.81a1.516 1.516 0 01-.039-.1h29.806a1.518 1.518 0 01-1.429 1.01H2.526a1.52 1.52 0 01-1.39-.91zm29.02-.001s.001 0 0 0z" fill="#1B3281"/><path fill-rule="evenodd" clip-rule="evenodd" d="M18.032 7.241c.658.659.658 1.73 0 2.39l-1.497 1.496.136.005a14.556 14.556 0 018.37 3.105 14.701 14.701 0 014.916 7.057c.41 1.282.64 2.615.686 3.97h.852c.279 0 .505.226.505.505a2.53 2.53 0 01-2.526 2.526H2.526A2.53 2.53 0 010 25.77c0-.28.226-.505.505-.505h.852a14.59 14.59 0 013.509-9.02 14.755 14.755 0 012.464-2.289.506.506 0 01.598.814 13.749 13.749 0 00-4.052 4.739 13.545 13.545 0 00-1.508 5.756h27.265a13.608 13.608 0 00-.638-3.66 13.566 13.566 0 00-1.81-3.647 13.726 13.726 0 00-2.768-2.925 13.625 13.625 0 00-3.527-2.003 13.606 13.606 0 00-4.808-.902.5.5 0 01-.162 0 13.545 13.545 0 00-6.345 1.604.51.51 0 01-.684-.207.506.506 0 01.207-.683 14.558 14.558 0 016.367-1.714L13.97 9.63a1.678 1.678 0 01-.495-1.194c0-.452.175-.876.495-1.195a1.692 1.692 0 012.031-.274 1.68 1.68 0 01.837-.22c.451 0 .876.175 1.195.494zM16 6.854a1.77 1.77 0 01.837-.207A1.791 1.791 0 0118.102 9.7l-1.336 1.336a14.647 14.647 0 018.336 3.121 14.8 14.8 0 014.95 7.106c.403 1.26.634 2.57.688 3.9h.755c.334 0 .605.27.605.605a2.63 2.63 0 01-2.626 2.626H2.526A2.63 2.63 0 01-.1 25.77c0-.334.27-.605.605-.605h.755a14.688 14.688 0 013.529-8.985 14.806 14.806 0 012.482-2.304.606.606 0 01.717.975 13.65 13.65 0 00-4.023 4.704 13.448 13.448 0 00-1.493 5.61H29.53a13.46 13.46 0 00-2.425-7.15 13.625 13.625 0 00-2.749-2.903 13.527 13.527 0 00-3.501-1.989 13.506 13.506 0 00-4.765-.895.59.59 0 01-.176 0 13.448 13.448 0 00-6.29 1.592.609.609 0 01-.82-.247.606.606 0 01.248-.82 14.653 14.653 0 016.183-1.715l-1.336-1.336a1.778 1.778 0 01-.524-1.265c0-.478.186-.928.524-1.266a1.778 1.778 0 011.265-.523c.296 0 .582.071.837.207zm-.07 3.308l.07.07.07-.07-.07-.07 1.246-1.247a.58.58 0 00-.818-.819.605.605 0 01-.856 0 .575.575 0 00-.818 0 .574.574 0 000 .819L16 10.09l-.07.071zM2.525 27.185h26.948c.564 0 1.052-.332 1.279-.81h-.6a.116.116 0 01-.012 0H1.859a.116.116 0 01-.013 0h-.6c.228.478.716.81 1.28.81zm-1.39-.81a1.516 1.516 0 01-.039-.1h29.806a1.518 1.518 0 01-1.429 1.01H2.526a1.52 1.52 0 01-1.39-.91zm29.02-.001s.001 0 0 0z" fill="#1B3281"/><path d="M2.86 3.766h0a.555.555 0 01.111.776 4.612 4.612 0 00-.673 1.417c-.21.781-.203 1.75.621 2.574.976.976 1.286 2.242.901 3.655a5.81 5.81 0 01-.85 1.787h0a.554.554 0 01-.444.222s0 0 0 0v-.05a.503.503 0 01-.303-.1l.637-10.28zm0 0a.555.555 0 00-.778.111h0c-.024.033-.572.77-.85 1.787h0c-.385 1.413-.074 2.68.902 3.655l.035-.036m.69-5.517l-.69 5.517m0 0l-.035.036c.824.824.831 1.793.62 2.574a4.61 4.61 0 01-.672 1.416l.087-4.026zm5.76-4.029h0c.113-.363.356-.627.38-.651a.555.555 0 000-.786h0a.555.555 0 00-.786 0h0a2.903 2.903 0 00-.64 1.06c-.287.862-.057 1.723.64 2.42h0c.201.202.33.405.393.614.062.208.057.425-.014.655a1.874 1.874 0 01-.384.663.555.555 0 00.008.783l.035-.036-.035.036a.553.553 0 00.785-.005h0a2.94 2.94 0 00.637-1.067c.287-.867.057-1.73-.64-2.428l-.035.035.035-.035c-.2-.2-.33-.404-.392-.61a1.082 1.082 0 01.013-.648zM29.08 8.533h0c.825-.824.832-1.793.622-2.574a4.613 4.613 0 00-.673-1.417.556.556 0 01.113-.776l-.061 4.767zm0 0c-.975.976-1.285 2.242-.9 3.655a5.808 5.808 0 00.85 1.787m.05-5.442l.725 5.553a.553.553 0 01-.776-.11m1.738-8.312c.386 1.413.075 2.679-.9 3.655l-.036-.036.035.036c-.824.824-.831 1.793-.62 2.574.21.783.638 1.37.673 1.417 0 0 0 0 0 0l-.04.03.888-7.676zm0 0a5.809 5.809 0 00-.85-1.787m.85 1.787s0 0 0 0l-.85-1.787m-.888 10.098l.04-.03-.04.03s0 0 0 0zm.889-10.098a.555.555 0 00-.776-.111l.776.111z" fill="#1B3281" stroke="#1B3281" stroke-width=".1"/><mask id="a" maskUnits="userSpaceOnUse" x="21.981" y="2.705" width="4" height="8" fill="#000"><path fill="#fff" d="M21.981 2.705h4v8h-4z"/><path d="M24.05 8.58c-.148-.476-.02-.907.391-1.318.686-.685.909-1.527.628-2.37a2.856 2.856 0 00-.628-1.04.504.504 0 00-.71 0 .507.507 0 00-.006.713c.002.003.271.282.394.674.146.47.018.898-.392 1.308-.685.686-.908 1.53-.628 2.378a2.9 2.9 0 00.626 1.047.501.501 0 00.71.005.507.507 0 00.01-.713 1.922 1.922 0 01-.395-.684z"/></mask><path d="M24.05 8.58c-.148-.476-.02-.907.391-1.318.686-.685.909-1.527.628-2.37a2.856 2.856 0 00-.628-1.04.504.504 0 00-.71 0 .507.507 0 00-.006.713c.002.003.271.282.394.674.146.47.018.898-.392 1.308-.685.686-.908 1.53-.628 2.378a2.9 2.9 0 00.626 1.047.501.501 0 00.71.005.507.507 0 00.01-.713 1.922 1.922 0 01-.395-.684z" fill="#1B3281"/><path d="M24.05 8.58l.095-.03-.095.03zm.391-1.318l-.07-.07.07.07zm.628-2.37l-.095.032.095-.032zm-.628-1.04l.071-.07-.07.07zm-.71 0l.07.07-.07-.07zm-.006.713l-.072.07.072-.07zm.394.674l.095-.03-.095.03zm-.392 1.308l-.07-.07.07.07zm-.628 2.378l.095-.032-.095.032zm.626 1.047l-.072.07.072-.07zm.71.005l-.069-.071.07.071zm.01-.713l-.072.069.073-.07zm-.3-.713a1.053 1.053 0 01-.013-.626c.06-.199.183-.395.38-.592l-.141-.142c-.214.214-.36.439-.43.677-.072.24-.066.487.013.742l.191-.06zm.367-1.218c.71-.71.946-1.59.652-2.472l-.19.063c.267.803.058 1.606-.603 2.267l.141.142zm.652-2.472a2.955 2.955 0 00-.652-1.079l-.141.141c.038.04.41.421.603 1.001l.19-.063zm-.652-1.079a.604.604 0 00-.852-.001l.14.142a.404.404 0 01.57 0l.142-.141zm-.852-.001a.607.607 0 00-.007.854l.143-.14a.407.407 0 01.004-.572l-.14-.142zm-.007.854s.255.264.37.634l.191-.06a1.98 1.98 0 00-.418-.714l-.143.14zm.37.634c.068.218.072.422.013.618-.06.197-.183.393-.38.59l.142.141c.213-.213.359-.437.43-.674a1.231 1.231 0 00-.014-.735l-.19.06zm-.367 1.208c-.709.709-.945 1.592-.652 2.479l.19-.063c-.267-.808-.057-1.614.604-2.275l-.142-.141zm-.652 2.479a2.99 2.99 0 00.65 1.086l.142-.14a2.792 2.792 0 01-.602-1.009l-.19.063zm.65 1.086c.117.12.273.18.428.18v-.2a.401.401 0 01-.286-.12l-.143.14zm.428.18a.604.604 0 00.424-.173l-.14-.143a.405.405 0 01-.284.115v.2zm.424-.173a.606.606 0 00.012-.855l-.144.14a.407.407 0 01-.008.572l.14.143zm.012-.854s-.256-.27-.373-.644l-.19.059c.13.42.413.717.418.723l.145-.138z" fill="#1B3281" mask="url(#a)"/><path fill-rule="evenodd" clip-rule="evenodd" d="M14.6 16.56v5.08l4.234-2.54-4.234-2.54zm-1.2-.707a.8.8 0 011.211-.686l5.412 3.247a.8.8 0 010 1.372l-5.412 3.247a.8.8 0 01-1.211-.686v-6.494z" fill="#ED1C24"/></g><defs><clipPath id="clip0"><path fill="#fff" d="M0 0h32v32H0z"/></clipPath></defs></svg>