<svg width="32" height="32" fill="none" xmlns="http://www.w3.org/2000/svg"><mask id="a" maskUnits="userSpaceOnUse" x="3" y="8" width="26" height="16" fill="#000"><path fill="#fff" d="M3 8h26v16H3z"/><path d="M5.967 18.947v-5.825a.277.277 0 01.277-.277 1.942 1.942 0 001.942-1.942.277.277 0 01.277-.277h15.074a.277.277 0 01.277.277 1.941 1.941 0 001.942 1.942.277.277 0 01.277.277v5.825a.277.277 0 01-.277.278 1.942 1.942 0 00-1.942 1.941.277.277 0 01-.277.278H8.463a.277.277 0 01-.277-.278 1.942 1.942 0 00-1.942-1.941.277.277 0 01-.277-.278zm.554-.26a2.497 2.497 0 012.203 2.202h14.55a2.497 2.497 0 012.202-2.203v-5.303a2.497 2.497 0 01-2.203-2.203H8.727a2.497 2.497 0 01-2.203 2.203v5.303h-.003zM28 9.276v13.515a.277.277 0 01-.277.277H4.277A.277.277 0 014 22.792V9.277A.277.277 0 014.277 9h23.446a.278.278 0 01.277.277zm-.555.278H4.555v12.96h22.89V9.555zm-15.154 6.48a3.711 3.711 0 117.422 0 3.711 3.711 0 01-7.422 0zm.555 0a3.157 3.157 0 106.313.005 3.157 3.157 0 00-6.313-.005zm-3.134.624a.624.624 0 100-1.249.624.624 0 000 1.249zm12.574.175a.624.624 0 10-.237-.047.625.625 0 00.24.047h-.003z"/></mask><path d="M5.967 18.947v-5.825a.277.277 0 01.277-.277 1.942 1.942 0 001.942-1.942.277.277 0 01.277-.277h15.074a.277.277 0 01.277.277 1.941 1.941 0 001.942 1.942.277.277 0 01.277.277v5.825a.277.277 0 01-.277.278 1.942 1.942 0 00-1.942 1.941.277.277 0 01-.277.278H8.463a.277.277 0 01-.277-.278 1.942 1.942 0 00-1.942-1.941.277.277 0 01-.277-.278zm.554-.26a2.497 2.497 0 012.203 2.202h14.55a2.497 2.497 0 012.202-2.203v-5.303a2.497 2.497 0 01-2.203-2.203H8.727a2.497 2.497 0 01-2.203 2.203v5.303h-.003zM28 9.276v13.515a.277.277 0 01-.277.277H4.277A.277.277 0 014 22.792V9.277A.277.277 0 014.277 9h23.446a.278.278 0 01.277.277zm-.555.278H4.555v12.96h22.89V9.555zm-15.154 6.48a3.711 3.711 0 117.422 0 3.711 3.711 0 01-7.422 0zm.555 0a3.157 3.157 0 106.313.005 3.157 3.157 0 00-6.313-.005zm-3.134.624a.624.624 0 100-1.249.624.624 0 000 1.249zm12.574.175a.624.624 0 10-.237-.047.625.625 0 00.24.047h-.003z" fill="#F2717D"/><path d="M5.967 18.947v-5.825a.277.277 0 01.277-.277 1.942 1.942 0 001.942-1.942.277.277 0 01.277-.277h15.074a.277.277 0 01.277.277 1.941 1.941 0 001.942 1.942.277.277 0 01.277.277v5.825a.277.277 0 01-.277.278 1.942 1.942 0 00-1.942 1.941.277.277 0 01-.277.278H8.463a.277.277 0 01-.277-.278 1.942 1.942 0 00-1.942-1.941.277.277 0 01-.277-.278zm.554-.26a2.497 2.497 0 012.203 2.202h14.55a2.497 2.497 0 012.202-2.203v-5.303a2.497 2.497 0 01-2.203-2.203H8.727a2.497 2.497 0 01-2.203 2.203v5.303h-.003zM28 9.276v13.515a.277.277 0 01-.277.277H4.277A.277.277 0 014 22.792V9.277A.277.277 0 014.277 9h23.446a.278.278 0 01.277.277zm-.555.278H4.555v12.96h22.89V9.555zm-15.154 6.48a3.711 3.711 0 117.422 0 3.711 3.711 0 01-7.422 0zm.555 0a3.157 3.157 0 106.313.005 3.157 3.157 0 00-6.313-.005zm-3.134.624a.624.624 0 100-1.249.624.624 0 000 1.249zm12.574.175a.624.624 0 10-.237-.047.625.625 0 00.24.047h-.003z" stroke="#F98B88" stroke-width=".4" mask="url(#a)"/></svg>