<svg width="32" height="32" fill="none" xmlns="http://www.w3.org/2000/svg"><path d="M23.742 4.129H12.903V3.097h.516a.516.516 0 00.517-.516V.516A.516.516 0 0013.419 0H6.194a.516.516 0 00-.516.516v2.065c0 .284.23.516.516.516h.516v1.386a3.614 3.614 0 00-2.065 3.259v20.645A3.618 3.618 0 008.258 32h15.484a3.618 3.618 0 003.613-3.613V7.742a3.617 3.617 0 00-3.613-3.613zm2.58 3.613v8.044l-2.064-2.064V8.774a1.55 1.55 0 00-1.548-1.548h-4.948L15.698 5.16h8.044a2.584 2.584 0 012.58 2.58zm-3.096 4.948l-4.431-4.432h3.915c.285 0 .516.232.516.516v3.916zM6.71 1.032h6.193v1.033H6.71V1.032zm1.032 2.065h4.13v1.032H8.257c-.175 0-.347.017-.516.041V3.097zm16 27.87H8.258a2.584 2.584 0 01-2.58-2.58V7.742a2.584 2.584 0 012.58-2.58h5.98l12.085 12.084v11.141a2.584 2.584 0 01-2.581 2.58z" fill="#1B3281"/><path d="M13.784 6.345a.514.514 0 00-.365-.151H8.774A2.067 2.067 0 006.71 8.258v19.613c0 1.139.926 2.065 2.064 2.065h14.452a2.067 2.067 0 002.064-2.065v-9.806a.514.514 0 00-.15-.365L13.783 6.345zM24.258 27.87c0 .57-.463 1.032-1.032 1.032H8.774c-.57 0-1.032-.463-1.032-1.032V8.258c0-.57.463-1.032 1.032-1.032h4.432l11.052 11.052v9.593z" fill="#1B3281"/><path d="M11.87 23.096c0 1.905 1.367 3.504 3.177 3.717a3.623 3.623 0 002.836-.886 3.615 3.615 0 001.214-2.701v-.13a6.095 6.095 0 00-.742-2.911l-2.418-4.432c-.18-.332-.726-.332-.906 0l-2.418 4.431a6.098 6.098 0 00-.742 2.912zm1.65-2.417l1.964-3.6 1.964 3.6c.403.739.616 1.575.616 2.417v.13a2.582 2.582 0 01-2.896 2.562c-1.27-.15-2.265-1.332-2.265-2.692 0-.843.213-1.678.616-2.417z" fill="#ED1C24"/><path d="M17.548 23.226h-1.032c0 .57-.463 1.032-1.032 1.032v1.032a2.067 2.067 0 002.064-2.064z" fill="#ED1C24"/></svg>