<svg width="64" height="64" fill="none" xmlns="http://www.w3.org/2000/svg"><g clip-path="url(#clip0)" fill="#F2717D"><path d="M37.514 29.815a.704.704 0 00.892-.44 1.24 1.24 0 011.571-.775 2.65 2.65 0 003.357-1.656.704.704 0 10-1.333-.453 1.24 1.24 0 01-1.572.775 2.654 2.654 0 00-3.356 1.656.705.705 0 00.44.893zm1.666-4.905a.703.703 0 00.892-.44 1.23 1.23 0 01.625-.714c.297-.146.633-.167.946-.061a2.65 2.65 0 003.356-1.657.705.705 0 00-.44-.893.702.702 0 00-.892.44 1.24 1.24 0 01-1.572.776 2.625 2.625 0 00-2.02.132 2.63 2.63 0 00-1.336 1.524.703.703 0 00.44.893zm1.663-4.905a.706.706 0 00.893-.44.916.916 0 011.16-.573c.588.2 1.218.158 1.774-.116a2.31 2.31 0 001.173-1.337.704.704 0 00-1.334-.452.91.91 0 01-1.16.57 2.328 2.328 0 00-2.946 1.454.705.705 0 00.44.894z"/><path d="M45.942 29.763a.917.917 0 00-.401-.15c1.399-4.546 2.166-8.998 2.276-13.24.034-1.334-.617-3.115-1.932-3.939-.63-.396-1.664-.723-3.006-.032-2.102 1.085-3.606 4.276-4.814 6.84l-.205.435a4.078 4.078 0 00-2.23-2.824 3.357 3.357 0 00-2.611-2.595 2.427 2.427 0 00-2.066-1.935 2.393 2.393 0 00-1.496.308 2.554 2.554 0 00-1.245-.325 2.594 2.594 0 00-2.52 1.997 3.17 3.17 0 00-2.33 3.02 3.52 3.52 0 00-2.4 4.687 2.766 2.766 0 00-.387 2.845c-.703-.767-1.693-1.395-2.805-1.354a.705.705 0 00.022 1.408c.023.001.045-.001.068-.001.66 0 1.273.436 1.719.943-1.117.322-2.463.845-3.09 2.03-.379.714-.423 1.59-.17 2.594a1.21 1.21 0 00-.177.692l1.198 17.026A4.01 4.01 0 0021.346 52h19.76a4.006 4.006 0 004.005-3.794l1.229-17.618v-.013a.913.913 0 00-.398-.812zm-7.508-8.072c.279-.52.583-1.165.905-1.849 1.058-2.247 2.508-5.323 4.185-6.19.612-.315 1.14-.321 1.613-.026.816.512 1.296 1.805 1.272 2.71-.107 4.162-.867 8.542-2.26 13.02-.046.146-.147.443-.291.85l-1.2.534a.68.68 0 00-.076.04 2.22 2.22 0 01-1.123.314 2.224 2.224 0 01-1.123-.314l-.502-.302a3.635 3.635 0 00-1.871-.519l-.024.001a3.627 3.627 0 00-1.895.518l-.501.302a2.21 2.21 0 01-.901.284c.017-.06.038-.121.056-.181.193-.656.4-1.302.616-1.943a49.982 49.982 0 01.82-2.238c.088-.223.173-.448.263-.67a47.039 47.039 0 012.037-4.341zm-8.973 1.67l.238-.309.001-.003a1.508 1.508 0 00.279-1.277l2.938-.642c.02.09.041.18.075.262.132.323.367.59.694.778.107.06.22.118.334.18.095.05.19.101.286.154l.138.074c.084.047.165.1.246.15.07.044.14.088.207.135a3.611 3.611 0 01.417.347 2.789 2.789 0 01.492.63 49.57 49.57 0 00-.85 2.01c-.043.104-.088.207-.13.311-.771.196-1.517.562-2.437 1.217-1.16.825-2.024 1.044-3.448.837l-.427-1.956c-.29-1.322.339-2.123.947-2.899zm3.49-4.276a.297.297 0 01.342.223.287.287 0 01-.041.22.288.288 0 01-.181.127l-3.889.851a.295.295 0 01-.346-.222.295.295 0 01.222-.347l2.066-.452 1.827-.4zm-2.275 10.888c-.053.004-.108.005-.161.01a3.613 3.613 0 00-1.122.298l-.135-.615c.203.016.405.033.594.033 1.228 0 2.217-.365 3.353-1.173.357-.255.674-.448.975-.608-.065.184-.129.367-.191.552-.045.132-.094.262-.138.395a51.815 51.815 0 00-.587 1.895l-.469-.28a3.632 3.632 0 00-1.87-.52l-.026.002c-.075-.002-.15.007-.223.011zm-8.42-7.28l.461-.38-.299-.515a2.116 2.116 0 011.747-3.178l.855-.036-.2-.832a1.742 1.742 0 01-.05-.407c0-.907.708-1.67 1.612-1.74l.65-.049v-.7a1.182 1.182 0 011.181-1.142c.367 0 .63.168.786.308l.494.446.473-.467a.997.997 0 01.822-.28c.377.045.717.34.827.717.037.127.048.25.033.374l-.082.787h.793c1.011 0 1.857.79 1.927 1.8l.032.462.437.153a2.683 2.683 0 011.8 2.593 2.54 2.54 0 01-.463 1.397c-.47-.4-.978-.67-1.405-.894-.11-.058-.217-.114-.325-.174-.03-.017-.067-.047-.08-.12a.402.402 0 01.098-.313c.307-.357.43-.842.331-1.3l-.085-.388a1.49 1.49 0 00-.657-.943 1.489 1.489 0 00-1.129-.203l-.189.042h-.006l-2.066.453-2.016.44a1.49 1.49 0 00-.942.656 1.49 1.49 0 00-.203 1.13l.042.191v.006l.042.19c.102.47.428.864.87 1.054a.43.43 0 01.234.227c.018.053.008.08-.033.147-.07.094-.145.19-.222.287l-.24.31c-.027.035-.053.072-.08.109-.059.08-.117.16-.175.245-.032.046-.062.093-.093.14a5.927 5.927 0 00-.242.409c-.053.099-.1.202-.148.308-.02.045-.042.088-.06.135a3.875 3.875 0 00-.16.483c-.008.027-.01.055-.017.083a3.833 3.833 0 00-.079.447c-.007.062-.008.127-.012.19-.006.084-.017.163-.017.249l-.008-.01-.03-.037a8.442 8.442 0 00-.485-.58 6.696 6.696 0 00-.311-.315c-.034-.032-.067-.067-.102-.098a4.884 4.884 0 00-.397-.32c-.037-.027-.075-.05-.113-.075a3.602 3.602 0 00-.766-.394c-.035-.012-.07-.03-.105-.04a2.9 2.9 0 00-.348-.089c-.014-.002-.027-.001-.04-.003-.024-.004-.048-.014-.072-.017-.082-.012-.16-.007-.24-.013-.055-.003-.111-.015-.168-.015-.016 0-.034.004-.051.004-.11.001-.215.014-.321.027-.053.007-.106.012-.159.021a3.446 3.446 0 00-.406.103l-.06.018c-.351.12-.683.288-.994.491a1.372 1.372 0 01.405-1.564zm-4.522 5.845c.297-.56 1.02-.989 2.276-1.347a3.801 3.801 0 001.574-.904c.2-.192.388-.354.57-.502.567-.461 1.056-.712 1.5-.77l.029-.002c.14-.016.276-.012.407.011.035.007.07.019.105.028.066.016.13.032.196.058.042.017.084.041.127.06.061.03.122.057.183.095.048.028.096.066.144.099.057.04.114.076.172.123.053.043.107.095.16.144.053.048.107.093.16.147.06.06.12.129.18.196.048.054.096.104.146.163.067.08.134.171.202.26.043.057.085.107.128.167.077.107.154.226.232.344.033.052.068.099.101.152.112.177.225.365.338.565.518.914.69 2.265.465 3.441a2.185 2.185 0 01-.873-.287l-.502-.301a3.632 3.632 0 00-1.871-.52l-.024.001a3.629 3.629 0 00-1.895.519l-.244.146a2.73 2.73 0 01-1.38.389 2.719 2.719 0 01-1.38-.389l-.948-.569a1.2 1.2 0 00-.397-.15c-.11-.557-.071-1.008.119-1.367zM43.709 48.12a2.603 2.603 0 01-2.6 2.471H21.35a2.606 2.606 0 01-2.602-2.484l-1.171-16.642.612.367c.664.399 1.41.594 2.153.59a4.128 4.128 0 002.152-.59l.245-.146a2.217 2.217 0 011.123-.316c.388.005.776.107 1.123.316l.502.301a3.62 3.62 0 002.065.505c.064-.002.127-.002.191-.008.008 0 .015-.005.023-.006a3.613 3.613 0 001.388-.453c.04-.015.084-.015.122-.038l.502-.301a2.217 2.217 0 011.123-.316c.389.005.776.107 1.123.316l.502.301a3.639 3.639 0 001.722.51l.037.001c.205.007.41 0 .615-.029.117-.015.23-.044.345-.07a3.1 3.1 0 00.166-.042c.313-.086.619-.2.904-.37l.502-.302a2.221 2.221 0 011.123-.315c.388.004.776.107 1.123.315l.502.301c.582.349 1.234.52 1.886.517l.032.002c.633 0 1.265-.165 1.833-.495l1.38-.614c.03-.014.051-.04.079-.056l.108-.048L43.71 48.12z"/><path d="M20.365 42.272h4.928a.704.704 0 100-1.409h-4.928a.704.704 0 000 1.409zm0 2.815H26.7a.704.704 0 100-1.408h-6.335a.704.704 0 100 1.408zm7.743 1.408h-7.743a.704.704 0 100 1.408h7.743a.704.704 0 100-1.408zm4.223 0h-1.407a.704.704 0 100 1.408h1.407a.704.704 0 100-1.408z"/></g><defs><clipPath id="clip0"><path fill="#fff" transform="translate(12 12)" d="M0 0h40v40H0z"/></clipPath></defs></svg>