<svg width="32" height="32" fill="none" xmlns="http://www.w3.org/2000/svg"><path d="M13.934 14.72l-1.143 2.858a.307.307 0 00.456.37l2.599-1.733 2.598 1.733a.308.308 0 00.457-.37l-1.144-2.858 2.273-1.705a.308.308 0 00-.184-.553h-2.83l-.88-2.562a.308.308 0 00-.58.003l-.855 2.559h-2.855a.308.308 0 00-.185.553l2.273 1.705zm.989-1.643c.132 0 .25-.085.292-.21l.635-1.908.656 1.908c.043.124.16.207.29.207h2.127L17.2 14.367a.308.308 0 00-.101.36l.863 2.157-1.945-1.296a.307.307 0 00-.342 0l-1.945 1.296.863-2.157a.308.308 0 00-.101-.358l-1.723-1.292h2.154z" fill="#F2717D"/><path d="M21.692 6H10.308a.308.308 0 00-.308.308v18.461a.308.308 0 00.512.23l5.34-4.746 5.642 4.752a.308.308 0 00.506-.236V6.308A.308.308 0 0021.692 6zm-.307 18.108l-5.34-4.497a.308.308 0 00-.403.005l-5.027 4.468V6.615h10.77v17.493z" fill="#F2717D"/></svg>