<svg width="32" height="32" viewBox="0 0 24 24" fill="none" xmlns="http://www.w3.org/2000/svg"><path d="M12.905 11.502c.346-.27.569-.69.569-1.161V9.275a1.475 1.475 0 00-2.948 0v1.066c0 .471.223.892.569 1.161-1.105.385-1.922 1.417-1.922 2.582v.833c0 .13.105.234.235.234h5.184c.13 0 .235-.105.235-.234v-.833c0-1.165-.817-2.197-1.922-2.582zm-1.83-2.618a1.006 1.006 0 011.93.39v.26c-.38-.125-.54-.522-.547-.54a.235.235 0 00-.426-.03c-.003.006-.282.506-1.036.595v-.284c0-.139.028-.27.079-.39zm-.08 1.457v-.31c.603-.056.99-.322 1.21-.54.155.21.411.454.8.528v.322c0 .54-.429.98-.963 1.003l-.039-.001h-.046a1.005 1.005 0 01-.961-1.002zm.894 2.205h.222l.272 1.183-.383.35-.383-.35.272-1.183zm-.168-.711l.054-.008a2.33 2.33 0 01.106-.01h.016l.07-.003h.065a2.4 2.4 0 01.07.003h.017l.106.01.054.008-.125.242h-.308l-.125-.242zm2.637 2.847H9.642v-.598c0-.59.253-1.154.71-1.589.259-.245.568-.431.9-.547l.202.394-.325 1.415a.235.235 0 00.07.226l.642.588a.235.235 0 00.318 0l.642-.588a.235.235 0 00.07-.226l-.325-1.415.203-.394c.33.116.64.302.898.547.458.435.71 1 .71 1.59v.597z" fill="#F2717D"/><path d="M17.52 7.523a.235.235 0 00-.232-.199c-2.208 0-5.138-1.744-5.167-1.761a.235.235 0 00-.242 0c-.03.017-2.957 1.761-5.167 1.761a.235.235 0 00-.232.199 12.4 12.4 0 00-.11 1.775.235.235 0 10.47 0 12.91 12.91 0 01.08-1.508c.946-.04 2.086-.346 3.392-.913.807-.35 1.435-.696 1.688-.841.253.145.881.491 1.688.841 1.306.567 2.446.873 3.393.913.067.582.215 2.396-.221 4.355a.235.235 0 10.458.102c.547-2.456.216-4.633.202-4.724zm-.564 5.217a.235.235 0 00-.293.158c-.382 1.273-.98 2.347-1.773 3.192-.773.822-1.745 1.438-2.89 1.83-1.775-.608-3.118-1.743-3.99-3.375-.653-1.219-1.037-2.688-1.143-4.365a.235.235 0 10-.469.03c.11 1.745.513 3.278 1.197 4.557.944 1.763 2.401 2.983 4.33 3.624a.235.235 0 00.149 0c1.252-.416 2.314-1.082 3.158-1.98.844-.898 1.477-2.035 1.881-3.378a.235.235 0 00-.157-.292z" fill="#F2717D"/><path d="M18.852 6.446a.235.235 0 00-.232-.199c-2.78 0-6.462-2.191-6.5-2.213a.235.235 0 00-.241 0c-.037.022-3.719 2.214-6.5 2.214a.235.235 0 00-.231.198c-.018.11-.414 2.71.209 5.694.367 1.762 1.016 3.285 1.928 4.528 1.145 1.56 2.706 2.677 4.64 3.32a.237.237 0 00.149 0c1.935-.643 3.496-1.76 4.64-3.32.913-1.243 1.562-2.766 1.93-4.528.621-2.984.225-5.585.208-5.694zm-.669 5.598c-.353 1.696-.975 3.158-1.847 4.346-1.071 1.46-2.53 2.512-4.336 3.127-1.804-.614-3.261-1.664-4.332-3.12-.872-1.187-1.494-2.647-1.849-4.34-.512-2.446-.311-4.685-.233-5.343 1.188-.04 2.626-.424 4.277-1.14A21.965 21.965 0 0012 4.507c.294.17 1.096.615 2.137 1.067 1.651.716 3.089 1.1 4.277 1.14.078.657.279 2.886-.23 5.33z" fill="#F2717D"/></svg>