<svg width="32" height="32" fill="none" xmlns="http://www.w3.org/2000/svg"><mask id="a" maskUnits="userSpaceOnUse" x=".154" y="3.162" width="29" height="29" fill="#000"><path fill="#fff" d="M.154 3.162h29v29h-29z"/><path d="M14.759 31.375a13.612 13.612 0 0012.28-19.47l-.677.324a12.739 12.739 0 011.253 5.54l-.002.128-.553.056a2.044 2.044 0 01-.082.006l-.253.012a1.6 1.6 0 00-1.4.96l-.065.147a1.539 1.539 0 01-1.408.92h-1.076a.652.652 0 01-.652-.59l-.043-.43a1.593 1.593 0 00-.724-1.185.77.77 0 01-.354-.648v-.43a.998.998 0 01.338-.75l1.838-1.623a1.657 1.657 0 00.488-1.718 1.691 1.691 0 00-1.412-1.187l-.185-.023a1.06 1.06 0 01-.67-.355.668.668 0 01-.08-.769l1.13-1.93-.648-.379-1.13 1.934a1.42 1.42 0 00.163 1.638c.294.335.7.55 1.143.605l.185.023a.94.94 0 01.786.66.905.905 0 01-.267.939l-1.838 1.623a1.748 1.748 0 00-.59 1.31v.432a1.516 1.516 0 00.696 1.278.846.846 0 01.385.63l.043.43a1.4 1.4 0 001.398 1.265h1.076a2.29 2.29 0 002.095-1.369l.065-.147a.854.854 0 01.747-.513l.254-.011c.04-.002.081-.005.122-.01l.448-.044c-.456 6.677-6.033 11.971-12.824 11.971-7.089 0-12.856-5.767-12.856-12.855 0-.91.097-1.817.288-2.706l.703-.139a1.518 1.518 0 011.606.727c.149.256.334.49.55.693l1.021.961c.272.256.603.441.963.54l.12.032a1.325 1.325 0 01.923.92l.548 1.976c.091.33.244.638.452.91l1.659 2.175c.133.174.221.378.257.595l.453 2.717a1.132 1.132 0 001.557.859 1.513 1.513 0 00.92-1.24c.042-.408.205-.793.467-1.108l.48-.578c.149-.178.26-.384.329-.606l.493-1.602c.1-.325.299-.611.569-.818l1.482-1.138a1.251 1.251 0 00.192-1.804l-.979-1.15a2.575 2.575 0 01-.129-.166l-.769-1.072a2.938 2.938 0 00-2.275-1.221l-1.443-.866a2.242 2.242 0 00-2.2-.053l-.806.431a.835.835 0 01-1.096-.288l-.782-1.235a.95.95 0 01.016-1.042 1.17 1.17 0 011.12-.507l1.184.151a1.803 1.803 0 001.783-.876 1.103 1.103 0 011.092-.535l.513.065a1.798 1.798 0 001.644-.682l.452-.587a2.274 2.274 0 00.068-2.694l-1.3-1.874a12.85 12.85 0 017.154 1.697l.376-.65a13.606 13.606 0 10-6.8 25.393zm-1.59-26.363l1.543 2.225a1.526 1.526 0 01-.046 1.808l-.452.587a1.045 1.045 0 01-.955.396l-.513-.065a1.853 1.853 0 00-1.833.9 1.053 1.053 0 01-1.042.511l-1.184-.15a1.914 1.914 0 00-1.836.83 1.7 1.7 0 00-.029 1.864l.782 1.235a1.589 1.589 0 002.084.548l.806-.431a1.488 1.488 0 011.46.035l1.529.917a.375.375 0 00.193.053 2.187 2.187 0 011.773.91l.77 1.073c.052.073.108.145.166.213l.978 1.151a.502.502 0 01-.077.724l-1.482 1.138a2.37 2.37 0 00-.828 1.191l-.494 1.602a1.001 1.001 0 01-.188.348l-.48.578a2.806 2.806 0 00-.636 1.51.763.763 0 01-.465.625.383.383 0 01-.527-.29l-.453-2.717a2.104 2.104 0 00-.4-.927l-1.66-2.175a1.924 1.924 0 01-.325-.655L8.8 18.598a2.078 2.078 0 00-1.45-1.444l-.119-.032a1.537 1.537 0 01-.646-.362l-1.021-.962a2.31 2.31 0 01-.416-.523 2.27 2.27 0 00-2.4-1.086l-.358.07c1.391-4.894 5.616-8.607 10.78-9.247z"/></mask><path d="M14.759 31.375a13.612 13.612 0 0012.28-19.47l-.677.324a12.739 12.739 0 011.253 5.54l-.002.128-.553.056a2.044 2.044 0 01-.082.006l-.253.012a1.6 1.6 0 00-1.4.96l-.065.147a1.539 1.539 0 01-1.408.92h-1.076a.652.652 0 01-.652-.59l-.043-.43a1.593 1.593 0 00-.724-1.185.77.77 0 01-.354-.648v-.43a.998.998 0 01.338-.75l1.838-1.623a1.657 1.657 0 00.488-1.718 1.691 1.691 0 00-1.412-1.187l-.185-.023a1.06 1.06 0 01-.67-.355.668.668 0 01-.08-.769l1.13-1.93-.648-.379-1.13 1.934a1.42 1.42 0 00.163 1.638c.294.335.7.55 1.143.605l.185.023a.94.94 0 01.786.66.905.905 0 01-.267.939l-1.838 1.623a1.748 1.748 0 00-.59 1.31v.432a1.516 1.516 0 00.696 1.278.846.846 0 01.385.63l.043.43a1.4 1.4 0 001.398 1.265h1.076a2.29 2.29 0 002.095-1.369l.065-.147a.854.854 0 01.747-.513l.254-.011c.04-.002.081-.005.122-.01l.448-.044c-.456 6.677-6.033 11.971-12.824 11.971-7.089 0-12.856-5.767-12.856-12.855 0-.91.097-1.817.288-2.706l.703-.139a1.518 1.518 0 011.606.727c.149.256.334.49.55.693l1.021.961c.272.256.603.441.963.54l.12.032a1.325 1.325 0 01.923.92l.548 1.976c.091.33.244.638.452.91l1.659 2.175c.133.174.221.378.257.595l.453 2.717a1.132 1.132 0 001.557.859 1.513 1.513 0 00.92-1.24c.042-.408.205-.793.467-1.108l.48-.578c.149-.178.26-.384.329-.606l.493-1.602c.1-.325.299-.611.569-.818l1.482-1.138a1.251 1.251 0 00.192-1.804l-.979-1.15a2.575 2.575 0 01-.129-.166l-.769-1.072a2.938 2.938 0 00-2.275-1.221l-1.443-.866a2.242 2.242 0 00-2.2-.053l-.806.431a.835.835 0 01-1.096-.288l-.782-1.235a.95.95 0 01.016-1.042 1.17 1.17 0 011.12-.507l1.184.151a1.803 1.803 0 001.783-.876 1.103 1.103 0 011.092-.535l.513.065a1.798 1.798 0 001.644-.682l.452-.587a2.274 2.274 0 00.068-2.694l-1.3-1.874a12.85 12.85 0 017.154 1.697l.376-.65a13.606 13.606 0 10-6.8 25.393zm-1.59-26.363l1.543 2.225a1.526 1.526 0 01-.046 1.808l-.452.587a1.045 1.045 0 01-.955.396l-.513-.065a1.853 1.853 0 00-1.833.9 1.053 1.053 0 01-1.042.511l-1.184-.15a1.914 1.914 0 00-1.836.83 1.7 1.7 0 00-.029 1.864l.782 1.235a1.589 1.589 0 002.084.548l.806-.431a1.488 1.488 0 011.46.035l1.529.917a.375.375 0 00.193.053 2.187 2.187 0 011.773.91l.77 1.073c.052.073.108.145.166.213l.978 1.151a.502.502 0 01-.077.724l-1.482 1.138a2.37 2.37 0 00-.828 1.191l-.494 1.602a1.001 1.001 0 01-.188.348l-.48.578a2.806 2.806 0 00-.636 1.51.763.763 0 01-.465.625.383.383 0 01-.527-.29l-.453-2.717a2.104 2.104 0 00-.4-.927l-1.66-2.175a1.924 1.924 0 01-.325-.655L8.8 18.598a2.078 2.078 0 00-1.45-1.444l-.119-.032a1.537 1.537 0 01-.646-.362l-1.021-.962a2.31 2.31 0 01-.416-.523 2.27 2.27 0 00-2.4-1.086l-.358.07c1.391-4.894 5.616-8.607 10.78-9.247z" fill="#1B3281"/><path d="M14.759 31.375a13.612 13.612 0 0012.28-19.47l-.677.324a12.739 12.739 0 011.253 5.54l-.002.128-.553.056a2.044 2.044 0 01-.082.006l-.253.012a1.6 1.6 0 00-1.4.96l-.065.147a1.539 1.539 0 01-1.408.92h-1.076a.652.652 0 01-.652-.59l-.043-.43a1.593 1.593 0 00-.724-1.185.77.77 0 01-.354-.648v-.43a.998.998 0 01.338-.75l1.838-1.623a1.657 1.657 0 00.488-1.718 1.691 1.691 0 00-1.412-1.187l-.185-.023a1.06 1.06 0 01-.67-.355.668.668 0 01-.08-.769l1.13-1.93-.648-.379-1.13 1.934a1.42 1.42 0 00.163 1.638c.294.335.7.55 1.143.605l.185.023a.94.94 0 01.786.66.905.905 0 01-.267.939l-1.838 1.623a1.748 1.748 0 00-.59 1.31v.432a1.516 1.516 0 00.696 1.278.846.846 0 01.385.63l.043.43a1.4 1.4 0 001.398 1.265h1.076a2.29 2.29 0 002.095-1.369l.065-.147a.854.854 0 01.747-.513l.254-.011c.04-.002.081-.005.122-.01l.448-.044c-.456 6.677-6.033 11.971-12.824 11.971-7.089 0-12.856-5.767-12.856-12.855 0-.91.097-1.817.288-2.706l.703-.139a1.518 1.518 0 011.606.727c.149.256.334.49.55.693l1.021.961c.272.256.603.441.963.54l.12.032a1.325 1.325 0 01.923.92l.548 1.976c.091.33.244.638.452.91l1.659 2.175c.133.174.221.378.257.595l.453 2.717a1.132 1.132 0 001.557.859 1.513 1.513 0 00.92-1.24c.042-.408.205-.793.467-1.108l.48-.578c.149-.178.26-.384.329-.606l.493-1.602c.1-.325.299-.611.569-.818l1.482-1.138a1.251 1.251 0 00.192-1.804l-.979-1.15a2.575 2.575 0 01-.129-.166l-.769-1.072a2.938 2.938 0 00-2.275-1.221l-1.443-.866a2.242 2.242 0 00-2.2-.053l-.806.431a.835.835 0 01-1.096-.288l-.782-1.235a.95.95 0 01.016-1.042 1.17 1.17 0 011.12-.507l1.184.151a1.803 1.803 0 001.783-.876 1.103 1.103 0 011.092-.535l.513.065a1.798 1.798 0 001.644-.682l.452-.587a2.274 2.274 0 00.068-2.694l-1.3-1.874a12.85 12.85 0 017.154 1.697l.376-.65a13.606 13.606 0 10-6.8 25.393v0zm-1.59-26.363l1.543 2.225a1.526 1.526 0 01-.046 1.808l-.452.587a1.045 1.045 0 01-.955.396l-.513-.065a1.853 1.853 0 00-1.833.9 1.053 1.053 0 01-1.042.511l-1.184-.15a1.914 1.914 0 00-1.836.83 1.7 1.7 0 00-.029 1.864l.782 1.235a1.589 1.589 0 002.084.548l.806-.431a1.488 1.488 0 011.46.035l1.529.917a.375.375 0 00.193.053 2.187 2.187 0 011.773.91l.77 1.073c.052.073.108.145.166.213l.978 1.151a.502.502 0 01-.077.724l-1.482 1.138a2.37 2.37 0 00-.828 1.191l-.494 1.602a1.001 1.001 0 01-.188.348l-.48.578a2.806 2.806 0 00-.636 1.51.763.763 0 01-.465.625.383.383 0 01-.527-.29l-.453-2.717a2.104 2.104 0 00-.4-.927l-1.66-2.175a1.924 1.924 0 01-.325-.655L8.8 18.598a2.078 2.078 0 00-1.45-1.444l-.119-.032a1.537 1.537 0 01-.646-.362l-1.021-.962a2.31 2.31 0 01-.416-.523 2.27 2.27 0 00-2.4-1.086l-.358.07c1.391-4.894 5.616-8.607 10.78-9.247v0z" stroke="#1B3281" stroke-width=".4" mask="url(#a)"/><path d="M22.352 1.993h0a5.284 5.284 0 00-1.522 3.384c-.08 1.191.298 2.421 1.062 3.468h0v.001l3.61 4.826.08-.06-.08.06a.474.474 0 00.761 0l-.08-.06.08.06 3.61-4.825c.767-1.023 1.145-2.255 1.063-3.47a5.284 5.284 0 00-1.522-3.384l-.071.07.07-.07a4.982 4.982 0 00-7.061 0zm-.574 3.446h0a4.333 4.333 0 011.247-2.776 4.032 4.032 0 015.715 0 4.335 4.335 0 011.248 2.777h0c.067.986-.243 1.994-.876 2.838l.08.06-.08-.06-3.23 4.317-3.226-4.313s0 0 0 0c-.632-.868-.943-1.878-.878-2.843z" fill="#ED1C24" stroke="#ED1C24" stroke-width=".2"/><path d="M28.22 5.686v0a2.396 2.396 0 00-2.394-2.394v.1-.1a2.394 2.394 0 102.393 2.394zm-.95 0v0a1.436 1.436 0 01-.428 1.022l.07.07-.07-.07a1.444 1.444 0 11.428-1.022z" fill="#ED1C24" stroke="#ED1C24" stroke-width=".2"/></svg>