<svg width="32" height="34" fill="none" xmlns="http://www.w3.org/2000/svg"><path d="M28.197 28.328V12.459c0-3.315-1.3-6.44-3.66-8.8C22.177 1.3 19.052 0 15.737 0 13.392 0 11.1.664 9.114 1.92a.656.656 0 00.7 1.11 11.072 11.072 0 015.925-1.719c6.146 0 11.147 5.001 11.147 11.148v15.869H4.59V12.459c0-2.099.594-4.147 1.718-5.924a.656.656 0 00-1.109-.701 12.38 12.38 0 00-1.92 6.625v15.869A2.626 2.626 0 00.656 30.95v1.967c0 .362.293.656.656.656h28.852a.656.656 0 00.656-.656V30.95a2.626 2.626 0 00-2.623-2.623zm1.311 3.934H1.968v-1.311c0-.723.588-1.312 1.31-1.312h24.919c.723 0 1.311.589 1.311 1.312v1.311z" fill="#1B3281"/><path d="M7.392 4.768a.656.656 0 10-.463-1.12l-.001.001a.656.656 0 00.464 1.12z" fill="#1B3281"/><path d="M31.476 3.344h-1.574v1.05h1.574v-1.05z" fill="#ED1C24"/><path d="M29.902 1.77h-1.05v1.574h1.05V1.771z" fill="#ED1C24"/><path d="M28.853 3.344h-1.574v1.05h1.574v-1.05z" fill="#ED1C24"/><path d="M29.902 4.393h-1.05v1.574h1.05V4.393zM4.197 2.82H2.623v1.049h1.574v-1.05zM2.623 1.246h-1.05V2.82h1.05V1.246z" fill="#ED1C24"/><path d="M1.574 2.82H0v1.049h1.574v-1.05zm1.049 1.049h-1.05v1.574h1.05V3.869zm.525 9.443h-1.05v1.049h1.05v-1.05z" fill="#ED1C24"/><path d="M2.098 12.262H1.05v1.05H2.1v-1.05zm-1.048 1.05H0v1.049h1.05v-1.05zm1.048 1.048H1.05v1.05H2.1v-1.05zM32 13.312h-1.05v1.049H32v-1.05z" fill="#ED1C24"/><path d="M30.951 12.262h-1.05v1.05h1.05v-1.05z" fill="#ED1C24"/><path d="M29.902 13.312h-1.05v1.049h1.05v-1.05z" fill="#ED1C24"/><path d="M30.951 14.36h-1.05v1.05h1.05v-1.05zm-16.69-3.513c-1.374-1.375-4.065-1.534-5.97-1.534a.357.357 0 00-.357.357c0 1.905.159 4.595 1.534 5.97.58.58 1.47.84 2.352.84.958 0 1.908-.307 2.441-.84 1.024-1.025 1.212-3.582 0-4.793zm-.505 4.288c-.764.764-2.888.894-3.782 0-1.11-1.11-1.302-3.364-1.323-5.105 1.74.02 3.995.213 5.105 1.322.895.895.764 3.019 0 3.783z" fill="#ED1C24"/><path fill-rule="evenodd" clip-rule="evenodd" d="M9.468 15.64l-.093.093c-.714-.715-1.105-1.761-1.318-2.854-.214-1.095-.254-2.254-.254-3.209 0-.27.219-.488.489-.488.954 0 2.113.04 3.208.254 1.093.213 2.14.604 2.854 1.318.64.64.901 1.622.877 2.563-.024.939-.333 1.871-.877 2.415-.566.567-1.555.879-2.534.879-.904 0-1.832-.265-2.445-.878l.093-.093zm.515-.515l.084-.083c.411.411 1.123.6 1.844.584.722-.016 1.404-.236 1.753-.584.348-.348.567-1.03.583-1.752.016-.721-.172-1.433-.583-1.845-.528-.528-1.34-.846-2.25-1.034-.861-.177-1.796-.234-2.63-.248.014.834.071 1.768.249 2.63.187.91.506 1.721 1.034 2.25l-.084.082zm-1.33-4.964l-.002-.131c.044 0 .087 0 .131.002 1.722.029 3.892.238 4.974 1.32.895.895.764 3.019 0 3.783-.764.764-2.888.894-3.782 0-1.082-1.082-1.292-3.253-1.321-4.974zm-.361-.848c1.904 0 4.595.16 5.97 1.534 1.211 1.21 1.024 3.768 0 4.792-.534.534-1.484.84-2.442.84-.882 0-1.772-.259-2.352-.839-1.375-1.375-1.534-4.065-1.534-5.97 0-.197.16-.357.358-.357z" fill="#ED1C24"/><path d="M23.315 10.726c-1.905 0-4.595.16-5.97 1.534-1.212 1.211-1.024 3.769 0 4.793.534.533 1.483.84 2.441.84.882 0 1.771-.26 2.353-.84 1.374-1.374 1.533-4.065 1.533-5.97a.357.357 0 00-.357-.357zm-1.683 5.822c-.895.894-3.019.764-3.782 0-.764-.764-.895-2.888 0-3.783 1.11-1.11 3.364-1.302 5.105-1.322-.021 1.741-.213 3.996-1.323 5.105z" fill="#ED1C24"/><path fill-rule="evenodd" clip-rule="evenodd" d="M17.345 17.053c-1.024-1.024-1.212-3.582 0-4.793 1.375-1.375 4.066-1.534 5.97-1.534.197 0 .357.16.357.358 0 1.904-.16 4.595-1.533 5.97-.582.58-1.471.838-2.353.838-.958 0-1.907-.306-2.44-.84zm6.458-5.97a.489.489 0 00-.488-.488c-.955 0-2.114.04-3.209.254-1.092.213-2.139.604-2.854 1.318m6.551-1.083c0 .955-.04 2.113-.254 3.208-.213 1.093-.603 2.14-1.317 2.854-.615.613-1.543.878-2.446.878-.98 0-1.967-.313-2.534-.878-.543-.544-.852-1.477-.877-2.416-.023-.94.237-1.923.877-2.563m4.287 4.288c.528-.528.847-1.339 1.034-2.25.178-.86.235-1.795.249-2.63-.834.015-1.769.072-2.63.249-.91.187-1.722.506-2.25 1.034-.411.411-.6 1.123-.583 1.845.016.722.235 1.404.583 1.752.348.348 1.03.568 1.753.584.72.015 1.433-.173 1.844-.584zm1.285-5.01c-1.722.028-3.892.238-4.974 1.32-.895.895-.764 3.019 0 3.783.764.764 2.887.894 3.782 0 1.082-1.082 1.292-3.252 1.32-4.974l.003-.131-.131.001z" fill="#ED1C24"/><path d="M20.735 13.82c-.085-.18-.326-.242-.504-.159-2.74 1.289-4.087 3.536-4.699 5.845-.757-4.91-2.945-6.408-3.874-7.043-.115-.08-.205-.137-.255-.187a.358.358 0 00-.506.506c.071.07.193.158.358.27 1.046.716 3.825 2.617 3.825 10.196a.357.357 0 00.715 0c0-3.062.823-7.098 4.74-8.94l.058-.027c.178-.084.226-.283.142-.462z" fill="#ED1C24"/><path fill-rule="evenodd" clip-rule="evenodd" d="M10.897 12.782a.358.358 0 01.505-.506c.042.041.11.088.198.147l.058.04c.91.622 3.025 2.07 3.824 6.734.017.102.034.204.05.31a13.3 13.3 0 01.084-.302c.648-2.202 1.994-4.311 4.615-5.544.178-.082.42-.021.503.158.085.179.037.378-.141.462l-.058.028c-3.917 1.84-4.74 5.877-4.74 8.94a.357.357 0 01-.714-.001c0-7.579-2.78-9.48-3.826-10.196a2.874 2.874 0 01-.358-.27zm4.669 6.14c.682-2.14 2.044-4.173 4.609-5.38.23-.106.557-.037.678.221.106.224.056.502-.187.628v.001l-.075.036c-3.845 1.806-4.665 5.772-4.665 8.82a.488.488 0 01-.977 0c0-3.774-.691-6.12-1.504-7.609-.81-1.485-1.747-2.125-2.263-2.478a2.975 2.975 0 01-.377-.286.489.489 0 01.69-.692c.032.032.087.07.174.129l.063.043h.001c.468.32 1.262.864 2.034 1.95.71 1.002 1.397 2.458 1.799 4.617zm5.031-4.498z" fill="#ED1C24"/><path fill-rule="evenodd" clip-rule="evenodd" d="M9.18 24.131v3.213h12.131v-3.213H9.181zm-.983-.23c0-.416.337-.753.754-.753h12.59c.416 0 .754.337.754.754v4.426H8.197v-4.426z" fill="#ED1C24"/></svg>