<svg width="32" height="32" fill="none" xmlns="http://www.w3.org/2000/svg"><circle cx="16" cy="16" r="16" fill="#F2BC18"/><path d="M15.693 11.05l-.927 1.089-1.32.545.748 1.217.11 1.424 1.389-.336 1.388.336.11-1.424.748-1.217-1.32-.545-.926-1.089zm.48 2.52l-.035.457-.445-.109-.445.109-.036-.458-.24-.39.424-.175.297-.349.297.35.424.174-.24.39z" fill="#fff"/><path d="M15.65 12.216l-.447.526-.638.262.362.587.053.688.67-.163.67.162.053-.687.36-.587-.637-.262-.446-.526zm.232 1.216l-.017.22-.215-.052-.215.052-.017-.22-.116-.189.205-.084.143-.168.143.168.205.084-.116.188z" fill="#F2BC18"/><path d="M9.795 15.574c.113.099.178.241.178.44a.52.52 0 01-1.04 0v-.52H7.891v.52c0 .86.7 1.56 1.56 1.56.86 0 1.56-.7 1.56-1.609 0-.45-.194-.878-.532-1.175l-3.195-2.795a1.27 1.27 0 01.835-2.223h.901a11.298 11.298 0 005.112 8.085v5.438h-1.56a2.604 2.604 0 00-2.6 2.6v.52h11.442v-.52c0-1.433-1.166-2.6-2.6-2.6h-1.56v-5.438a11.3 11.3 0 005.112-8.085h.9a1.27 1.27 0 01.836 2.223l-3.195 2.796a1.592 1.592 0 00-.533 1.222c0 .86.7 1.56 1.56 1.56.86 0 1.56-.7 1.56-1.56v-.52h-1.04v.52a.52.52 0 01-.52.52c-.286 0-.52-.233-.52-.568a.52.52 0 01.178-.391l3.195-2.796a2.308 2.308 0 00-1.52-4.046h-.824c.004-.115.012-.23.012-.345v-.696H8.932v.696c0 .116.008.23.012.345H8.12a2.31 2.31 0 00-1.52 4.046l3.195 2.796zm10.491 9.802h-9.184a1.563 1.563 0 011.471-1.04h6.242c.678 0 1.256.434 1.471 1.04zm-5.112-2.08v-5.202h1.04v5.201h-1.04zm6.235-14.564c-.011.35-.046.696-.094 1.04h-1.46v1.04h1.26a10.252 10.252 0 01-4.526 6.242H14.8a10.247 10.247 0 01-4.526-6.242h8.54v-1.04h-8.741a10.06 10.06 0 01-.095-1.04H21.41z" fill="#fff"/><path d="M5.727 18.795v1.175l-.831-.83-.643.642.831.83H3.91v.91h1.175l-.83.83.642.642.83-.83v1.174h.91v-1.174l.83.83.643-.642-.831-.83h1.175v-.91H7.278l.83-.83-.642-.643-.83.83v-1.174h-.91zm.83 1.363l.533.532v.753l-.533.532h-.752l-.533-.532v-.753l.533-.532h.752zm23.591-5.384l.603-.602-.466-.466-.602.602v-.851h-.66v.851l-.602-.602-.466.466.603.602h-.852v.659h.852l-.603.602.466.466.603-.602v.852h.659v-.852l.602.602.466-.466-.603-.602H31v-.659h-.852zm-.136.057v.545l-.386.386h-.546l-.386-.386v-.545l.386-.386h.546l.386.386zm-8.753 4.872h.909v.909h-.91v-.909z" fill="#fff"/><path d="M20.35 20.612h.908v.909h-.908v-.91zm.909.909h.909v.909h-.91v-.909zm.908-.909h.909v.909h-.909v-.91zM20.436 4.057h.908v.908h-.909v-.908z" fill="#fff"/><path d="M19.526 4.965h.91v.91h-.91v-.91zm.91.91h.908v.908h-.909v-.908zm.908-.91h.909v.91h-.91v-.91zm4.496 18.857h.549v.549h-.55v-.55zm-.549.549h.549v.55h-.549v-.55z" fill="#fff"/><path d="M25.84 24.92h.549v.548h-.55v-.549zm.55-.549h.549v.55h-.55v-.55zM10.193 1.586h.55v.549h-.55v-.55z" fill="#fff"/><path d="M9.645 2.135h.549v.55h-.55v-.55z" fill="#fff"/><path d="M10.193 2.684h.55v.549h-.55v-.55zm.55-.549h.55v.55h-.55v-.55zm-7.194 8.027h.549v.55h-.55v-.55z" fill="#fff"/><path d="M3 10.711h.55v.55H3v-.55z" fill="#fff"/><path d="M3.549 11.26h.549v.55h-.55v-.55zm.55-.549h.549v.55h-.55v-.55z" fill="#fff"/></svg>