<svg width="32" height="32" fill="none" xmlns="http://www.w3.org/2000/svg"><path d="M9.5 11.908V13h1v-1.092a1.5 1.5 0 00.908-.908H12.5v-1h-1.092a1.5 1.5 0 00-.908-.908V8h-1v1.092a1.5 1.5 0 00-.908.908H7.5v1h1.092a1.5 1.5 0 00.908.908zM10 10a.5.5 0 110 1 .5.5 0 010-1zm6.5 1.908V13h1v-1.092a1.5 1.5 0 00.908-.908H19.5v-1h-1.092a1.5 1.5 0 00-.908-.908V8h-1v1.092a1.5 1.5 0 00-.908.908H14.5v1h1.092a1.5 1.5 0 00.908.908zM17 10a.5.5 0 110 1 .5.5 0 010-1zm-7.5 7.408V18.5h1v-1.092a1.5 1.5 0 00.908-.908H12.5v-1h-1.092a1.5 1.5 0 00-.908-.908V13.5h-1v1.092a1.5 1.5 0 00-.908.908H7.5v1h1.092a1.5 1.5 0 00.908.908zM10 15.5a.5.5 0 110 1 .5.5 0 010-1zm6.5 1.908V18.5h1v-1.092a1.5 1.5 0 00.908-.908H19.5v-1h-1.092a1.5 1.5 0 00-.908-.908V13.5h-1v1.092a1.5 1.5 0 00-.908.908H14.5v1h1.092a1.5 1.5 0 00.908.908zM17 15.5a.5.5 0 110 1 .5.5 0 010-1z" fill="#ED1C24"/><path d="M5.5 30H31v-1h-.5v-1.5a.5.5 0 00-.5-.5h-2V6.5h2.5a.5.5 0 00.496-.438l.5-4A.5.5 0 0031 1.5h-3V1h-1v.5h-3a.5.5 0 00-.496.562l.5 4a.5.5 0 00.496.438H27V27h-2a.5.5 0 00-.5.5V29h-1.076l-.419-2.51.945-7.54A2 2 0 0023.5 15h-.438l.036-.303a9.663 9.663 0 10-19.196 0l.035.303H3.5a2 2 0 00-.45 3.95l.945 7.54L3.576 29H1v1h4.5zM24.567 2.5h5.866l-.375 3h-5.116l-.375-3zM19.69 27l1 2H6.309l1-2h12.382zm5.809 1h4v1h-4v-1zm-3.691 1l-1-2h1.267l.334 2h-.601zM4.895 14.58a8.664 8.664 0 1117.21 0l-.05.42h-.242a2.007 2.007 0 00-1.982 1.735l-.369 2.765H7.537l-.368-2.764A2.007 2.007 0 005.187 15h-.243l-.049-.42zM19 22.5H8v-2h11v2zM3.5 18a1 1 0 010-2h1.686a1.002 1.002 0 01.992.868l.827 6.2a.455.455 0 00.023.072.438.438 0 00.025.076.48.48 0 00.06.09c.014.021.03.04.047.058.03.027.064.049.1.067a.569.569 0 00.056.034.494.494 0 00.184.035h12a.494.494 0 00.186-.038.485.485 0 00.056-.034.468.468 0 00.1-.066.44.44 0 00.047-.057.479.479 0 00.06-.09.43.43 0 00.025-.077.436.436 0 00.023-.072l.828-6.2a1.002 1.002 0 01.989-.866H23.5a1 1 0 010 2 .5.5 0 00-.496.438L22.058 26H4.942l-.946-7.562A.5.5 0 003.5 18zm1.423 9h1.268l-1 2h-.6l.332-2z" fill="#1B3281"/></svg>