<svg width="32" height="32" fill="none" xmlns="http://www.w3.org/2000/svg"><path d="M31.464 14.716H29.42c-.928 0-1.684.755-1.684 1.684v.156h-2.118v-1.549a5.374 5.374 0 001.888-4.09 5.391 5.391 0 00-5.385-5.385 5.392 5.392 0 00-5.385 5.385c0 .575.091 1.128.258 1.648h-1.731a7.715 7.715 0 00.177-1.648c0-4.257-3.463-7.72-7.72-7.72S0 6.66 0 10.917a7.721 7.721 0 003.564 6.504v10.846c0 .296.24.536.537.536h20.98c.297 0 .537-.24.537-.536V24.81h2.118v.157c0 .928.755 1.684 1.684 1.684h2.043c.297 0 .537-.24.537-.537V15.252a.536.536 0 00-.536-.536zm-30.39-3.799A6.655 6.655 0 017.72 4.27a6.655 6.655 0 016.647 6.647 6.655 6.655 0 01-6.647 6.647 6.655 6.655 0 01-6.647-6.647zm23.47 16.813H4.638v-9.736a7.676 7.676 0 003.082.643c3.3 0 6.122-2.08 7.224-5h2.532a5.387 5.387 0 004.645 2.665 5.35 5.35 0 002.424-.579V27.73zm-2.424-12.5a4.317 4.317 0 01-4.313-4.313 4.317 4.317 0 014.313-4.312 4.317 4.317 0 014.312 4.312 4.317 4.317 0 01-4.312 4.312zm5.615 8.508h-2.118v-6.109h2.118v6.109zm3.191 1.84H29.42a.612.612 0 01-.61-.61V16.4a.61.61 0 01.61-.611h1.507v9.79z" fill="#1B3281"/><path d="M7.72 8.246a2.674 2.674 0 00-2.67 2.671 2.674 2.674 0 002.67 2.67 2.674 2.674 0 002.67-2.67 2.674 2.674 0 00-2.67-2.67zm0 4.269a1.6 1.6 0 01-1.598-1.598A1.6 1.6 0 017.72 9.319a1.6 1.6 0 011.598 1.598 1.6 1.6 0 01-1.598 1.598zm4.29-5.888a.537.537 0 00-.759 0l-1.21 1.21a.537.537 0 00.76.758l1.209-1.21a.535.535 0 000-.758zm-6.612 6.612a.537.537 0 00-.759 0l-1.209 1.21a.536.536 0 10.759.758l1.21-1.21a.537.537 0 000-.758zm6.612 1.209l-1.21-1.21a.537.537 0 00-.758.76l1.209 1.209a.535.535 0 10.759-.759zM5.399 7.837l-1.21-1.21a.537.537 0 00-.759.759l1.21 1.21a.535.535 0 00.759 0 .539.539 0 000-.76zm19.047 4.646l-.602-.602a.537.537 0 00-.759.76l.602.6a.535.535 0 00.759 0 .535.535 0 000-.758zm-3.289-3.289l-.602-.602a.537.537 0 00-.759.759l.602.602a.535.535 0 00.759 0 .539.539 0 000-.76zm0 2.687a.537.537 0 00-.76 0l-.6.602a.536.536 0 10.758.759l.602-.602c.21-.21.21-.55 0-.759zm3.289-3.289a.537.537 0 00-.759 0l-.602.602a.536.536 0 10.76.759l.6-.602c.21-.21.21-.55 0-.759zM21.09 20.774H8.093a.537.537 0 00-.537.537v3.42c0 .297.24.537.537.537H21.09c.296 0 .536-.24.536-.537v-3.42a.536.536 0 00-.536-.537zM8.629 24.195v-2.348h11.926v2.348H8.628zm6.421-7.891c-.887 0-1.61.722-1.61 1.61 0 .887.723 1.609 1.61 1.609.888 0 1.61-.722 1.61-1.61 0-.887-.722-1.61-1.61-1.61zm0 2.146a.537.537 0 11.001-1.074.537.537 0 010 1.074zm3.863-2.146c-.887 0-1.61.722-1.61 1.61 0 .887.723 1.609 1.61 1.609.887 0 1.61-.722 1.61-1.61 0-.887-.723-1.61-1.61-1.61zm0 2.146a.537.537 0 11.001-1.074.537.537 0 01-.001 1.074zm3.208-6.996a.537.537 0 100-1.073.537.537 0 000 1.073z" fill="#ED1C24"/></svg>