<svg width="32" height="32" fill="none" xmlns="http://www.w3.org/2000/svg"><path d="M30.692 13.483a2.135 2.135 0 01-.71-2.65A3.038 3.038 0 0029.856 8a3.038 3.038 0 00-2.39-1.525 2.135 2.135 0 01-1.94-1.94A3.038 3.038 0 0024 2.144a3.038 3.038 0 00-2.834-.126 2.135 2.135 0 01-2.65-.71A3.038 3.038 0 0016 0a3.038 3.038 0 00-2.517 1.308 2.135 2.135 0 01-2.65.71A3.038 3.038 0 008 2.144a3.038 3.038 0 00-1.525 2.39 2.135 2.135 0 01-1.94 1.94A3.038 3.038 0 002.144 8a3.038 3.038 0 00-.126 2.834c.437.94.138 2.054-.71 2.65A3.038 3.038 0 000 16a3.04 3.04 0 001.308 2.517 2.135 2.135 0 01.71 2.65A3.038 3.038 0 002.144 24a3.038 3.038 0 002.39 1.525 2.135 2.135 0 011.94 1.94A3.038 3.038 0 008 29.856c.88.508 1.912.554 2.834.126a2.135 2.135 0 012.65.71A3.038 3.038 0 0016 32a3.038 3.038 0 002.517-1.308 2.135 2.135 0 012.65-.71A3.038 3.038 0 0024 29.856a3.038 3.038 0 001.525-2.39 2.135 2.135 0 011.94-1.94A3.038 3.038 0 0029.856 24c.508-.88.554-1.912.126-2.834a2.135 2.135 0 01.71-2.65A3.038 3.038 0 0032 16a3.038 3.038 0 00-1.308-2.517zm-.539 4.266a3.072 3.072 0 00-1.021 3.813c.297.64.265 1.358-.088 1.97a2.112 2.112 0 01-1.661 1.06 3.072 3.072 0 00-2.791 2.79 2.112 2.112 0 01-1.06 1.662 2.112 2.112 0 01-1.97.088 3.072 3.072 0 00-3.813 1.021 2.111 2.111 0 01-1.749.91 2.111 2.111 0 01-1.75-.91 3.071 3.071 0 00-3.812-1.021 2.112 2.112 0 01-1.97-.087 2.112 2.112 0 01-1.06-1.662 3.072 3.072 0 00-2.79-2.791 2.111 2.111 0 01-1.662-1.06 2.112 2.112 0 01-.088-1.97 3.072 3.072 0 00-1.021-3.813A2.111 2.111 0 01.937 16c0-.706.332-1.344.91-1.75a3.072 3.072 0 001.021-3.812 2.112 2.112 0 01.088-1.97 2.112 2.112 0 011.661-1.06 3.072 3.072 0 002.791-2.79 2.112 2.112 0 011.06-1.662 2.112 2.112 0 011.97-.088 3.072 3.072 0 003.813-1.021A2.111 2.111 0 0116 .937c.706 0 1.343.332 1.75.91l.383-.27-.384.27a3.072 3.072 0 003.813 1.021 2.111 2.111 0 011.97.088c.61.353.997.958 1.06 1.662a3.072 3.072 0 002.79 2.79 2.112 2.112 0 011.662 1.06c.354.612.385 1.33.088 1.97a3.072 3.072 0 001.021 3.813 2.11 2.11 0 01.91 1.749c0 .706-.332 1.343-.91 1.75z" fill="#1B3281"/><path d="M27.922 16.482a.469.469 0 00-.504.43 11.412 11.412 0 01-3.626 7.483A11.416 11.416 0 0116 27.455c-2.9 0-5.668-1.087-7.792-3.06a11.411 11.411 0 01-3.626-7.482.468.468 0 10-.935.073 12.347 12.347 0 003.923 8.096 12.35 12.35 0 008.43 3.31 12.35 12.35 0 008.43-3.31 12.346 12.346 0 003.923-8.096.469.469 0 00-.43-.504zm-23.844-.967a.467.467 0 00.504-.43 11.413 11.413 0 013.627-7.481A11.417 11.417 0 0116 4.546c2.898 0 5.664 1.085 7.788 3.055a11.414 11.414 0 013.63 7.475.47.47 0 00.934-.075 12.348 12.348 0 00-3.927-8.088A12.352 12.352 0 0016 3.608a12.35 12.35 0 00-8.429 3.308 12.348 12.348 0 00-3.924 8.095.469.469 0 00.43.504z" fill="#1B3281"/><path d="M24.25 13.475a1.052 1.052 0 00-.96-.732l-4.657-.212-1.64-4.363A1.052 1.052 0 0016 7.48c-.446 0-.836.27-.993.688l-1.64 4.363-4.657.212a1.05 1.05 0 00-.96.732 1.05 1.05 0 00.346 1.156l3.643 2.909-1.237 4.494c-.119.43.038.878.399 1.14.36.262.835.273 1.207.027L16 20.636l3.892 2.565a1.059 1.059 0 001.207-.028c.36-.261.518-.709.4-1.139L20.26 17.54l3.642-2.909c.35-.278.485-.732.347-1.156zm-.931.424L19.434 17a.468.468 0 00-.159.491l1.32 4.792c.014.055-.001.1-.047.132a.114.114 0 01-.14.004l-4.15-2.736a.47.47 0 00-.516 0l-4.15 2.736a.113.113 0 01-.14-.004.114.114 0 01-.047-.132l1.32-4.792a.468.468 0 00-.16-.49l-3.884-3.102a.114.114 0 01-.04-.135.114.114 0 01.111-.085l4.966-.226a.468.468 0 00.417-.303l1.75-4.652a.114.114 0 01.115-.08c.056 0 .095.027.115.08l1.75 4.652c.066.176.23.295.417.303l4.965.226a.114.114 0 01.112.085.114.114 0 01-.04.135z" fill="#ED1C24"/></svg>