<svg width="32" height="32" fill="none" xmlns="http://www.w3.org/2000/svg"><g clip-path="url(#clip0)"><path d="M16 6c-1.415 0-2.609 1.074-2.609 2.446v.684h-1.377a.522.522 0 00-.465.457l-.253 2.152H7.342c-.834 0-1.516.69-1.516 1.525v8.91H4.472a.522.522 0 00-.472.522v2.714c0 .817.702 1.46 1.516 1.46h20.968c.814 0 1.516-.643 1.516-1.46v-2.714a.522.522 0 00-.522-.522h-1.304v-8.91c0-.835-.682-1.525-1.516-1.525h-3.954l-.253-2.152a.522.522 0 00-.514-.457H18.61v-.684C18.609 7.074 17.415 6 16 6zm0 1.043c.897 0 1.565.636 1.565 1.403v.684h-3.13v-.684c0-.767.668-1.403 1.565-1.403zm-3.473 3.13h.864v.523a.521.521 0 101.044 0v-.522h3.13v.522a.521.521 0 101.044 0v-.522h.864l.954 8.315c-.002.01-.008.033-.057.033h-8.74c-.049 0-.055-.024-.057-.033l.954-8.315zm-5.185 2.61h3.832l-.652 5.64a.545.545 0 000 .066c0 .603.52 1.076 1.108 1.076h8.74c.589 0 1.108-.473 1.108-1.076a.545.545 0 000-.065l-.652-5.641h3.832c.268 0 .472.2.472.48v8.91H6.87v-8.91c0-.28.204-.48.472-.48zM5.043 23.217h7.044v.294c0 .835.681 1.533 1.516 1.533h4.794c.835 0 1.516-.698 1.516-1.533v-.294h7.043v2.193c0 .216-.18.416-.472.416H5.516c-.291 0-.473-.2-.473-.416v-2.193zm8.087 0h5.74v.294a.47.47 0 01-.473.489h-4.794a.47.47 0 01-.473-.49v-.293z" fill="#F2717D"/></g><defs><clipPath id="clip0"><path fill="#fff" transform="translate(4 4)" d="M0 0h24v24H0z"/></clipPath></defs></svg>