<svg width="27" height="30" viewBox="0 0 27 30" fill="none" xmlns="http://www.w3.org/2000/svg">
<path d="M3.31687 1H19.9334H22.1639C23.178 1 24 1.82204 24 2.83609V4.81588L23.6379 27.6717C23.6298 28.1825 23.334 28.6449 22.8737 28.8665C22.6911 28.9544 22.4911 29 22.2884 29H21.5679H5.11358C2.85403 29 1.03404 27.1463 1.07553 24.8871L1.4811 2.80237C1.49948 1.80164 2.31597 1 3.31687 1Z" fill="white" stroke="#1B3281" stroke-width="0.88"/>
<path d="M7.86992 26.2099C7.48655 28.172 5.93467 28.8931 5 29H22.3257C22.5878 29 22.8484 28.946 23.0829 28.829C24.5223 28.1102 25.3634 27.242 25.9081 25.5591C26.3788 24.1044 24.9273 23.9273 24.1427 24.0205H10.0394C8.89354 24.0205 8.08964 25.0854 7.86992 26.2099Z" fill="white" stroke="#1B3281" stroke-width="0.88"/>
<path d="M7.09368 11.7576C8.2452 11.7576 9.18736 10.7998 9.18736 9.63777C9.18736 9.0306 8.88901 8.45484 8.29231 7.96806C7.69561 7.48128 7.24547 6.75896 7.09368 6C6.94189 6.75896 6.49698 7.48651 5.89505 7.96806C5.29312 8.4496 5 9.03583 5 9.63777C5 10.7998 5.94216 11.7576 7.09368 11.7576Z" stroke="#ED1C24" stroke-width="0.88" stroke-linecap="round" stroke-linejoin="round"/>
<path d="M7.33905 15.6182L5.52344 18.6442H7.94425L6.12864 21.6702" stroke="#ED1C24" stroke-width="0.88" stroke-linecap="round" stroke-linejoin="round"/>
<path d="M11.8911 7.96875H20.2592" stroke="#ED1C24" stroke-width="0.88" stroke-linecap="round"/>
<path d="M11.8911 16.8291H20.2592" stroke="#ED1C24" stroke-width="0.88" stroke-linecap="round"/>
<path d="M11.8911 9.9375H16.8135" stroke="#ED1C24" stroke-width="0.88" stroke-linecap="round"/>
<path d="M11.8911 18.7979H16.8135" stroke="#ED1C24" stroke-width="0.88" stroke-linecap="round"/>
</svg>
