<svg width="32" height="32" viewBox="0 0 32 32" fill="none" xmlns="http://www.w3.org/2000/svg">
<path d="M8.38419 17.5192C8.21201 17.6 8.13605 17.8034 8.21278 17.9772L8.99922 19.6655C9.03786 19.7495 9.10835 19.815 9.19504 19.8473C9.23302 19.8611 9.2733 19.8682 9.3138 19.8682C9.36448 19.8686 9.4145 19.8578 9.46058 19.8369L15.4026 17.0615L14.8644 22.6888C14.854 22.7995 14.8966 22.9084 14.9795 22.9824C15.24 23.1981 15.5647 23.3209 15.9024 23.3319C15.9956 23.3318 16.0882 23.3201 16.1785 23.2971C16.6609 23.1713 17.0349 22.7414 17.29 22.0073L19.6284 15.0833L24.2595 12.923C25.6227 12.287 26.3251 10.9972 25.8534 9.99054C25.5857 9.46438 25.0729 9.10646 24.4867 9.0363C23.8354 8.93801 23.1698 9.04046 22.5783 9.33008L17.234 11.8361L11.4879 9.58862C10.7643 9.31607 10.1912 9.32308 9.78928 9.61325C9.45205 9.88995 9.26017 10.3059 9.26838 10.7421C9.27188 10.8527 9.32759 10.9551 9.41866 11.0183L13.2879 13.6782L11.072 14.7267L7.35639 13.7829C7.20413 13.7455 7.04564 13.8141 6.96847 13.9507L6.04236 15.6178C5.99431 15.7062 5.98675 15.811 6.02167 15.9054C6.05637 15.9998 6.13014 16.0746 6.22416 16.1107L8.97492 17.2468L8.38419 17.5192ZM9.98477 10.5674C10.0054 10.4196 10.0801 10.2851 10.1946 10.1899C10.3939 10.0465 10.7574 10.0675 11.2432 10.2492L16.3603 12.245L14.0254 13.3356L9.98477 10.5674ZM6.8392 15.6144L7.44734 14.5344L11.023 15.4221C11.1 15.4416 11.1814 15.4343 11.2538 15.4013L22.8755 9.97314C23.3375 9.74525 23.8579 9.66228 24.368 9.7354C24.7257 9.76835 25.0443 9.97478 25.2208 10.2876C25.5142 10.9169 24.9376 11.8361 23.9623 12.2905L19.9358 14.178L20.1806 13.4543C20.2424 13.2681 20.1414 13.0669 19.9552 13.0052C19.7688 12.9435 19.5677 13.0445 19.506 13.2307L16.6294 21.7905C16.4581 22.2764 16.2448 22.5666 16.0072 22.6293C15.86 22.6577 15.7076 22.6288 15.5808 22.5491L16.2799 15.2089C16.2981 15.0159 16.1566 14.8446 15.9634 14.8264C15.7704 14.8079 15.5991 14.9496 15.5808 15.1426L15.4725 16.2645L9.47449 19.0607L8.98193 18.0121L9.96737 17.5509C10.0942 17.4949 10.176 17.3695 10.176 17.231C10.176 17.0924 10.0942 16.967 9.96737 16.9112L6.8392 15.6144Z" fill="#F2717D"/>
</svg>
