<?xml version="1.0" encoding="UTF-8"?>
<svg width="11px" height="15px" viewBox="0 0 11 15" version="1.1" xmlns="http://www.w3.org/2000/svg" xmlns:xlink="http://www.w3.org/1999/xlink">
    <!-- Generator: Sketch 53.2 (72643) - https://sketchapp.com -->
    <title>₹</title>
    <desc>Created with Sketch.</desc>
    <g id="Page-1" stroke="none" stroke-width="1" fill="none" fill-rule="evenodd">
        <g id="₹" fill="#2A3277" fill-rule="nonzero">
            <path d="M9.875,2.72461 L7.83398,2.72461 C8.13346,3.19336 8.32878,3.73698 8.41992,4.35547 L10.3828,4.35547 L9.86523,6.28906 L8.41016,6.28906 C8.26042,7.25911 7.87305,8.0306 7.24805,8.60352 C6.62305,9.17643 5.72461,9.57682 4.55273,9.80469 L8.82031,14.8633 L8.82031,15 L5.58789,15 L0.861328,9.46289 L0.851562,7.74414 L3.16602,7.74414 C4.37044,7.74414 5.12565,7.25911 5.43164,6.28906 L0.617188,6.28906 L1.125,4.35547 L5.37305,4.35547 C5.05404,3.56771 4.35417,3.16732 3.27344,3.1543 L0.617188,3.1543 L1.19336,0.78125 L10.3828,0.78125 L9.875,2.72461 Z" id="Path"></path>
        </g>
    </g>
</svg>