<svg width="32" height="32" viewBox="0 0 32 32" fill="none" xmlns="http://www.w3.org/2000/svg">
<g clip-path="url(#clip0)">
<path d="M31.4947 25.2636H30.6436C30.5976 23.9094 30.3672 22.5763 29.9568 21.2945C29.5101 19.9 28.8566 18.583 28.0139 17.3784C27.1826 16.19 26.1821 15.133 25.0402 14.237C23.8882 13.3322 22.6136 12.6087 21.2521 12.0859C19.7429 11.5061 18.1587 11.185 16.5351 11.127L18.0317 9.63021C18.6902 8.97158 18.6903 7.89989 18.0316 7.24121C17.7127 6.92233 17.2886 6.74664 16.8374 6.74664C16.5389 6.74664 16.2524 6.82352 16.0002 6.96777C15.748 6.82352 15.4614 6.74664 15.163 6.74664C14.7119 6.74664 14.2877 6.92227 13.9687 7.24114C13.6496 7.56021 13.4738 7.98446 13.4738 8.43577C13.4738 8.88708 13.6496 9.31127 13.9686 9.63027L15.4654 11.1271C14.4227 11.1646 13.3888 11.311 12.3844 11.5659C11.2432 11.8556 10.1378 12.284 9.09825 12.8405C8.85238 12.9719 8.75937 13.2784 8.89075 13.5243C8.979 13.6894 9.15013 13.7911 9.33675 13.7911C9.41963 13.7911 9.50181 13.7709 9.57525 13.7318C10.5433 13.2137 11.5721 12.8149 12.6337 12.5455C13.7016 12.2743 14.8074 12.1347 15.9204 12.1277C15.9464 12.1318 15.9729 12.1346 16.0001 12.1346C16.0281 12.1346 16.0552 12.1318 16.0819 12.1273C17.7389 12.1376 19.356 12.4406 20.8897 13.0291C22.1575 13.5162 23.3439 14.1899 24.4171 15.032C25.4795 15.8666 26.4112 16.8509 27.1853 17.9571C27.9701 19.0781 28.5791 20.3048 28.9947 21.6031C29.3736 22.7858 29.5873 24.0146 29.6328 25.2636H2.36819C2.40237 24.327 2.53056 23.3978 2.75331 22.495C3.008 21.4602 3.38594 20.4551 3.87637 19.5078C4.35806 18.5768 4.94888 17.7004 5.63269 16.9014C6.31313 16.1065 7.08581 15.389 7.92863 14.7691C8.153 14.6041 8.20144 14.2875 8.03644 14.0631C7.94206 13.9338 7.78919 13.857 7.62956 13.857C7.52106 13.857 7.41731 13.8906 7.33044 13.9553C6.42569 14.6203 5.59638 15.3903 4.86538 16.2439C4.13106 17.1015 3.49575 18.044 2.97844 19.0437C2.45156 20.0616 2.046 21.1415 1.77188 22.2531C1.53019 23.2347 1.39156 24.2453 1.35687 25.2636H0.50525C0.226187 25.2636 0 25.4898 0 25.7688C0 27.1618 1.13331 28.2951 2.52631 28.2951H29.4737C30.8667 28.2951 32 27.1618 32 25.7688C32 25.4898 31.7738 25.2636 31.4947 25.2636ZM16.0002 10.2327L14.6831 8.91552C14.5547 8.78739 14.4842 8.61696 14.4842 8.43564C14.4842 8.25433 14.5548 8.08396 14.683 7.95577C14.8112 7.82764 14.9816 7.75708 15.1629 7.75708C15.3443 7.75708 15.5148 7.82771 15.6431 7.95583C15.8404 8.15302 16.1602 8.15302 16.3574 7.95577C16.4856 7.82758 16.656 7.75708 16.8374 7.75708C17.0187 7.75708 17.1891 7.82758 17.3171 7.95564C17.5818 8.22033 17.5818 8.65096 17.3171 8.91564L16.0002 10.2327ZM29.4737 27.2846H2.52631C1.86763 27.2846 1.306 26.8622 1.09744 26.2741H1.84875C1.85006 26.2741 1.85131 26.2743 1.85263 26.2743C1.85394 26.2743 1.85519 26.2741 1.8565 26.2741H30.1435C30.1448 26.2741 30.1461 26.2743 30.1474 26.2743C30.1487 26.2743 30.1499 26.2741 30.1513 26.2741H30.9026C30.6939 26.8623 30.1324 27.2846 29.4737 27.2846Z" fill="#1B3281"/>
<path fill-rule="evenodd" clip-rule="evenodd" d="M18.0315 7.24123C18.6902 7.89992 18.6902 8.9716 18.0316 9.63023L16.535 11.127C16.5803 11.1287 16.6256 11.1305 16.6709 11.1325C18.247 11.2032 19.785 11.5224 21.252 12.0859C22.6135 12.6087 23.8881 13.3322 25.0401 14.237C26.182 15.133 27.1825 16.19 28.0138 17.3784C28.8565 18.583 29.51 19.9 29.9567 21.2945C30.3671 22.5763 30.5975 23.9094 30.6435 25.2637H31.4947C31.7737 25.2637 31.9999 25.4899 31.9999 25.7689C31.9999 27.1619 30.8666 28.2952 29.4736 28.2952H2.52621C1.13321 28.2952 -9.76548e-05 27.1619 -9.76548e-05 25.7689C-9.76548e-05 25.4898 0.22609 25.2636 0.505152 25.2636H1.35678C1.39146 24.2453 1.53009 23.2347 1.77178 22.2531C2.0459 21.1415 2.45146 20.0617 2.97834 19.0437C3.49565 18.044 4.13096 17.1015 4.86528 16.2439C5.59628 15.3904 6.42559 14.6203 7.33034 13.9554C7.41721 13.8907 7.52096 13.857 7.62946 13.857C7.78909 13.857 7.94196 13.9339 8.03634 14.0632C8.20134 14.2875 8.1529 14.6041 7.92853 14.7692C7.08572 15.389 6.31303 16.1065 5.63259 16.9014C4.94878 17.7004 4.35796 18.5769 3.87628 19.5079C3.38584 20.4551 3.0079 21.4602 2.75321 22.495C2.53839 23.3657 2.41152 24.2609 2.3721 25.1637C2.37064 25.197 2.36931 25.2303 2.36809 25.2637H29.6327C29.6315 25.2303 29.6302 25.197 29.6287 25.1637C29.5757 23.9491 29.3633 22.7543 28.9947 21.6031C28.579 20.3049 27.97 19.0781 27.1852 17.9571C26.4111 16.8509 25.4794 15.8667 24.417 15.032C23.3438 14.1899 22.1574 13.5162 20.8896 13.0291C19.3559 12.4406 17.7388 12.1377 16.0818 12.1274C16.0552 12.1318 16.028 12.1346 16 12.1346C15.9728 12.1346 15.9463 12.1319 15.9203 12.1277C14.8073 12.1347 13.7015 12.2744 12.6337 12.5455C11.572 12.8149 10.5432 13.2137 9.57515 13.7319C9.50171 13.7709 9.41953 13.7911 9.33665 13.7911C9.15003 13.7911 8.9789 13.6894 8.89065 13.5244C8.75928 13.2784 8.85228 12.9719 9.09815 12.8405C10.1377 12.284 11.2431 11.8556 12.3843 11.5659C13.345 11.3221 14.3328 11.1775 15.3294 11.1326C15.3747 11.1306 15.42 11.1287 15.4653 11.1271L13.9685 9.63029C13.6495 9.31129 13.4737 8.88711 13.4737 8.43579C13.4737 7.98448 13.6495 7.56023 13.9686 7.24117C14.2877 6.92229 14.7118 6.74667 15.1629 6.74667C15.4613 6.74667 15.7479 6.82354 16.0001 6.96779C16.2523 6.82354 16.5388 6.74667 16.8373 6.74667C17.2885 6.74667 17.7126 6.92236 18.0315 7.24123ZM16.0001 6.85363C16.2551 6.71837 16.5409 6.64667 16.8373 6.64667C17.315 6.64667 17.7645 6.83289 18.1022 7.17051C18.7999 7.86825 18.7999 9.00326 18.1023 9.70094L16.7664 11.037C18.3214 11.1161 19.839 11.436 21.2879 11.9926C22.6587 12.519 23.942 13.2474 25.1018 14.1584C26.2514 15.0605 27.2588 16.1246 28.0957 17.3211C28.9442 18.5338 29.6022 19.8599 30.0519 21.264C30.4554 22.5242 30.686 23.8335 30.7398 25.1637H31.4947C31.8289 25.1637 32.0999 25.4346 32.0999 25.7689C32.0999 27.2171 30.9218 28.3952 29.4736 28.3952H2.52621C1.07799 28.3952 -0.100098 27.2171 -0.100098 25.7689C-0.100098 25.4346 0.170861 25.1636 0.505152 25.1636H1.26044C1.30063 24.1712 1.43895 23.1866 1.67468 22.2292C1.95068 21.11 2.35902 20.0227 2.88953 18.9978C3.41039 17.9912 4.05002 17.0423 4.78932 16.1789C5.52528 15.3195 6.3602 14.5442 7.27112 13.8748C7.37552 13.7972 7.50011 13.757 7.62946 13.757C7.82068 13.757 8.00366 13.8488 8.11704 14.0041C8.31463 14.273 8.25652 14.652 7.98779 14.8497C7.15112 15.465 6.38403 16.1773 5.70856 16.9664C5.02972 17.7596 4.44323 18.6297 3.96509 19.5538C3.47828 20.4941 3.10312 21.4918 2.85032 22.5189C2.63746 23.3816 2.51156 24.2688 2.47219 25.1637H29.5286C29.4757 23.9594 29.2649 22.7748 28.8994 21.6336C28.4869 20.345 27.8824 19.1273 27.1033 18.0145C26.3348 16.9163 25.4099 15.9392 24.3552 15.1106C23.2898 14.2747 22.1122 13.606 20.8538 13.1225C19.334 12.5393 17.7316 12.2386 16.0894 12.2274C16.0612 12.2317 16.0314 12.2346 16 12.2346C15.9693 12.2346 15.9402 12.2318 15.9131 12.2278C14.8106 12.2353 13.7156 12.374 12.6583 12.6424C11.6044 12.9098 10.5833 13.3057 9.62234 13.82C9.53425 13.8669 9.43568 13.8911 9.33665 13.8911C9.11339 13.8911 8.90823 13.7693 8.80247 13.5715C8.64509 13.2769 8.75641 12.9098 9.05096 12.7524C10.0976 12.192 11.2106 11.7607 12.3597 11.469C13.2978 11.2309 14.2615 11.0868 15.2339 11.0371L13.8978 9.70101C13.56 9.36326 13.3737 8.91364 13.3737 8.43579C13.3737 7.95795 13.56 7.50826 13.8979 7.17045C14.2357 6.83283 14.6853 6.64667 15.1629 6.64667C15.4592 6.64667 15.745 6.71837 16.0001 6.85363ZM15.9294 10.162L16.0002 10.2327L16.0709 10.162L16.0001 10.0913L17.2463 8.84497C17.4719 8.61933 17.4719 8.25201 17.2463 8.02638C17.137 7.9171 16.9921 7.85711 16.8373 7.85711C16.6824 7.85711 16.5375 7.91708 16.428 8.02649C16.1917 8.2628 15.8087 8.26277 15.5723 8.0266C15.4628 7.9172 15.3177 7.85711 15.1628 7.85711C15.008 7.85711 14.863 7.91714 14.7536 8.0265C14.7536 8.02651 14.7536 8.0265 14.7536 8.0265C14.6442 8.13595 14.5841 8.28089 14.5841 8.43567C14.5841 8.59047 14.6441 8.73543 14.7537 8.84476L16.0001 10.0913L15.9294 10.162ZM2.52621 27.1847H29.4736C30.0375 27.1847 30.5256 26.8531 30.753 26.3742H30.1539C30.1522 26.3743 30.1498 26.3744 30.1473 26.3744C30.1447 26.3744 30.1424 26.3743 30.1407 26.3742H1.85915C1.85744 26.3743 1.85507 26.3744 1.85253 26.3744C1.84998 26.3744 1.84761 26.3743 1.84591 26.3742H1.24677C1.47419 26.853 1.96233 27.1847 2.52621 27.1847ZM1.13688 26.3742C1.12256 26.3414 1.10936 26.3081 1.09734 26.2742H1.84865L1.85253 26.2744L1.8564 26.2742H30.1434L30.1473 26.2744L30.1512 26.2742H30.9025C30.8904 26.3081 30.8772 26.3414 30.8629 26.3742C30.6288 26.9096 30.0943 27.2847 29.4736 27.2847H2.52621C1.9055 27.2847 1.37098 26.9095 1.13688 26.3742ZM30.1566 26.374C30.1569 26.374 30.157 26.374 30.1566 26.374Z" fill="#1B3281"/>
<path fill-rule="evenodd" clip-rule="evenodd" d="M18.0315 7.24123C18.6902 7.89992 18.6902 8.9716 18.0316 9.63023L16.535 11.127C16.5803 11.1287 16.6256 11.1305 16.6709 11.1325C18.247 11.2032 19.785 11.5224 21.252 12.0859C22.6135 12.6087 23.8881 13.3322 25.0401 14.237C26.182 15.133 27.1825 16.19 28.0138 17.3784C28.8565 18.583 29.51 19.9 29.9567 21.2945C30.3671 22.5763 30.5975 23.9094 30.6435 25.2637H31.4947C31.7737 25.2637 31.9999 25.4899 31.9999 25.7689C31.9999 27.1619 30.8666 28.2952 29.4736 28.2952H2.52621C1.13321 28.2952 -9.76548e-05 27.1619 -9.76548e-05 25.7689C-9.76548e-05 25.4898 0.22609 25.2636 0.505152 25.2636H1.35678C1.39146 24.2453 1.53009 23.2347 1.77178 22.2531C2.0459 21.1415 2.45146 20.0617 2.97834 19.0437C3.49565 18.044 4.13096 17.1015 4.86528 16.2439C5.59628 15.3904 6.42559 14.6203 7.33034 13.9554C7.41721 13.8907 7.52096 13.857 7.62946 13.857C7.78909 13.857 7.94196 13.9339 8.03634 14.0632C8.20134 14.2875 8.1529 14.6041 7.92853 14.7692C7.08572 15.389 6.31303 16.1065 5.63259 16.9014C4.94878 17.7004 4.35796 18.5769 3.87628 19.5079C3.38584 20.4551 3.0079 21.4602 2.75321 22.495C2.53839 23.3657 2.41152 24.2609 2.3721 25.1637C2.37064 25.197 2.36931 25.2303 2.36809 25.2637H29.6327C29.6315 25.2303 29.6302 25.197 29.6287 25.1637C29.5757 23.9491 29.3633 22.7543 28.9947 21.6031C28.579 20.3049 27.97 19.0781 27.1852 17.9571C26.4111 16.8509 25.4794 15.8667 24.417 15.032C23.3438 14.1899 22.1574 13.5162 20.8896 13.0291C19.3559 12.4406 17.7388 12.1377 16.0818 12.1274C16.0552 12.1318 16.028 12.1346 16 12.1346C15.9728 12.1346 15.9463 12.1319 15.9203 12.1277C14.8073 12.1347 13.7015 12.2744 12.6337 12.5455C11.572 12.8149 10.5432 13.2137 9.57515 13.7319C9.50171 13.7709 9.41953 13.7911 9.33665 13.7911C9.15003 13.7911 8.9789 13.6894 8.89065 13.5244C8.75928 13.2784 8.85228 12.9719 9.09815 12.8405C10.1377 12.284 11.2431 11.8556 12.3843 11.5659C13.345 11.3221 14.3328 11.1775 15.3294 11.1326C15.3747 11.1306 15.42 11.1287 15.4653 11.1271L13.9685 9.63029C13.6495 9.31129 13.4737 8.88711 13.4737 8.43579C13.4737 7.98448 13.6495 7.56023 13.9686 7.24117C14.2877 6.92229 14.7118 6.74667 15.1629 6.74667C15.4613 6.74667 15.7479 6.82354 16.0001 6.96779C16.2523 6.82354 16.5388 6.74667 16.8373 6.74667C17.2885 6.74667 17.7126 6.92236 18.0315 7.24123ZM16.0001 6.85363C16.2551 6.71837 16.5409 6.64667 16.8373 6.64667C17.315 6.64667 17.7645 6.83289 18.1022 7.17051C18.7999 7.86825 18.7999 9.00326 18.1023 9.70094L16.7664 11.037C18.3214 11.1161 19.839 11.436 21.2879 11.9926C22.6587 12.519 23.942 13.2474 25.1018 14.1584C26.2514 15.0605 27.2588 16.1246 28.0957 17.3211C28.9442 18.5338 29.6022 19.8599 30.0519 21.264C30.4554 22.5242 30.686 23.8335 30.7398 25.1637H31.4947C31.8289 25.1637 32.0999 25.4346 32.0999 25.7689C32.0999 27.2171 30.9218 28.3952 29.4736 28.3952H2.52621C1.07799 28.3952 -0.100098 27.2171 -0.100098 25.7689C-0.100098 25.4346 0.170861 25.1636 0.505152 25.1636H1.26044C1.30063 24.1712 1.43895 23.1866 1.67468 22.2292C1.95068 21.11 2.35902 20.0227 2.88953 18.9978C3.41039 17.9912 4.05002 17.0423 4.78932 16.1789C5.52528 15.3195 6.3602 14.5442 7.27112 13.8748C7.37552 13.7972 7.50011 13.757 7.62946 13.757C7.82068 13.757 8.00366 13.8488 8.11704 14.0041C8.31463 14.273 8.25652 14.652 7.98779 14.8497C7.15112 15.465 6.38403 16.1773 5.70856 16.9664C5.02972 17.7596 4.44323 18.6297 3.96509 19.5538C3.47828 20.4941 3.10312 21.4918 2.85032 22.5189C2.63746 23.3816 2.51156 24.2688 2.47219 25.1637H29.5286C29.4757 23.9594 29.2649 22.7748 28.8994 21.6336C28.4869 20.345 27.8824 19.1273 27.1033 18.0145C26.3348 16.9163 25.4099 15.9392 24.3552 15.1106C23.2898 14.2747 22.1122 13.606 20.8538 13.1225C19.334 12.5393 17.7316 12.2386 16.0894 12.2274C16.0612 12.2317 16.0314 12.2346 16 12.2346C15.9693 12.2346 15.9402 12.2318 15.9131 12.2278C14.8106 12.2353 13.7156 12.374 12.6583 12.6424C11.6044 12.9098 10.5833 13.3057 9.62234 13.82C9.53425 13.8669 9.43568 13.8911 9.33665 13.8911C9.11339 13.8911 8.90823 13.7693 8.80247 13.5715C8.64509 13.2769 8.75641 12.9098 9.05096 12.7524C10.0976 12.192 11.2106 11.7607 12.3597 11.469C13.2978 11.2309 14.2615 11.0868 15.2339 11.0371L13.8978 9.70101C13.56 9.36326 13.3737 8.91364 13.3737 8.43579C13.3737 7.95795 13.56 7.50826 13.8979 7.17045C14.2357 6.83283 14.6853 6.64667 15.1629 6.64667C15.4592 6.64667 15.745 6.71837 16.0001 6.85363ZM15.9294 10.162L16.0002 10.2327L16.0709 10.162L16.0001 10.0913L17.2463 8.84497C17.4719 8.61933 17.4719 8.25201 17.2463 8.02638C17.137 7.9171 16.9921 7.85711 16.8373 7.85711C16.6824 7.85711 16.5375 7.91708 16.428 8.02649C16.1917 8.2628 15.8087 8.26277 15.5723 8.0266C15.4628 7.9172 15.3177 7.85711 15.1628 7.85711C15.008 7.85711 14.863 7.91714 14.7536 8.0265C14.7536 8.02651 14.7536 8.0265 14.7536 8.0265C14.6442 8.13595 14.5841 8.28089 14.5841 8.43567C14.5841 8.59047 14.6441 8.73543 14.7537 8.84476L16.0001 10.0913L15.9294 10.162ZM2.52621 27.1847H29.4736C30.0375 27.1847 30.5256 26.8531 30.753 26.3742H30.1539C30.1522 26.3743 30.1498 26.3744 30.1473 26.3744C30.1447 26.3744 30.1424 26.3743 30.1407 26.3742H1.85915C1.85744 26.3743 1.85507 26.3744 1.85253 26.3744C1.84998 26.3744 1.84761 26.3743 1.84591 26.3742H1.24677C1.47419 26.853 1.96233 27.1847 2.52621 27.1847ZM1.13688 26.3742C1.12256 26.3414 1.10936 26.3081 1.09734 26.2742H1.84865L1.85253 26.2744L1.8564 26.2742H30.1434L30.1473 26.2744L30.1512 26.2742H30.9025C30.8904 26.3081 30.8772 26.3414 30.8629 26.3742C30.6288 26.9096 30.0943 27.2847 29.4736 27.2847H2.52621C1.9055 27.2847 1.37098 26.9095 1.13688 26.3742ZM30.1566 26.374C30.1569 26.374 30.157 26.374 30.1566 26.374Z" fill="#1B3281"/>
<path d="M2.8595 3.76613L2.85951 3.76614C3.10448 3.94992 3.15444 4.29715 2.97136 4.54243C2.93677 4.58904 2.5089 5.17643 2.29814 5.95893C2.08769 6.74029 2.09487 7.70935 2.91899 8.53347C3.89471 9.50919 4.20534 10.775 3.82 12.188C3.54274 13.2048 2.99509 13.9425 2.97064 13.9751L2.97064 13.9751C2.86154 14.1206 2.6947 14.1973 2.52604 14.1973C2.52603 14.1973 2.52602 14.1973 2.52601 14.1973V14.1473C2.42051 14.1473 2.31413 14.1143 2.22326 14.0462L2.8595 3.76613ZM2.8595 3.76613C2.61417 3.5822 2.26614 3.63185 2.08213 3.8772L2.08212 3.87721C2.05768 3.90983 1.51009 4.64753 1.23277 5.66423L1.23277 5.66423C0.847422 7.0773 1.15806 8.34308 2.13371 9.3188L2.16907 9.28345M2.8595 3.76613L2.16907 9.28345M2.16907 9.28345L2.13372 9.31881C2.95787 10.1429 2.96506 11.112 2.7547 11.8932C2.54405 12.6756 2.11639 13.2628 2.0821 13.309L2.16907 9.28345Z" fill="#1B3281" stroke="#1B3281" stroke-width="0.1"/>
<path d="M7.92885 5.25386L7.92885 5.25385C8.04215 4.89077 8.28535 4.62718 8.3084 4.60271C8.52519 4.3858 8.52518 4.03431 8.30836 3.81742L8.30835 3.81741C8.09151 3.60064 7.73992 3.60064 7.52309 3.81741L7.52308 3.81742C7.47776 3.86274 7.08759 4.26474 6.88369 4.87659C6.59617 5.7392 6.82584 6.60014 7.52308 7.29744L7.52309 7.29745C7.72432 7.49862 7.8537 7.70221 7.91569 7.91099C7.97753 8.11927 7.97331 8.336 7.90218 8.56567C7.78501 8.94397 7.52988 9.21684 7.51838 9.22901C7.30528 9.44744 7.30825 9.79723 7.52568 10.0119L7.56081 9.97634L7.52568 10.0119C7.63392 10.1188 7.77496 10.172 7.91575 10.172C8.05895 10.172 8.20231 10.1169 8.31089 10.0069L8.3109 10.0069C8.35607 9.96114 8.74494 9.55541 8.94823 8.94028C9.23501 8.07264 9.00536 7.20905 8.30835 6.51211L8.273 6.54746L8.30835 6.5121C8.10734 6.31112 7.97806 6.10842 7.91601 5.90125C7.85414 5.69463 7.85815 5.48032 7.92885 5.25386Z" fill="#1B3281" stroke="#1B3281" stroke-width="0.1"/>
<path d="M29.0809 8.53338L29.0809 8.53338C29.9051 7.70926 29.9123 6.74019 29.7019 5.95884C29.491 5.17605 29.0629 4.5885 29.0286 4.54229C28.846 4.2966 28.8964 3.94896 29.1418 3.7658L29.0809 8.53338ZM29.0809 8.53338C28.1054 9.5091 27.7947 10.7749 28.1801 12.188C28.4572 13.2044 29.0045 13.942 29.0294 13.9751M29.0809 8.53338L29.8054 14.0864C29.7057 14.1609 29.589 14.1969 29.4734 14.1969C29.3049 14.1969 29.1384 14.1205 29.0294 13.9751M30.7672 5.66414C31.1526 7.07721 30.8419 8.34299 29.8663 9.31871L29.8309 9.28336L29.8663 9.31871C29.0421 10.1428 29.0349 11.1119 29.2454 11.8933C29.4562 12.676 29.8842 13.2635 29.9186 13.3098C29.9186 13.3099 29.9186 13.3099 29.9186 13.3099L29.8785 13.3397L30.7672 5.66414ZM30.7672 5.66414C30.49 4.6478 29.9427 3.9102 29.9178 3.87712M30.7672 5.66414C30.7672 5.66414 30.7672 5.66414 30.7672 5.66414L29.9178 3.87712M29.0294 13.9751L29.0694 13.9451L29.0294 13.9751C29.0294 13.9751 29.0294 13.9751 29.0294 13.9751ZM29.9178 3.87712C29.7341 3.63206 29.3871 3.58252 29.1418 3.76579L29.9178 3.87712Z" fill="#1B3281" stroke="#1B3281" stroke-width="0.1"/>
<mask id="path-7-outside-1" maskUnits="userSpaceOnUse" x="21.9812" y="2.70532" width="4" height="8" fill="black">
<rect fill="white" x="21.9812" y="2.70532" width="4" height="8"/>
<path d="M24.05 8.58045C23.9024 8.10419 24.0305 7.67294 24.4413 7.26207C25.1268 6.57669 25.3496 5.73507 25.0687 4.89238C24.8683 4.29132 24.4845 3.89594 24.4414 3.85275C24.245 3.65631 23.9278 3.65638 23.7301 3.85175C23.5325 4.047 23.5307 4.36638 23.7248 4.56525C23.7275 4.568 23.9963 4.84657 24.1188 5.23894C24.2654 5.709 24.1373 6.13707 23.7269 6.54744C23.0419 7.23251 22.8189 8.07669 23.0992 8.92457C23.2989 9.52901 23.6817 9.9282 23.7246 9.97176C23.8232 10.0716 23.9528 10.1214 24.0825 10.1214C24.2098 10.1214 24.3374 10.0734 24.4359 9.97732C24.6348 9.78332 24.6386 9.46395 24.4457 9.26388C24.443 9.26107 24.1731 8.97795 24.05 8.58045Z"/>
</mask>
<path d="M24.05 8.58045C23.9024 8.10419 24.0305 7.67294 24.4413 7.26207C25.1268 6.57669 25.3496 5.73507 25.0687 4.89238C24.8683 4.29132 24.4845 3.89594 24.4414 3.85275C24.245 3.65631 23.9278 3.65638 23.7301 3.85175C23.5325 4.047 23.5307 4.36638 23.7248 4.56525C23.7275 4.568 23.9963 4.84657 24.1188 5.23894C24.2654 5.709 24.1373 6.13707 23.7269 6.54744C23.0419 7.23251 22.8189 8.07669 23.0992 8.92457C23.2989 9.52901 23.6817 9.9282 23.7246 9.97176C23.8232 10.0716 23.9528 10.1214 24.0825 10.1214C24.2098 10.1214 24.3374 10.0734 24.4359 9.97732C24.6348 9.78332 24.6386 9.46395 24.4457 9.26388C24.443 9.26107 24.1731 8.97795 24.05 8.58045Z" fill="#1B3281"/>
<path d="M24.05 8.58045L24.1455 8.55086L24.1455 8.55085L24.05 8.58045ZM24.4413 7.26207L24.3706 7.19135L24.3706 7.19136L24.4413 7.26207ZM25.0687 4.89238L24.9738 4.924L24.9738 4.92401L25.0687 4.89238ZM24.4414 3.85275L24.5122 3.78209L24.5121 3.78204L24.4414 3.85275ZM23.7301 3.85175L23.8004 3.92289L23.8004 3.92289L23.7301 3.85175ZM23.7248 4.56525L23.6532 4.63509L23.6533 4.63515L23.7248 4.56525ZM24.1188 5.23894L24.2142 5.20916L24.2142 5.20914L24.1188 5.23894ZM23.7269 6.54744L23.6562 6.47673L23.6562 6.47674L23.7269 6.54744ZM23.0992 8.92457L23.1941 8.89319L23.1941 8.89319L23.0992 8.92457ZM23.7246 9.97176L23.6534 10.042L23.6534 10.042L23.7246 9.97176ZM24.4359 9.97732L24.3661 9.90574L24.3661 9.90575L24.4359 9.97732ZM24.4457 9.26388L24.3734 9.33297L24.3737 9.33329L24.4457 9.26388ZM24.1455 8.55085C24.0769 8.32964 24.0734 8.12306 24.1321 7.9252C24.1911 7.72634 24.3151 7.52969 24.512 7.33278L24.3706 7.19136C24.1567 7.40532 24.0112 7.62974 23.9404 7.86828C23.8693 8.10783 23.8754 8.355 23.9544 8.61004L24.1455 8.55085ZM24.512 7.33278C25.2212 6.62368 25.4578 5.7433 25.1636 4.86075L24.9738 4.92401C25.2415 5.72683 25.0323 6.52971 24.3706 7.19135L24.512 7.33278ZM25.1636 4.86075C24.956 4.23813 24.5596 3.82962 24.5122 3.78209L24.3706 3.92341C24.4094 3.96226 24.7807 4.3445 24.9738 4.924L25.1636 4.86075ZM24.5121 3.78204C24.2765 3.54644 23.8964 3.54687 23.6598 3.78062L23.8004 3.92289C23.9593 3.76588 24.2134 3.76619 24.3707 3.92346L24.5121 3.78204ZM23.6598 3.78062C23.4228 4.01482 23.421 4.39717 23.6532 4.63509L23.7963 4.49541C23.6404 4.33558 23.6422 4.07919 23.8004 3.92289L23.6598 3.78062ZM23.6533 4.63515C23.6526 4.63444 23.908 4.89924 24.0233 5.26874L24.2142 5.20914C24.0846 4.7939 23.8024 4.50156 23.7963 4.49536L23.6533 4.63515ZM24.0233 5.26872C24.0913 5.48661 24.0947 5.6907 24.0359 5.88689C23.9768 6.08415 23.853 6.27996 23.6562 6.47673L23.7976 6.61815C24.0112 6.40455 24.1566 6.18114 24.2275 5.94426C24.2988 5.70631 24.2929 5.46134 24.2142 5.20916L24.0233 5.26872ZM23.6562 6.47674C22.9473 7.18568 22.7109 8.06854 23.0042 8.95595L23.1941 8.89319C22.9269 8.08485 23.1365 7.27934 23.7976 6.61815L23.6562 6.47674ZM23.0042 8.95595C23.211 9.58178 23.6062 9.99406 23.6534 10.042L23.7958 9.90156C23.7571 9.86234 23.3868 9.47624 23.1941 8.89319L23.0042 8.95595ZM23.6534 10.042C23.7715 10.1616 23.9271 10.2214 24.0825 10.2214V10.0214C23.9785 10.0214 23.8748 9.98154 23.7957 9.9015L23.6534 10.042ZM24.0825 10.2214C24.235 10.2214 24.3879 10.1639 24.5057 10.0489L24.3661 9.90575C24.2869 9.98299 24.1847 10.0214 24.0825 10.0214V10.2214ZM24.5057 10.0489C24.7443 9.81622 24.7485 9.43384 24.5177 9.19448L24.3737 9.33329C24.5287 9.49405 24.5253 9.75043 24.3661 9.90574L24.5057 10.0489ZM24.518 9.1948C24.5182 9.19502 24.2616 8.92564 24.1455 8.55086L23.9544 8.61003C24.0846 9.03025 24.3678 9.32713 24.3734 9.33297L24.518 9.1948Z" fill="#1B3281" mask="url(#path-7-outside-1)"/>
<path fill-rule="evenodd" clip-rule="evenodd" d="M14.5999 16.5597V21.6403L18.8337 19.1L14.5999 16.5597ZM13.3999 15.8532C13.3999 15.2314 14.0783 14.8473 14.6115 15.1672L20.0228 18.414C20.5406 18.7247 20.5406 19.4753 20.0228 19.786L14.6115 23.0328C14.0783 23.3527 13.3999 22.9686 13.3999 22.3468V15.8532Z" fill="#ED1C24"/>
</g>
<defs>
<clipPath id="clip0">
<rect width="32" height="32" fill="white"/>
</clipPath>
</defs>
</svg>
