<svg width="32" height="32" viewBox="0 0 32 32" fill="none" xmlns="http://www.w3.org/2000/svg">
<mask id="path-1-outside-1" maskUnits="userSpaceOnUse" x="3" y="8" width="26" height="16" fill="black">
<rect fill="white" x="3" y="8" width="26" height="16"/>
<path d="M5.96671 18.9473V13.1221C5.96671 13.0485 5.99594 12.9779 6.04796 12.9259C6.09998 12.8739 6.17054 12.8447 6.24411 12.8447C6.75909 12.8447 7.25298 12.6401 7.61713 12.2759C7.98128 11.9118 8.18585 11.4179 8.18585 10.9029C8.18585 10.8293 8.21508 10.7588 8.2671 10.7068C8.31912 10.6547 8.38968 10.6255 8.46325 10.6255H23.5368C23.6103 10.6255 23.6809 10.6547 23.7329 10.7068C23.7849 10.7588 23.8141 10.8293 23.8141 10.9029C23.8141 11.4179 24.0187 11.9118 24.3829 12.2759C24.747 12.6401 25.2409 12.8447 25.7559 12.8447C25.8295 12.8447 25.9 12.8739 25.952 12.9259C26.0041 12.9779 26.0333 13.0485 26.0333 13.1221V18.9473C26.0333 19.0209 26.0041 19.0914 25.952 19.1434C25.9 19.1955 25.8295 19.2247 25.7559 19.2247C25.2409 19.2247 24.747 19.4293 24.3829 19.7934C24.0187 20.1576 23.8141 20.6515 23.8141 21.1664C23.8141 21.24 23.7849 21.3106 23.7329 21.3626C23.6809 21.4146 23.6103 21.4438 23.5368 21.4438H8.46325C8.38968 21.4438 8.31912 21.4146 8.2671 21.3626C8.21508 21.3106 8.18585 21.24 8.18585 21.1664C8.18585 20.6515 7.98128 20.1576 7.61713 19.7934C7.25298 19.4293 6.75909 19.2247 6.24411 19.2247C6.17054 19.2247 6.09998 19.1955 6.04796 19.1434C5.99594 19.0914 5.96671 19.0209 5.96671 18.9473ZM6.5215 18.6865C7.0839 18.7497 7.60818 19.002 8.00835 19.4022C8.40853 19.8024 8.66087 20.3266 8.72399 20.889H23.2732C23.3364 20.3266 23.5887 19.8024 23.9889 19.4022C24.3891 19.002 24.9133 18.7497 25.4757 18.6865V13.3828C24.9133 13.3197 24.3891 13.0673 23.9889 12.6672C23.5887 12.267 23.3364 11.7427 23.2732 11.1803H8.72677C8.66364 11.7427 8.41131 12.267 8.01113 12.6672C7.61095 13.0673 7.08668 13.3197 6.52427 13.3828V18.6865H6.5215ZM28 9.27739V22.792C28 22.8655 27.9708 22.9361 27.9188 22.9881C27.8667 23.0401 27.7962 23.0693 27.7226 23.0693H4.27739C4.20382 23.0693 4.13327 23.0401 4.08125 22.9881C4.02923 22.9361 4 22.8655 4 22.792V9.27739C4 9.20382 4.02923 9.13327 4.08125 9.08125C4.13327 9.02923 4.20382 9 4.27739 9H27.7226C27.7962 9 27.8667 9.02923 27.9188 9.08125C27.9708 9.13327 28 9.20382 28 9.27739ZM27.4452 9.55479H4.55479V22.5146H27.4452V9.55479ZM12.2913 16.0347C12.2913 15.3005 12.509 14.5828 12.917 13.9724C13.3249 13.362 13.9047 12.8863 14.5831 12.6054C15.2614 12.3246 16.0078 12.2512 16.7279 12.3947C17.4479 12.5381 18.1092 12.8919 18.6282 13.4112C19.1471 13.9306 19.5004 14.5922 19.6433 15.3123C19.7862 16.0324 19.7123 16.7788 19.431 17.4569C19.1496 18.1351 18.6735 18.7145 18.0628 19.122C17.452 19.5295 16.7342 19.7467 16 19.7462C15.0164 19.7447 14.0735 19.3531 13.3782 18.6573C12.6829 17.9615 12.292 17.0183 12.2913 16.0347ZM12.846 16.0347C12.8455 16.6593 13.0302 17.27 13.3769 17.7895C13.7236 18.309 14.2165 18.7141 14.7935 18.9534C15.3704 19.1926 16.0053 19.2554 16.6179 19.1337C17.2305 19.0119 17.7933 18.7112 18.2349 18.2696C18.6766 17.8279 18.9773 17.2652 19.099 16.6526C19.2207 16.04 19.1579 15.4051 18.9187 14.8281C18.6794 14.2512 18.2744 13.7582 17.7548 13.4116C17.2353 13.0649 16.6246 12.8802 16 12.8807C15.164 12.8822 14.3626 13.2149 13.7714 13.8061C13.1803 14.3973 12.8475 15.1986 12.846 16.0347ZM9.71151 16.6588C9.83495 16.6588 9.95562 16.6222 10.0583 16.5536C10.1609 16.485 10.2409 16.3876 10.2881 16.2735C10.3354 16.1595 10.3477 16.034 10.3237 15.9129C10.2996 15.7918 10.2401 15.6806 10.1528 15.5933C10.0656 15.5061 9.95434 15.4466 9.83327 15.4225C9.7122 15.3985 9.58671 15.4108 9.47267 15.4581C9.35862 15.5053 9.26114 15.5853 9.19256 15.6879C9.12398 15.7906 9.08738 15.9112 9.08738 16.0347C9.08738 16.2002 9.15314 16.359 9.27018 16.476C9.38723 16.5931 9.54598 16.6588 9.71151 16.6588ZM22.2857 16.8336C22.4092 16.8336 22.5298 16.797 22.6325 16.7284C22.7351 16.6598 22.8151 16.5623 22.8623 16.4483C22.9096 16.3342 22.9219 16.2087 22.8979 16.0877C22.8738 15.9666 22.8143 15.8554 22.727 15.7681C22.6398 15.6808 22.5285 15.6214 22.4075 15.5973C22.2864 15.5732 22.1609 15.5856 22.0469 15.6328C21.9328 15.68 21.8353 15.76 21.7668 15.8627C21.6982 15.9653 21.6616 16.086 21.6616 16.2094C21.6616 16.2916 21.6778 16.373 21.7094 16.4489C21.7409 16.5248 21.7871 16.5938 21.8454 16.6517C21.9036 16.7097 21.9727 16.7557 22.0488 16.7869C22.1248 16.8181 22.2063 16.8339 22.2885 16.8336H22.2857Z"/>
</mask>
<path d="M5.96671 18.9473V13.1221C5.96671 13.0485 5.99594 12.9779 6.04796 12.9259C6.09998 12.8739 6.17054 12.8447 6.24411 12.8447C6.75909 12.8447 7.25298 12.6401 7.61713 12.2759C7.98128 11.9118 8.18585 11.4179 8.18585 10.9029C8.18585 10.8293 8.21508 10.7588 8.2671 10.7068C8.31912 10.6547 8.38968 10.6255 8.46325 10.6255H23.5368C23.6103 10.6255 23.6809 10.6547 23.7329 10.7068C23.7849 10.7588 23.8141 10.8293 23.8141 10.9029C23.8141 11.4179 24.0187 11.9118 24.3829 12.2759C24.747 12.6401 25.2409 12.8447 25.7559 12.8447C25.8295 12.8447 25.9 12.8739 25.952 12.9259C26.0041 12.9779 26.0333 13.0485 26.0333 13.1221V18.9473C26.0333 19.0209 26.0041 19.0914 25.952 19.1434C25.9 19.1955 25.8295 19.2247 25.7559 19.2247C25.2409 19.2247 24.747 19.4293 24.3829 19.7934C24.0187 20.1576 23.8141 20.6515 23.8141 21.1664C23.8141 21.24 23.7849 21.3106 23.7329 21.3626C23.6809 21.4146 23.6103 21.4438 23.5368 21.4438H8.46325C8.38968 21.4438 8.31912 21.4146 8.2671 21.3626C8.21508 21.3106 8.18585 21.24 8.18585 21.1664C8.18585 20.6515 7.98128 20.1576 7.61713 19.7934C7.25298 19.4293 6.75909 19.2247 6.24411 19.2247C6.17054 19.2247 6.09998 19.1955 6.04796 19.1434C5.99594 19.0914 5.96671 19.0209 5.96671 18.9473ZM6.5215 18.6865C7.0839 18.7497 7.60818 19.002 8.00835 19.4022C8.40853 19.8024 8.66087 20.3266 8.72399 20.889H23.2732C23.3364 20.3266 23.5887 19.8024 23.9889 19.4022C24.3891 19.002 24.9133 18.7497 25.4757 18.6865V13.3828C24.9133 13.3197 24.3891 13.0673 23.9889 12.6672C23.5887 12.267 23.3364 11.7427 23.2732 11.1803H8.72677C8.66364 11.7427 8.41131 12.267 8.01113 12.6672C7.61095 13.0673 7.08668 13.3197 6.52427 13.3828V18.6865H6.5215ZM28 9.27739V22.792C28 22.8655 27.9708 22.9361 27.9188 22.9881C27.8667 23.0401 27.7962 23.0693 27.7226 23.0693H4.27739C4.20382 23.0693 4.13327 23.0401 4.08125 22.9881C4.02923 22.9361 4 22.8655 4 22.792V9.27739C4 9.20382 4.02923 9.13327 4.08125 9.08125C4.13327 9.02923 4.20382 9 4.27739 9H27.7226C27.7962 9 27.8667 9.02923 27.9188 9.08125C27.9708 9.13327 28 9.20382 28 9.27739ZM27.4452 9.55479H4.55479V22.5146H27.4452V9.55479ZM12.2913 16.0347C12.2913 15.3005 12.509 14.5828 12.917 13.9724C13.3249 13.362 13.9047 12.8863 14.5831 12.6054C15.2614 12.3246 16.0078 12.2512 16.7279 12.3947C17.4479 12.5381 18.1092 12.8919 18.6282 13.4112C19.1471 13.9306 19.5004 14.5922 19.6433 15.3123C19.7862 16.0324 19.7123 16.7788 19.431 17.4569C19.1496 18.1351 18.6735 18.7145 18.0628 19.122C17.452 19.5295 16.7342 19.7467 16 19.7462C15.0164 19.7447 14.0735 19.3531 13.3782 18.6573C12.6829 17.9615 12.292 17.0183 12.2913 16.0347ZM12.846 16.0347C12.8455 16.6593 13.0302 17.27 13.3769 17.7895C13.7236 18.309 14.2165 18.7141 14.7935 18.9534C15.3704 19.1926 16.0053 19.2554 16.6179 19.1337C17.2305 19.0119 17.7933 18.7112 18.2349 18.2696C18.6766 17.8279 18.9773 17.2652 19.099 16.6526C19.2207 16.04 19.1579 15.4051 18.9187 14.8281C18.6794 14.2512 18.2744 13.7582 17.7548 13.4116C17.2353 13.0649 16.6246 12.8802 16 12.8807C15.164 12.8822 14.3626 13.2149 13.7714 13.8061C13.1803 14.3973 12.8475 15.1986 12.846 16.0347ZM9.71151 16.6588C9.83495 16.6588 9.95562 16.6222 10.0583 16.5536C10.1609 16.485 10.2409 16.3876 10.2881 16.2735C10.3354 16.1595 10.3477 16.034 10.3237 15.9129C10.2996 15.7918 10.2401 15.6806 10.1528 15.5933C10.0656 15.5061 9.95434 15.4466 9.83327 15.4225C9.7122 15.3985 9.58671 15.4108 9.47267 15.4581C9.35862 15.5053 9.26114 15.5853 9.19256 15.6879C9.12398 15.7906 9.08738 15.9112 9.08738 16.0347C9.08738 16.2002 9.15314 16.359 9.27018 16.476C9.38723 16.5931 9.54598 16.6588 9.71151 16.6588ZM22.2857 16.8336C22.4092 16.8336 22.5298 16.797 22.6325 16.7284C22.7351 16.6598 22.8151 16.5623 22.8623 16.4483C22.9096 16.3342 22.9219 16.2087 22.8979 16.0877C22.8738 15.9666 22.8143 15.8554 22.727 15.7681C22.6398 15.6808 22.5285 15.6214 22.4075 15.5973C22.2864 15.5732 22.1609 15.5856 22.0469 15.6328C21.9328 15.68 21.8353 15.76 21.7668 15.8627C21.6982 15.9653 21.6616 16.086 21.6616 16.2094C21.6616 16.2916 21.6778 16.373 21.7094 16.4489C21.7409 16.5248 21.7871 16.5938 21.8454 16.6517C21.9036 16.7097 21.9727 16.7557 22.0488 16.7869C22.1248 16.8181 22.2063 16.8339 22.2885 16.8336H22.2857Z" fill="#F2717D"/>
<path d="M5.96671 18.9473V13.1221C5.96671 13.0485 5.99594 12.9779 6.04796 12.9259C6.09998 12.8739 6.17054 12.8447 6.24411 12.8447C6.75909 12.8447 7.25298 12.6401 7.61713 12.2759C7.98128 11.9118 8.18585 11.4179 8.18585 10.9029C8.18585 10.8293 8.21508 10.7588 8.2671 10.7068C8.31912 10.6547 8.38968 10.6255 8.46325 10.6255H23.5368C23.6103 10.6255 23.6809 10.6547 23.7329 10.7068C23.7849 10.7588 23.8141 10.8293 23.8141 10.9029C23.8141 11.4179 24.0187 11.9118 24.3829 12.2759C24.747 12.6401 25.2409 12.8447 25.7559 12.8447C25.8295 12.8447 25.9 12.8739 25.952 12.9259C26.0041 12.9779 26.0333 13.0485 26.0333 13.1221V18.9473C26.0333 19.0209 26.0041 19.0914 25.952 19.1434C25.9 19.1955 25.8295 19.2247 25.7559 19.2247C25.2409 19.2247 24.747 19.4293 24.3829 19.7934C24.0187 20.1576 23.8141 20.6515 23.8141 21.1664C23.8141 21.24 23.7849 21.3106 23.7329 21.3626C23.6809 21.4146 23.6103 21.4438 23.5368 21.4438H8.46325C8.38968 21.4438 8.31912 21.4146 8.2671 21.3626C8.21508 21.3106 8.18585 21.24 8.18585 21.1664C8.18585 20.6515 7.98128 20.1576 7.61713 19.7934C7.25298 19.4293 6.75909 19.2247 6.24411 19.2247C6.17054 19.2247 6.09998 19.1955 6.04796 19.1434C5.99594 19.0914 5.96671 19.0209 5.96671 18.9473ZM6.5215 18.6865C7.0839 18.7497 7.60818 19.002 8.00835 19.4022C8.40853 19.8024 8.66087 20.3266 8.72399 20.889H23.2732C23.3364 20.3266 23.5887 19.8024 23.9889 19.4022C24.3891 19.002 24.9133 18.7497 25.4757 18.6865V13.3828C24.9133 13.3197 24.3891 13.0673 23.9889 12.6672C23.5887 12.267 23.3364 11.7427 23.2732 11.1803H8.72677C8.66364 11.7427 8.41131 12.267 8.01113 12.6672C7.61095 13.0673 7.08668 13.3197 6.52427 13.3828V18.6865H6.5215ZM28 9.27739V22.792C28 22.8655 27.9708 22.9361 27.9188 22.9881C27.8667 23.0401 27.7962 23.0693 27.7226 23.0693H4.27739C4.20382 23.0693 4.13327 23.0401 4.08125 22.9881C4.02923 22.9361 4 22.8655 4 22.792V9.27739C4 9.20382 4.02923 9.13327 4.08125 9.08125C4.13327 9.02923 4.20382 9 4.27739 9H27.7226C27.7962 9 27.8667 9.02923 27.9188 9.08125C27.9708 9.13327 28 9.20382 28 9.27739ZM27.4452 9.55479H4.55479V22.5146H27.4452V9.55479ZM12.2913 16.0347C12.2913 15.3005 12.509 14.5828 12.917 13.9724C13.3249 13.362 13.9047 12.8863 14.5831 12.6054C15.2614 12.3246 16.0078 12.2512 16.7279 12.3947C17.4479 12.5381 18.1092 12.8919 18.6282 13.4112C19.1471 13.9306 19.5004 14.5922 19.6433 15.3123C19.7862 16.0324 19.7123 16.7788 19.431 17.4569C19.1496 18.1351 18.6735 18.7145 18.0628 19.122C17.452 19.5295 16.7342 19.7467 16 19.7462C15.0164 19.7447 14.0735 19.3531 13.3782 18.6573C12.6829 17.9615 12.292 17.0183 12.2913 16.0347ZM12.846 16.0347C12.8455 16.6593 13.0302 17.27 13.3769 17.7895C13.7236 18.309 14.2165 18.7141 14.7935 18.9534C15.3704 19.1926 16.0053 19.2554 16.6179 19.1337C17.2305 19.0119 17.7933 18.7112 18.2349 18.2696C18.6766 17.8279 18.9773 17.2652 19.099 16.6526C19.2207 16.04 19.1579 15.4051 18.9187 14.8281C18.6794 14.2512 18.2744 13.7582 17.7548 13.4116C17.2353 13.0649 16.6246 12.8802 16 12.8807C15.164 12.8822 14.3626 13.2149 13.7714 13.8061C13.1803 14.3973 12.8475 15.1986 12.846 16.0347ZM9.71151 16.6588C9.83495 16.6588 9.95562 16.6222 10.0583 16.5536C10.1609 16.485 10.2409 16.3876 10.2881 16.2735C10.3354 16.1595 10.3477 16.034 10.3237 15.9129C10.2996 15.7918 10.2401 15.6806 10.1528 15.5933C10.0656 15.5061 9.95434 15.4466 9.83327 15.4225C9.7122 15.3985 9.58671 15.4108 9.47267 15.4581C9.35862 15.5053 9.26114 15.5853 9.19256 15.6879C9.12398 15.7906 9.08738 15.9112 9.08738 16.0347C9.08738 16.2002 9.15314 16.359 9.27018 16.476C9.38723 16.5931 9.54598 16.6588 9.71151 16.6588ZM22.2857 16.8336C22.4092 16.8336 22.5298 16.797 22.6325 16.7284C22.7351 16.6598 22.8151 16.5623 22.8623 16.4483C22.9096 16.3342 22.9219 16.2087 22.8979 16.0877C22.8738 15.9666 22.8143 15.8554 22.727 15.7681C22.6398 15.6808 22.5285 15.6214 22.4075 15.5973C22.2864 15.5732 22.1609 15.5856 22.0469 15.6328C21.9328 15.68 21.8353 15.76 21.7668 15.8627C21.6982 15.9653 21.6616 16.086 21.6616 16.2094C21.6616 16.2916 21.6778 16.373 21.7094 16.4489C21.7409 16.5248 21.7871 16.5938 21.8454 16.6517C21.9036 16.7097 21.9727 16.7557 22.0488 16.7869C22.1248 16.8181 22.2063 16.8339 22.2885 16.8336H22.2857Z" stroke="#F98B88" stroke-width="0.4" mask="url(#path-1-outside-1)"/>
</svg>
