<svg width="32" height="32" viewBox="0 0 32 32" fill="none" xmlns="http://www.w3.org/2000/svg">
<path d="M23.742 4.12903H12.9033V3.09677H13.4195C13.705 3.09677 13.9356 2.86542 13.9356 2.58065V0.516129C13.9356 0.231351 13.705 0 13.4195 0H6.19365C5.90812 0 5.67752 0.231351 5.67752 0.516129V2.58065C5.67752 2.86542 5.90812 3.09677 6.19365 3.09677H6.70978V4.48261C5.49128 5.06376 4.64526 6.30444 4.64526 7.74194V28.3871C4.64526 30.3788 6.26648 32 8.25817 32H23.742C25.7337 32 27.3549 30.3788 27.3549 28.3871V7.74194C27.3549 5.74975 25.7337 4.12903 23.742 4.12903ZM26.3227 7.74194V15.7863L24.2582 13.7218V8.77419C24.2582 7.92061 23.5634 7.22581 22.7098 7.22581H17.7622L15.6977 5.16129H23.742C25.1649 5.16129 26.3227 6.31905 26.3227 7.74194ZM23.2259 12.6895L18.7945 8.25806H22.7098C22.9946 8.25806 23.2259 8.48992 23.2259 8.77419V12.6895ZM6.70978 1.03226H12.9033V2.06452H6.70978V1.03226ZM7.74204 3.09677H11.8711V4.12903H8.25817C8.08276 4.12903 7.91139 4.14617 7.74204 4.17036V3.09677ZM23.742 30.9677H8.25817C6.83528 30.9677 5.67752 29.81 5.67752 28.3871V7.74194C5.67752 6.31905 6.83528 5.16129 8.25817 5.16129H14.238L26.3227 17.246V28.3871C26.3227 29.81 25.1649 30.9677 23.742 30.9677Z" fill="#1B3281"/>
<path d="M13.7843 6.34475C13.6878 6.24773 13.5567 6.19354 13.4194 6.19354H8.77423C7.63562 6.19354 6.70972 7.11945 6.70972 8.25806V27.871C6.70972 29.0096 7.63562 29.9355 8.77423 29.9355H23.2258C24.3645 29.9355 25.2904 29.0096 25.2904 27.871V18.0645C25.2904 17.9272 25.2362 17.7961 25.1392 17.6996L13.7843 6.34475ZM24.2581 27.871C24.2581 28.4403 23.7952 28.9032 23.2258 28.9032H8.77423C8.20493 28.9032 7.74197 28.4403 7.74197 27.871V8.25806C7.74197 7.68875 8.20493 7.2258 8.77423 7.2258H13.2057L24.2581 18.2782V27.871Z" fill="#1B3281"/>
<path d="M11.8708 23.0958C11.8708 25.0013 13.2365 26.5998 15.047 26.813C15.1902 26.8294 15.3336 26.8382 15.4754 26.8382C16.3608 26.8382 17.2199 26.5166 17.8832 25.9267C18.6549 25.2412 19.0967 24.2571 19.0967 23.2258V23.0958C19.0967 22.0812 18.8401 21.0746 18.3545 20.1847L15.9369 15.7528C15.7562 15.4209 15.2113 15.4209 15.0306 15.7528L12.613 20.1842C12.1274 21.0746 11.8708 22.0812 11.8708 23.0958ZM13.5193 20.6787L15.4838 17.0781L17.4482 20.6797C17.8512 21.4178 18.0644 22.2535 18.0644 23.0958V23.2258C18.0644 23.9622 17.7486 24.6653 17.1972 25.155C16.6392 25.6512 15.9172 25.8755 15.168 25.7878C13.8983 25.6381 12.9031 24.4556 12.9031 23.0958C12.9031 22.2535 13.1163 21.4178 13.5193 20.6787V20.6787Z" fill="#ED1C24"/>
<path d="M17.5484 23.2258H16.5161C16.5161 23.7951 16.0532 24.2581 15.4839 24.2581V25.2903C16.6225 25.2903 17.5484 24.3644 17.5484 23.2258Z" fill="#ED1C24"/>
</svg>
