<svg width="64" height="64" viewBox="0 0 64 64" fill="none" xmlns="http://www.w3.org/2000/svg">
<g clip-path="url(#clip0)">
<path d="M37.5139 29.8148C37.5884 29.8401 37.6653 29.852 37.7398 29.852C38.0334 29.852 38.3071 29.6677 38.4063 29.3741C38.6266 28.7278 39.3313 28.3808 39.9773 28.5996C41.3586 29.0671 42.8655 28.3258 43.3337 26.944C43.4591 26.5766 43.2619 26.1762 42.8939 26.0508C42.5243 25.9262 42.1258 26.1234 42.0006 26.4914C41.7809 27.1384 41.0763 27.4854 40.4293 27.266C39.0505 26.8006 37.5417 27.5403 37.073 28.9215C36.9485 29.289 37.1456 29.6894 37.5139 29.8148Z" fill="#F2717D"/>
<path d="M39.1792 24.9097C39.254 24.9351 39.3306 24.947 39.4051 24.947C39.6987 24.947 39.9724 24.7626 40.0716 24.4691C40.1781 24.1556 40.3996 23.9023 40.6969 23.7559C40.9938 23.6097 41.3295 23.5886 41.6429 23.6948C43.0239 24.1624 44.5305 23.4211 44.9993 22.0383C45.1244 21.6709 44.9266 21.2705 44.5592 21.1451C44.1911 21.0184 43.7911 21.2177 43.6666 21.5858C43.4471 22.2333 42.7437 22.5806 42.0955 22.3609C41.4253 22.1332 40.7079 22.1799 40.0743 22.493C39.4408 22.8055 38.9665 23.3469 38.7392 24.0165C38.6131 24.3845 38.8109 24.7846 39.1792 24.9097Z" fill="#F2717D"/>
<path d="M40.8427 20.005C40.9178 20.0304 40.9941 20.0423 41.0695 20.0423C41.363 20.0423 41.6368 19.8576 41.736 19.5641C41.8977 19.0868 42.4196 18.8298 42.8959 18.9919C43.4837 19.1911 44.1139 19.1502 44.6705 18.8765C45.2269 18.6018 45.6428 18.1276 45.8427 17.5395C45.9678 17.1721 45.7707 16.7717 45.4027 16.6466C45.0331 16.5206 44.6345 16.7189 44.5094 17.087C44.4304 17.3186 44.2665 17.506 44.0474 17.6137C43.8286 17.7211 43.5808 17.7376 43.3485 17.6579C42.1364 17.249 40.8137 17.8993 40.4027 19.1109C40.2781 19.4798 40.4744 19.8796 40.8427 20.005Z" fill="#F2717D"/>
<path d="M45.9422 29.7626C45.8198 29.679 45.6818 29.6311 45.5409 29.6128C46.9395 25.0675 47.707 20.6147 47.8168 16.3734C47.8513 15.0394 47.1995 13.2584 45.8851 12.4342C45.2546 12.038 44.221 11.7115 42.8794 12.4018C40.7768 13.4867 39.2732 16.6776 38.0653 19.2426C37.9957 19.3903 37.9273 19.5347 37.8599 19.6775C37.5929 18.4507 36.782 17.4012 35.6291 16.8534C35.3575 15.5469 34.3211 14.5234 33.0189 14.2582C33.0049 14.1849 32.9872 14.1129 32.9655 14.0406C32.6973 13.1242 31.8885 12.4342 30.9529 12.3231C30.4258 12.2605 29.9034 12.3695 29.4572 12.6307C29.077 12.4189 28.6503 12.3063 28.2124 12.3063C26.9883 12.3063 25.9599 13.1602 25.6917 14.3027C24.3535 14.6671 23.372 15.8951 23.3616 17.3228C21.8349 17.717 20.7225 19.0967 20.7225 20.7377C20.7225 21.1728 20.8043 21.6034 20.9611 22.0096C20.565 22.4988 20.3453 23.1113 20.3453 23.754C20.3453 24.1398 20.4246 24.5115 20.5748 24.8548C19.8717 24.0876 18.882 23.4604 17.7705 23.5013C17.3817 23.5138 17.0763 23.8385 17.0882 24.227C17.1001 24.6079 17.4129 24.9091 17.7916 24.9091C17.8154 24.91 17.8371 24.9079 17.8596 24.9079C18.5194 24.9079 19.1325 25.3443 19.5787 25.8509C18.4624 26.1728 17.1162 26.6962 16.4885 27.8806C16.1104 28.595 16.0661 29.4712 16.3182 30.4752C16.1964 30.6787 16.1296 30.9153 16.1421 31.167L17.3402 48.193C17.4495 50.328 19.2091 51.9998 21.3463 51.9998H41.1064C43.2435 51.9998 45.0031 50.328 45.1115 48.2059L46.3398 30.5878C46.3398 30.5838 46.3407 30.5796 46.3407 30.5753C46.3602 30.2506 46.2104 29.9472 45.9422 29.7626ZM38.4339 21.6907C38.7129 21.1707 39.0168 20.5256 39.3385 19.8423C40.3965 17.5953 41.8467 14.5185 43.5243 13.6527C44.1364 13.3372 44.6638 13.3308 45.1368 13.6259C45.9525 14.1383 46.4329 15.4313 46.4094 16.3367C46.3017 20.4984 45.5415 24.878 44.1493 29.3552C44.1035 29.5023 44.0022 29.7992 43.8578 30.2069L42.6582 30.7398C42.6322 30.7517 42.6069 30.7645 42.5822 30.7798C42.2358 30.9876 41.8473 31.0901 41.4585 31.0944C41.07 31.0901 40.6822 30.9876 40.3358 30.7798L39.8341 30.4785C39.2567 30.1322 38.6097 29.9591 37.9627 29.9591C37.9551 29.9591 37.9475 29.9604 37.9389 29.9604C37.2843 29.9561 36.6282 30.1273 36.0438 30.4785L35.5427 30.7798C35.2632 30.9473 34.9543 31.0291 34.6415 31.0642C34.6592 31.0031 34.6797 30.943 34.698 30.8826C34.8909 30.2274 35.0978 29.581 35.3144 28.9399C35.3968 28.696 35.4829 28.454 35.5686 28.2126C35.7496 27.7036 35.9388 27.2013 36.1347 26.702C36.222 26.4789 36.3072 26.2537 36.3972 26.0328C37.0115 24.5353 37.6887 23.0832 38.4339 21.6907ZM29.4606 23.3603C29.5427 23.2547 29.6229 23.1522 29.6992 23.0521C29.6992 23.0509 29.6998 23.05 29.7004 23.0494C29.756 22.9755 29.8045 22.8986 29.8454 22.8217C30.0187 22.4961 30.0593 22.1299 29.9791 21.7722L32.9173 21.1298C32.9371 21.2198 32.9582 21.3093 32.9921 21.3923C33.1236 21.7145 33.3589 21.9828 33.686 22.1702C33.7931 22.2294 33.9051 22.2883 34.0205 22.3496C34.1154 22.3996 34.2106 22.4515 34.3061 22.5037C34.3519 22.5284 34.3983 22.5528 34.4441 22.5785C34.528 22.6255 34.6089 22.6777 34.6904 22.7289C34.7602 22.772 34.8292 22.8162 34.8967 22.8635C34.9748 22.9175 35.0495 22.9773 35.124 23.0381C35.1896 23.0915 35.2522 23.1501 35.3141 23.2099C35.381 23.2752 35.4472 23.342 35.5085 23.4153C35.6169 23.5447 35.7209 23.6792 35.8061 23.8404C35.5076 24.4993 35.2269 25.1716 34.9552 25.8493C34.9128 25.9543 34.868 26.0566 34.8265 26.1612C34.055 26.3569 33.3094 26.7231 32.3887 27.3783C31.2284 28.2025 30.3648 28.4217 28.9415 28.2154L28.5142 26.2592C28.2243 24.9366 28.853 24.1355 29.4606 23.3603ZM32.9512 19.0854C32.9695 19.0821 32.9878 19.08 33.0061 19.08C33.1391 19.08 33.2637 19.1752 33.2927 19.3088C33.3152 19.4102 33.2771 19.4898 33.2518 19.5283C33.227 19.5664 33.1715 19.6332 33.0708 19.6549L29.1822 20.506C29.0275 20.5399 28.8697 20.4371 28.8359 20.2836C28.8023 20.1294 28.9042 19.9711 29.0583 19.9372L31.1244 19.4852L32.9512 19.0854ZM30.6761 29.9732C30.6227 29.9768 30.5684 29.9781 30.5149 29.9839C30.131 30.0226 29.7523 30.1197 29.3928 30.2814L29.2582 29.6656C29.4612 29.6823 29.6632 29.6994 29.8524 29.6994C31.0801 29.6994 32.0686 29.3338 33.2045 28.5257C33.5621 28.2709 33.8789 28.078 34.1801 27.9184C34.1154 28.1021 34.0513 28.2849 33.9888 28.4696C33.9436 28.6017 33.8951 28.732 33.8514 28.8651C33.6445 29.4916 33.4474 30.123 33.2637 30.7602L32.7955 30.4801C32.2184 30.1337 31.5715 29.9604 30.9245 29.9604C30.9159 29.9604 30.9071 29.9619 30.8986 29.9619C30.8241 29.9604 30.7499 29.9689 30.6761 29.9732ZM22.2563 22.6938L22.7174 22.3139L22.4183 21.7978C22.231 21.474 22.1318 21.1078 22.1318 20.7377C22.1318 19.5972 23.025 18.6674 24.1655 18.6197L25.02 18.5837L24.8207 17.7515C24.7871 17.6124 24.77 17.475 24.77 17.3447C24.77 16.4381 25.4783 15.6745 26.382 15.6055L27.0326 15.5561V14.8557C27.053 14.2231 27.5746 13.7141 28.213 13.7141C28.5804 13.7141 28.8438 13.8816 28.9994 14.0223L29.4929 14.4678L29.9659 14.0006C30.1826 13.7867 30.4805 13.6866 30.7875 13.7217C31.1647 13.7662 31.5052 14.0604 31.6151 14.4385C31.6523 14.5652 31.663 14.6876 31.6484 14.8124L31.566 15.5985H32.3585C33.3702 15.5985 34.2161 16.3892 34.286 17.3984L34.3177 17.8611L34.7547 18.0143C35.8549 18.4009 36.5788 19.4419 36.5541 20.607C36.5434 21.1048 36.3829 21.5839 36.092 22.0041C35.6211 21.6044 35.1136 21.3349 34.687 21.1103C34.5765 21.0517 34.4697 20.9955 34.362 20.9357C34.3315 20.9186 34.2948 20.8893 34.2823 20.8152C34.2656 20.7139 34.3034 20.5921 34.3803 20.5027C34.687 20.1465 34.8103 19.661 34.7111 19.2026L34.626 18.8148C34.5408 18.4232 34.3071 18.089 33.9692 17.8721C33.632 17.656 33.2307 17.5837 32.8401 17.6694L32.6512 17.7109C32.649 17.7115 32.6472 17.7109 32.6451 17.7115L30.579 18.1635L28.563 18.6036C28.1724 18.689 27.838 18.9219 27.6213 19.2603C27.4043 19.5975 27.3326 19.9994 27.4177 20.3901L27.4598 20.5814V20.5835C27.4598 20.5845 27.4608 20.5851 27.4608 20.5866L27.5023 20.7773C27.6042 21.2461 27.9301 21.641 28.3729 21.8311C28.4828 21.8781 28.5743 21.9675 28.6061 22.0585C28.6244 22.1106 28.6137 22.1372 28.5728 22.2049V22.2056C28.5032 22.2992 28.4279 22.3942 28.3513 22.4921C28.2737 22.5907 28.1935 22.6941 28.1117 22.8013C28.0842 22.837 28.0583 22.8742 28.0308 22.9108C27.9722 22.9905 27.9139 23.0713 27.8563 23.1559C27.8245 23.2016 27.7943 23.2489 27.7632 23.2969C27.7098 23.3793 27.6582 23.4641 27.6075 23.5517C27.5782 23.6023 27.5493 23.6524 27.5212 23.7049C27.4681 23.8035 27.4205 23.9069 27.3732 24.0128C27.3527 24.0577 27.3311 24.1007 27.3127 24.148C27.2508 24.3012 27.1959 24.4617 27.1522 24.6308C27.1452 24.6576 27.1425 24.6863 27.1361 24.7138C27.1022 24.8575 27.0747 25.0058 27.057 25.1609C27.0503 25.2228 27.0488 25.2875 27.0445 25.3516C27.0387 25.4346 27.0283 25.5137 27.0283 25.6C27.0253 25.5967 27.0225 25.593 27.0198 25.5896C27.01 25.5768 26.9999 25.5655 26.9908 25.553C26.8684 25.3916 26.7457 25.2433 26.6227 25.1023C26.584 25.058 26.5446 25.0153 26.5053 24.9729C26.4018 24.8612 26.2983 24.7562 26.194 24.6576C26.1604 24.6259 26.1265 24.5914 26.092 24.5603C25.9605 24.4428 25.8281 24.3351 25.695 24.2392C25.6578 24.2127 25.6196 24.1901 25.5824 24.1648C25.4823 24.0976 25.3825 24.0357 25.2809 23.9811C25.2318 23.9542 25.1832 23.9283 25.1332 23.9042C25.0282 23.8529 24.9226 23.8092 24.8164 23.7711C24.7813 23.7586 24.7459 23.7415 24.7108 23.7302C24.5955 23.6936 24.4795 23.664 24.3626 23.6423C24.3492 23.6396 24.3358 23.6408 24.3223 23.639C24.2985 23.6347 24.2753 23.6255 24.2512 23.6219C24.1694 23.61 24.0919 23.6149 24.0117 23.6091C23.9555 23.6057 23.9 23.5938 23.8435 23.5938C23.8267 23.5938 23.809 23.5981 23.7916 23.5981C23.6824 23.5993 23.5768 23.6121 23.4706 23.6252C23.4178 23.6322 23.365 23.6365 23.3122 23.6463C23.1734 23.6716 23.0391 23.707 22.906 23.7491C22.8856 23.7555 22.8657 23.7604 22.8453 23.7674C22.4949 23.8865 22.1626 24.0549 21.8516 24.2582C21.7876 24.0998 21.7537 23.9295 21.7537 23.754C21.7546 23.342 21.9377 22.9557 22.2563 22.6938ZM17.7336 28.5385C18.0315 27.9776 18.7544 27.5495 20.0096 27.1906C20.5968 27.023 21.1415 26.7096 21.5837 26.2873C21.7842 26.0953 21.9722 25.9327 22.1538 25.785C22.7211 25.3238 23.2103 25.073 23.6531 25.0159C23.6632 25.0147 23.6729 25.0132 23.6827 25.0126C23.8228 24.997 23.9586 25.0013 24.0904 25.0245C24.1249 25.0309 24.16 25.0428 24.1954 25.0519C24.2607 25.0681 24.3254 25.0843 24.391 25.1105C24.4331 25.1267 24.4752 25.1514 24.5183 25.1709C24.5793 25.2005 24.64 25.2274 24.7014 25.2646C24.7493 25.2933 24.7969 25.3309 24.8448 25.3638C24.9019 25.4038 24.9589 25.4404 25.0166 25.4871C25.07 25.5298 25.1237 25.582 25.1771 25.6305C25.2305 25.6791 25.2842 25.7236 25.3377 25.7776C25.3969 25.8374 25.4567 25.907 25.5165 25.9742C25.565 26.0282 25.6135 26.0782 25.663 26.1368C25.7298 26.2171 25.7972 26.3083 25.8647 26.3971C25.9077 26.4536 25.9501 26.5043 25.9929 26.5641C26.0698 26.6712 26.147 26.7899 26.2245 26.9083C26.2584 26.9602 26.2929 27.0069 26.3264 27.0603C26.4384 27.237 26.551 27.425 26.6642 27.6249C27.1824 28.5392 27.3542 29.8899 27.129 31.0663C27.0915 31.0627 27.0549 31.0572 27.0176 31.0514C26.7494 31.0056 26.4912 30.9198 26.2559 30.7788L25.7539 30.4776C25.1768 30.1313 24.5299 29.9582 23.8829 29.9582C23.8753 29.9582 23.8676 29.9594 23.8591 29.9594C23.2045 29.9552 22.5484 30.1264 21.9639 30.4776L21.7198 30.6241C21.2938 30.8795 20.8168 31.0083 20.3395 31.0126C19.8613 31.0083 19.3849 30.8802 18.9592 30.6241L18.0122 30.0553C18.0122 30.0553 18.0116 30.0553 18.0116 30.0547C17.8868 29.9808 17.7525 29.9298 17.6146 29.9048C17.5041 29.3479 17.5435 28.8974 17.7336 28.5385ZM43.7092 48.1204C43.6381 49.5056 42.4958 50.5911 41.1091 50.5911H21.3484C19.9608 50.5911 18.8191 49.5056 18.7474 48.107L17.5758 31.4646L18.1883 31.8323C18.8521 32.2306 19.5976 32.4265 20.341 32.4222C21.085 32.4265 21.8297 32.2309 22.4934 31.8323L22.7379 31.6858C23.0839 31.4774 23.4721 31.3745 23.8606 31.3703C24.2491 31.3745 24.637 31.4774 24.984 31.6858L25.486 31.987C26.121 32.3679 26.8403 32.5312 27.5514 32.4924C27.6146 32.4896 27.678 32.4896 27.7421 32.4842C27.7498 32.4832 27.7571 32.479 27.7653 32.4784C28.246 32.4243 28.7178 32.273 29.1526 32.0252C29.1935 32.0102 29.2372 32.0096 29.2753 31.987L29.7773 31.6858C30.1234 31.4774 30.5113 31.3745 30.9001 31.3703C31.2886 31.3745 31.6764 31.4774 32.0234 31.6858L32.5254 31.987C33.0583 32.3059 33.6512 32.4713 34.2472 32.4961C34.2591 32.4967 34.272 32.4982 34.2839 32.4982C34.4892 32.5046 34.6949 32.4982 34.8991 32.4692C35.016 32.4542 35.1292 32.425 35.2439 32.3987C35.2995 32.3856 35.3553 32.3734 35.4103 32.3572C35.7228 32.2708 36.0289 32.1573 36.3139 31.9864L36.8159 31.6849C37.1623 31.4768 37.5501 31.3739 37.9386 31.3697C38.3271 31.3739 38.7153 31.4768 39.0623 31.6849L39.5643 31.9864C40.1457 32.3346 40.7981 32.5058 41.45 32.5031C41.4607 32.5031 41.4716 32.5052 41.4823 32.5052C42.1147 32.5052 42.7473 32.3404 43.3146 32.0096L44.6958 31.3956C44.7254 31.3825 44.7465 31.3568 44.7739 31.3401L44.8817 31.2921L43.7092 48.1204Z" fill="#F2717D"/>
<path d="M20.3649 42.2715H25.2925C25.681 42.2715 25.9966 41.9568 25.9966 41.5674C25.9966 41.1783 25.681 40.8634 25.2925 40.8634H20.3649C19.9764 40.8634 19.6611 41.1783 19.6611 41.5674C19.6611 41.9568 19.9764 42.2715 20.3649 42.2715Z" fill="#F2717D"/>
<path d="M20.3649 45.0875H26.7003C27.0891 45.0875 27.4044 44.7728 27.4044 44.3834C27.4044 43.994 27.0891 43.6794 26.7003 43.6794H20.3649C19.9764 43.6794 19.6611 43.994 19.6611 44.3834C19.6611 44.7728 19.9764 45.0875 20.3649 45.0875Z" fill="#F2717D"/>
<path d="M28.1081 46.4951H20.3649C19.9764 46.4951 19.6611 46.8098 19.6611 47.1992C19.6611 47.5883 19.9764 47.9029 20.3649 47.9029H28.1081C28.4966 47.9029 28.8121 47.5883 28.8121 47.1992C28.8121 46.8098 28.4966 46.4951 28.1081 46.4951Z" fill="#F2717D"/>
<path d="M32.3315 46.4951H30.9238C30.535 46.4951 30.2197 46.8098 30.2197 47.1992C30.2197 47.5883 30.535 47.9029 30.9238 47.9029H32.3315C32.72 47.9029 33.0356 47.5883 33.0356 47.1992C33.0356 46.8098 32.7203 46.4951 32.3315 46.4951Z" fill="#F2717D"/>
</g>
<defs>
<clipPath id="clip0">
<rect width="40" height="40" fill="white" transform="translate(12 12)"/>
</clipPath>
</defs>
</svg>
