<svg width="32" height="32" viewBox="0 0 32 32" fill="none" xmlns="http://www.w3.org/2000/svg">
<path d="M13.9341 14.72L12.7908 17.5779C12.7413 17.7031 12.7789 17.8456 12.8835 17.9302C12.988 18.0148 13.1354 18.0217 13.2474 17.9472L15.8458 16.2155L18.4443 17.9478C18.5563 18.0223 18.7036 18.0154 18.8082 17.9308C18.9128 17.8462 18.9503 17.7037 18.9009 17.5785L17.7574 14.72L20.0304 13.0154C20.1363 12.9359 20.1796 12.7977 20.1377 12.672C20.0958 12.5464 19.9783 12.4616 19.8458 12.4616H17.0166L16.1369 9.90002C16.0941 9.77577 15.9772 9.69238 15.8458 9.69238C15.7137 9.69283 15.5968 9.77757 15.5551 9.90287L14.7009 12.4616H11.8458C11.7134 12.4616 11.5958 12.5464 11.5538 12.672C11.5121 12.7977 11.5552 12.9359 11.6611 13.0154L13.9341 14.72ZM14.9227 13.077C15.0552 13.077 15.1728 12.9923 15.2148 12.8665L15.8501 10.9589L16.5061 12.8665C16.5487 12.9908 16.6656 13.0741 16.7969 13.0743H18.9227L17.1996 14.3665C17.0883 14.4501 17.0466 14.5979 17.0985 14.7271L17.9615 16.8841L16.0166 15.5875C15.9132 15.5184 15.7785 15.5184 15.6751 15.5875L13.7301 16.8841L14.5932 14.7271C14.6435 14.5986 14.6021 14.4525 14.492 14.3694L12.7688 13.077H14.9227Z" fill="#F2717D"/>
<path d="M21.6923 6H10.3077C10.1378 6 10 6.13777 10 6.30769V24.7692C9.99985 24.8905 10.0711 25.0006 10.1816 25.0503C10.2922 25.0999 10.4217 25.0801 10.5123 24.9994L15.8517 20.2528L21.4941 25.0046C21.5858 25.0817 21.7136 25.0987 21.8221 25.0482C21.9306 24.9977 22 24.8888 22 24.7692V6.30769C22 6.13777 21.8622 6 21.6923 6ZM21.3846 24.108L16.0446 19.6107C15.9277 19.5122 15.7562 19.5144 15.6418 19.616L10.6154 24.084V6.61538H21.3846V24.108Z" fill="#F2717D"/>
</svg>
