<svg width="32" height="32" viewBox="0 0 24 24" fill="none" xmlns="http://www.w3.org/2000/svg">
<path d="M12.9052 11.5024C13.2509 11.2325 13.4738 10.8123 13.4738 10.3407V9.80747V9.27453C13.4738 8.46191 12.8126 7.80078 12 7.80078C11.1874 7.80078 10.5262 8.46191 10.5262 9.27453V9.80762V10.3407C10.5262 10.8122 10.7491 11.2325 11.0948 11.5024C9.99026 11.8872 9.17273 12.9194 9.17273 14.0842V14.9166C9.17273 15.0463 9.27785 15.1514 9.40754 15.1514H14.5925C14.7222 15.1514 14.8273 15.0463 14.8273 14.9166V14.0842C14.8273 12.9194 14.0097 11.8872 12.9052 11.5024ZM11.0749 8.88412C11.2275 8.52388 11.5847 8.27047 12 8.27047C12.4153 8.27047 12.7725 8.52384 12.9251 8.88412C12.976 9.00422 13.0042 9.13619 13.0042 9.27459V9.53472C12.625 9.40884 12.4655 9.01222 12.4581 8.99325C12.4255 8.90728 12.3458 8.84825 12.254 8.84216C12.1625 8.83597 12.0755 8.88403 12.0319 8.96494C12.0289 8.97047 11.7501 9.47044 10.9959 9.55937V9.27456H10.9959C10.9958 9.13619 11.024 9.00422 11.0749 8.88412ZM10.9958 10.3408V10.0316C11.5982 9.97534 11.9848 9.70944 12.2059 9.49066C12.3596 9.70062 12.6164 9.94519 13.0041 10.0193V10.3408C13.0041 10.8802 12.5765 11.3215 12.0424 11.3439C12.0294 11.3435 12.0163 11.343 12.0032 11.3428C12.0011 11.3428 11.9989 11.3428 11.9968 11.3428C11.9837 11.343 11.9706 11.3435 11.9575 11.3439C11.4234 11.3215 10.9958 10.8802 10.9958 10.3408ZM11.8893 12.5462H12.1107L12.3831 13.7286L12 14.0792L11.6169 13.7286L11.8893 12.5462ZM11.721 11.8345C11.7389 11.832 11.7569 11.8291 11.7749 11.827C11.7751 11.827 11.7753 11.827 11.7755 11.827C11.8105 11.823 11.8456 11.82 11.8806 11.8176C11.8861 11.8172 11.8916 11.8169 11.8971 11.8166C11.9207 11.8151 11.9443 11.8144 11.9679 11.8137C11.9786 11.814 11.9892 11.8146 12 11.8146C12.0108 11.8146 12.0213 11.814 12.032 11.8137C12.0556 11.8144 12.0793 11.8152 12.1029 11.8166C12.1083 11.8169 12.1138 11.8172 12.1193 11.8176C12.1544 11.8199 12.1895 11.823 12.2245 11.827C12.2246 11.827 12.2248 11.827 12.225 11.827C12.243 11.8291 12.2609 11.832 12.2789 11.8345L12.1543 12.0766H11.8456L11.721 11.8345ZM14.3577 14.6818H9.64232V14.0843C9.64232 13.4946 9.89454 12.9303 10.3525 12.4951C10.6108 12.2497 10.9204 12.0635 11.2512 11.9479L11.4543 12.3424L11.1285 13.7566C11.1095 13.8391 11.1364 13.9254 11.1988 13.9825L11.8414 14.5707C11.8863 14.6117 11.9431 14.6323 12 14.6323C12.0568 14.6323 12.1137 14.6117 12.1585 14.5707L12.8011 13.9825C12.8636 13.9254 12.8904 13.839 12.8714 13.7566L12.5456 12.3424L12.7487 11.9479C13.0796 12.0636 13.3891 12.2497 13.6474 12.4952C14.1054 12.9303 14.3576 13.4946 14.3576 14.0843V14.6818H14.3577Z" fill="#F2717D"/>
<path d="M17.5198 7.52281C17.5018 7.40859 17.4034 7.32444 17.2878 7.32444C15.0803 7.32444 12.1502 5.58044 12.1209 5.56281C12.0466 5.51813 11.9535 5.51813 11.8791 5.56281C11.8497 5.58044 8.92189 7.32444 6.71227 7.32444C6.59668 7.32444 6.49824 7.40859 6.4803 7.52281C6.47574 7.55197 6.36814 8.2485 6.36952 9.298C6.36968 9.42759 6.47477 9.5325 6.6043 9.5325C6.60439 9.5325 6.60452 9.5325 6.60461 9.5325C6.7343 9.53234 6.8393 9.42706 6.83911 9.29737C6.83821 8.60297 6.88777 8.062 6.91911 7.78966C7.86627 7.75019 9.00636 7.44366 10.3122 6.87712C11.119 6.52709 11.7466 6.18106 12 6.03594C12.2534 6.18103 12.8811 6.52709 13.6878 6.87712C14.9936 7.44369 16.1337 7.75019 17.0808 7.78972C17.1475 8.37219 17.2963 10.186 16.8598 12.1449C16.8316 12.2715 16.9113 12.3969 17.0379 12.4252C17.0551 12.429 17.0723 12.4308 17.0892 12.4308C17.1968 12.4308 17.2938 12.3564 17.3182 12.247C17.8655 9.79087 17.5342 7.61428 17.5198 7.52281Z" fill="#F2717D"/>
<path d="M16.9558 12.7405C16.8317 12.7032 16.7007 12.7736 16.6634 12.8977C16.2807 14.1705 15.6839 15.2445 14.8896 16.0898C14.1167 16.9122 13.1448 17.5279 12 17.9205C10.2248 17.3119 8.88236 16.1766 8.00917 14.5451C7.35673 13.326 6.97252 11.8574 6.86714 10.1801C6.85902 10.0506 6.74745 9.95231 6.61805 9.96043C6.48861 9.96856 6.39027 10.0801 6.39842 10.2095C6.50805 11.9546 6.91064 13.4878 7.59511 14.7667C8.53902 16.5303 9.99605 17.7498 11.9258 18.3911C11.9499 18.3991 11.9749 18.4031 11.9999 18.4031C12.0249 18.4031 12.0499 18.3991 12.0739 18.3911C13.3258 17.9751 14.3882 17.309 15.2317 16.4114C16.0763 15.5127 16.7093 14.376 17.113 13.033C17.1504 12.9088 17.08 12.7778 16.9558 12.7405Z" fill="#F2717D"/>
<path d="M18.8521 6.44586C18.8342 6.33164 18.7358 6.24748 18.6202 6.24748C15.8396 6.24748 12.1577 4.05564 12.1208 4.03352C12.0464 3.98883 11.9534 3.98883 11.879 4.03352C11.8421 4.05567 8.16019 6.24751 5.37963 6.24751C5.264 6.24751 5.1656 6.33167 5.14766 6.44589C5.1305 6.55511 4.73441 9.1557 5.35663 12.1403C5.72388 13.9018 6.37269 15.4253 7.285 16.6684C8.42975 18.2282 9.99113 19.3451 11.9258 19.9881C11.9498 19.996 11.9748 20.0001 11.9998 20.0001C12.0248 20.0001 12.0499 19.9961 12.0739 19.9881C14.0086 19.3451 15.57 18.2282 16.7147 16.6684C17.627 15.4253 18.2758 13.9019 18.6431 12.1403C19.2654 9.15567 18.8693 6.55511 18.8521 6.44586ZM18.1834 12.0444C17.83 13.7397 17.2084 15.2019 16.3362 16.3905C15.2647 17.8504 13.8062 18.9021 11.9999 19.5174C10.1962 18.9029 8.73897 17.8531 7.66803 16.3964C6.79569 15.2099 6.17366 13.7501 5.81913 12.0574C5.30678 9.61129 5.50782 7.37239 5.58607 6.71355C6.77422 6.67336 8.21169 6.29048 9.86325 5.57392C10.904 5.12239 11.7056 4.67642 11.9999 4.50686C12.2943 4.67642 13.0959 5.12242 14.1366 5.57392C15.7882 6.29048 17.2257 6.67333 18.4139 6.71355C18.4922 7.37076 18.693 9.60011 18.1834 12.0444Z" fill="#F2717D"/>
</svg>
