<svg width="32" height="32" viewBox="0 0 32 32" fill="none" xmlns="http://www.w3.org/2000/svg">
<mask id="path-1-outside-1" maskUnits="userSpaceOnUse" x="0.153809" y="3.16248" width="29" height="29" fill="black">
<rect fill="white" x="0.153809" y="3.16248" width="29" height="29"/>
<path d="M14.7589 31.375C17.057 31.374 19.3174 30.7911 21.3295 29.6808C23.3416 28.5704 25.0397 26.9687 26.2657 25.0249C27.4917 23.0811 28.2055 20.8586 28.3407 18.5644C28.4759 16.2703 28.028 13.9793 27.0388 11.905L26.3625 12.2287C27.1916 13.9579 27.6195 15.8519 27.6145 17.7695C27.6145 17.8122 27.6133 17.8547 27.6128 17.8972L27.0596 17.9529C27.0325 17.9556 27.0053 17.9575 26.9784 17.9591L26.7255 17.9705C26.4254 17.983 26.1349 18.0797 25.8872 18.2496C25.6395 18.4195 25.4446 18.6557 25.325 18.9312L25.2603 19.0784C25.1402 19.352 24.943 19.5846 24.6929 19.748C24.4428 19.9114 24.1505 19.9984 23.8517 19.9984H22.7757C22.6132 19.9989 22.4564 19.9387 22.336 19.8297C22.2155 19.7207 22.14 19.5706 22.1243 19.4089L22.0813 18.9787C22.0579 18.7392 21.9806 18.5081 21.8551 18.3028C21.7296 18.0975 21.5591 17.9233 21.3566 17.7934C21.2481 17.7236 21.1588 17.6277 21.097 17.5144C21.0353 17.4011 21.0031 17.2741 21.0034 17.145V16.7142C21.0034 16.5726 21.0335 16.4327 21.0917 16.3037C21.1499 16.1747 21.2348 16.0595 21.3409 15.9658L23.1792 14.342C23.416 14.1321 23.5878 13.8588 23.6742 13.5543C23.7606 13.2499 23.758 12.9271 23.6667 12.6241C23.5716 12.3108 23.3876 12.0318 23.1371 11.8211C22.8866 11.6103 22.5803 11.4767 22.2553 11.4366L22.0698 11.4138C21.8105 11.382 21.572 11.2557 21.4001 11.059C21.3088 10.9549 21.2522 10.825 21.2379 10.6873C21.2237 10.5495 21.2527 10.4108 21.3208 10.2902L22.45 8.36004L21.8024 7.98123L20.6711 9.91466C20.5249 10.1709 20.4622 10.4663 20.4916 10.7598C20.521 11.0533 20.6412 11.3304 20.8354 11.5525C21.1287 11.888 21.5355 12.1035 21.9779 12.1577L22.1635 12.1806C22.3442 12.2029 22.5146 12.2772 22.654 12.3945C22.7934 12.5118 22.8957 12.667 22.9486 12.8413C22.9984 13.0068 22.9999 13.1831 22.9527 13.3493C22.9055 13.5156 22.8117 13.6649 22.6823 13.7795L20.844 15.4033C20.6583 15.5674 20.5096 15.7691 20.4078 15.995C20.3059 16.221 20.2532 16.466 20.2531 16.7138V17.1447C20.2526 17.3992 20.3161 17.6497 20.4379 17.8732C20.5597 18.0966 20.7358 18.2858 20.95 18.4233C21.0575 18.4924 21.1481 18.5849 21.2147 18.694C21.2814 18.803 21.3225 18.9258 21.335 19.053L21.378 19.4832C21.4116 19.8302 21.5735 20.1522 21.832 20.3862C22.0905 20.6201 22.427 20.7492 22.7756 20.7482H23.8518C24.2963 20.7481 24.7311 20.6186 25.1032 20.3756C25.4753 20.1325 25.7685 19.7864 25.9472 19.3794L26.0118 19.2322C26.0757 19.0852 26.1797 18.9591 26.312 18.8684C26.4442 18.7776 26.5993 18.726 26.7595 18.7194L27.0128 18.7078C27.0535 18.7059 27.0941 18.703 27.1346 18.6989L27.5833 18.6538C27.1273 25.3312 21.55 30.625 14.7589 30.625C7.67039 30.625 1.90345 24.858 1.90345 17.7695C1.90328 16.8599 1.99965 15.9529 2.19095 15.0636L2.8937 14.925C3.20379 14.8638 3.52523 14.901 3.81318 15.0313C4.10113 15.1616 4.34122 15.3785 4.49995 15.6519C4.6488 15.9082 4.83406 16.1416 5.04995 16.3447L6.07101 17.3062C6.34319 17.562 6.67383 17.7472 7.03408 17.8457L7.1532 17.8782C7.37354 17.9389 7.57445 18.0555 7.7364 18.2168C7.89835 18.378 8.01584 18.5784 8.07745 18.7985L8.62495 20.7737C8.71599 21.1032 8.86945 21.4122 9.07701 21.6838L10.736 23.8588C10.8689 24.0333 10.9572 24.2375 10.9935 24.4538L11.4463 27.1706C11.4741 27.3395 11.5399 27.4999 11.6386 27.6397C11.7374 27.7796 11.8665 27.8952 12.0164 27.9779C12.1663 28.0606 12.333 28.1083 12.5039 28.1173C12.6749 28.1263 12.8456 28.0964 13.0034 28.0299C13.254 27.9249 13.4717 27.7544 13.6337 27.5362C13.7956 27.318 13.8957 27.0601 13.9236 26.7899C13.9653 26.3824 14.1277 25.9967 14.3898 25.682L14.8705 25.1039C15.019 24.9257 15.1305 24.7197 15.1986 24.498L15.6924 22.8957C15.7919 22.5707 15.9905 22.285 16.2605 22.0785L17.743 20.9401C17.8776 20.8368 17.9897 20.7072 18.0727 20.5591C18.1556 20.4111 18.2077 20.2478 18.2256 20.0791C18.2435 19.9104 18.2269 19.7398 18.1769 19.5777C18.1268 19.4155 18.0444 19.2653 17.9345 19.136L16.9562 17.9852C16.9113 17.9324 16.868 17.8769 16.8274 17.8204L16.0581 16.7482C15.7969 16.3848 15.456 16.0859 15.0617 15.8743C14.6673 15.6627 14.2299 15.5439 13.7826 15.527L12.34 14.6614C12.0088 14.464 11.6322 14.3553 11.2467 14.3459C10.8612 14.3366 10.4798 14.4268 10.1394 14.608L9.33408 15.0392C9.14857 15.1378 8.93274 15.1628 8.72958 15.1094C8.52642 15.056 8.35085 14.928 8.23783 14.7509L7.45564 13.5157C7.35655 13.3594 7.30528 13.1775 7.30813 12.9924C7.31099 12.8073 7.36784 12.627 7.4717 12.4738C7.59303 12.2937 7.76212 12.1509 7.96003 12.0615C8.15794 11.9721 8.37684 11.9395 8.5922 11.9675L9.7762 12.118C10.1265 12.1627 10.4822 12.1036 10.7992 11.9479C11.1162 11.7923 11.3805 11.547 11.5593 11.2425C11.6688 11.056 11.8306 10.9059 12.0247 10.8107C12.2188 10.7154 12.4366 10.6794 12.651 10.7069L13.1638 10.7724C13.4736 10.8112 13.7881 10.7686 14.0765 10.6489C14.3648 10.5292 14.617 10.3365 14.8082 10.0897L15.2603 9.5031C15.5572 9.11995 15.7239 8.65195 15.7361 8.16737C15.7483 7.6828 15.6054 7.20699 15.3282 6.80935L14.0288 4.93535C14.2705 4.92173 14.5138 4.91416 14.7589 4.91416C17.0139 4.91317 19.2294 5.50556 21.183 6.63185L21.5584 5.9826C19.7508 4.93996 17.7276 4.32706 15.6453 4.1913C13.5629 4.05554 11.4773 4.40056 9.54961 5.19967C7.62193 5.99878 5.90389 7.23057 4.52835 8.79978C3.15281 10.369 2.15663 12.2335 1.61687 14.2493C1.0771 16.265 1.00821 18.3779 1.41551 20.4245C1.82282 22.4711 2.69541 24.3966 3.9658 26.0521C5.2362 27.7076 6.87035 29.0487 8.74187 29.9717C10.6134 30.8946 12.6721 31.3748 14.7589 31.375V31.375ZM13.1695 5.01248L14.7119 7.23673C14.898 7.5037 14.994 7.82315 14.9857 8.14849C14.9775 8.47383 14.8656 8.78804 14.6663 9.04529L14.2142 9.63179C14.1031 9.77521 13.9566 9.88722 13.7891 9.95679C13.6216 10.0264 13.4388 10.0511 13.2588 10.0285L12.7463 9.96298C12.3862 9.91677 12.0204 9.97739 11.6945 10.1373C11.3685 10.2972 11.0967 10.5494 10.9128 10.8625C10.8083 11.0404 10.6539 11.1838 10.4686 11.2747C10.2834 11.3657 10.0755 11.4002 9.87083 11.374L8.68676 11.2237C8.33386 11.1777 7.97513 11.2311 7.65085 11.3777C7.32656 11.5243 7.04955 11.7583 6.85089 12.0536C6.66512 12.3277 6.56345 12.6501 6.55834 12.9812C6.55323 13.3124 6.64492 13.6377 6.82214 13.9175L7.60433 15.1526C7.81919 15.4892 8.15297 15.7326 8.53918 15.8342C8.9254 15.9357 9.3357 15.8881 9.68839 15.7008L10.4937 15.2695C10.7196 15.1493 10.9728 15.0894 11.2286 15.0956C11.4845 15.1018 11.7344 15.1739 11.9543 15.305L13.4826 16.222C13.5409 16.257 13.6076 16.2755 13.6756 16.2755C14.0221 16.2759 14.3636 16.3586 14.6719 16.5169C14.9802 16.6751 15.2465 16.9044 15.4489 17.1857L16.2181 18.258C16.2706 18.3312 16.3267 18.403 16.3849 18.4714L17.3632 19.6223C17.4073 19.6741 17.4403 19.7344 17.4604 19.7994C17.4804 19.8645 17.4871 19.9329 17.4799 20.0005C17.4727 20.0682 17.4519 20.1337 17.4186 20.1931C17.3853 20.2524 17.3404 20.3044 17.2864 20.3459L15.8038 21.4843C15.4104 21.7852 15.121 22.2015 14.9758 22.675L14.482 24.2773C14.443 24.4044 14.3791 24.5225 14.294 24.6246L13.8133 25.2027C13.4559 25.6317 13.2346 26.1575 13.1777 26.7129C13.1636 26.8493 13.1131 26.9793 13.0314 27.0894C12.9497 27.1995 12.8399 27.2856 12.7135 27.3385C12.66 27.361 12.6022 27.371 12.5444 27.3679C12.4865 27.3648 12.4301 27.3486 12.3794 27.3207C12.3287 27.2927 12.285 27.2536 12.2515 27.2063C12.2181 27.159 12.1957 27.1047 12.1862 27.0476L11.7334 24.3307C11.6769 23.9939 11.5394 23.6759 11.3325 23.4042L9.67345 21.2292C9.52397 21.0336 9.41343 20.811 9.34783 20.5737L8.80033 18.5982C8.70371 18.2529 8.5194 17.9385 8.26532 17.6855C8.01124 17.4325 7.69603 17.2495 7.35033 17.1544L7.23126 17.1219C6.98947 17.0557 6.76753 16.9314 6.58483 16.7598L5.56358 15.7985C5.40052 15.6451 5.2606 15.4689 5.1482 15.2752C4.911 14.8669 4.55227 14.5428 4.12203 14.348C3.6918 14.1533 3.21153 14.0978 2.7482 14.1891L2.39045 14.2597C3.7812 9.36548 8.00576 5.65198 13.1695 5.01248V5.01248Z"/>
</mask>
<path d="M14.7589 31.375C17.057 31.374 19.3174 30.7911 21.3295 29.6808C23.3416 28.5704 25.0397 26.9687 26.2657 25.0249C27.4917 23.0811 28.2055 20.8586 28.3407 18.5644C28.4759 16.2703 28.028 13.9793 27.0388 11.905L26.3625 12.2287C27.1916 13.9579 27.6195 15.8519 27.6145 17.7695C27.6145 17.8122 27.6133 17.8547 27.6128 17.8972L27.0596 17.9529C27.0325 17.9556 27.0053 17.9575 26.9784 17.9591L26.7255 17.9705C26.4254 17.983 26.1349 18.0797 25.8872 18.2496C25.6395 18.4195 25.4446 18.6557 25.325 18.9312L25.2603 19.0784C25.1402 19.352 24.943 19.5846 24.6929 19.748C24.4428 19.9114 24.1505 19.9984 23.8517 19.9984H22.7757C22.6132 19.9989 22.4564 19.9387 22.336 19.8297C22.2155 19.7207 22.14 19.5706 22.1243 19.4089L22.0813 18.9787C22.0579 18.7392 21.9806 18.5081 21.8551 18.3028C21.7296 18.0975 21.5591 17.9233 21.3566 17.7934C21.2481 17.7236 21.1588 17.6277 21.097 17.5144C21.0353 17.4011 21.0031 17.2741 21.0034 17.145V16.7142C21.0034 16.5726 21.0335 16.4327 21.0917 16.3037C21.1499 16.1747 21.2348 16.0595 21.3409 15.9658L23.1792 14.342C23.416 14.1321 23.5878 13.8588 23.6742 13.5543C23.7606 13.2499 23.758 12.9271 23.6667 12.6241C23.5716 12.3108 23.3876 12.0318 23.1371 11.8211C22.8866 11.6103 22.5803 11.4767 22.2553 11.4366L22.0698 11.4138C21.8105 11.382 21.572 11.2557 21.4001 11.059C21.3088 10.9549 21.2522 10.825 21.2379 10.6873C21.2237 10.5495 21.2527 10.4108 21.3208 10.2902L22.45 8.36004L21.8024 7.98123L20.6711 9.91466C20.5249 10.1709 20.4622 10.4663 20.4916 10.7598C20.521 11.0533 20.6412 11.3304 20.8354 11.5525C21.1287 11.888 21.5355 12.1035 21.9779 12.1577L22.1635 12.1806C22.3442 12.2029 22.5146 12.2772 22.654 12.3945C22.7934 12.5118 22.8957 12.667 22.9486 12.8413C22.9984 13.0068 22.9999 13.1831 22.9527 13.3493C22.9055 13.5156 22.8117 13.6649 22.6823 13.7795L20.844 15.4033C20.6583 15.5674 20.5096 15.7691 20.4078 15.995C20.3059 16.221 20.2532 16.466 20.2531 16.7138V17.1447C20.2526 17.3992 20.3161 17.6497 20.4379 17.8732C20.5597 18.0966 20.7358 18.2858 20.95 18.4233C21.0575 18.4924 21.1481 18.5849 21.2147 18.694C21.2814 18.803 21.3225 18.9258 21.335 19.053L21.378 19.4832C21.4116 19.8302 21.5735 20.1522 21.832 20.3862C22.0905 20.6201 22.427 20.7492 22.7756 20.7482H23.8518C24.2963 20.7481 24.7311 20.6186 25.1032 20.3756C25.4753 20.1325 25.7685 19.7864 25.9472 19.3794L26.0118 19.2322C26.0757 19.0852 26.1797 18.9591 26.312 18.8684C26.4442 18.7776 26.5993 18.726 26.7595 18.7194L27.0128 18.7078C27.0535 18.7059 27.0941 18.703 27.1346 18.6989L27.5833 18.6538C27.1273 25.3312 21.55 30.625 14.7589 30.625C7.67039 30.625 1.90345 24.858 1.90345 17.7695C1.90328 16.8599 1.99965 15.9529 2.19095 15.0636L2.8937 14.925C3.20379 14.8638 3.52523 14.901 3.81318 15.0313C4.10113 15.1616 4.34122 15.3785 4.49995 15.6519C4.6488 15.9082 4.83406 16.1416 5.04995 16.3447L6.07101 17.3062C6.34319 17.562 6.67383 17.7472 7.03408 17.8457L7.1532 17.8782C7.37354 17.9389 7.57445 18.0555 7.7364 18.2168C7.89835 18.378 8.01584 18.5784 8.07745 18.7985L8.62495 20.7737C8.71599 21.1032 8.86945 21.4122 9.07701 21.6838L10.736 23.8588C10.8689 24.0333 10.9572 24.2375 10.9935 24.4538L11.4463 27.1706C11.4741 27.3395 11.5399 27.4999 11.6386 27.6397C11.7374 27.7796 11.8665 27.8952 12.0164 27.9779C12.1663 28.0606 12.333 28.1083 12.5039 28.1173C12.6749 28.1263 12.8456 28.0964 13.0034 28.0299C13.254 27.9249 13.4717 27.7544 13.6337 27.5362C13.7956 27.318 13.8957 27.0601 13.9236 26.7899C13.9653 26.3824 14.1277 25.9967 14.3898 25.682L14.8705 25.1039C15.019 24.9257 15.1305 24.7197 15.1986 24.498L15.6924 22.8957C15.7919 22.5707 15.9905 22.285 16.2605 22.0785L17.743 20.9401C17.8776 20.8368 17.9897 20.7072 18.0727 20.5591C18.1556 20.4111 18.2077 20.2478 18.2256 20.0791C18.2435 19.9104 18.2269 19.7398 18.1769 19.5777C18.1268 19.4155 18.0444 19.2653 17.9345 19.136L16.9562 17.9852C16.9113 17.9324 16.868 17.8769 16.8274 17.8204L16.0581 16.7482C15.7969 16.3848 15.456 16.0859 15.0617 15.8743C14.6673 15.6627 14.2299 15.5439 13.7826 15.527L12.34 14.6614C12.0088 14.464 11.6322 14.3553 11.2467 14.3459C10.8612 14.3366 10.4798 14.4268 10.1394 14.608L9.33408 15.0392C9.14857 15.1378 8.93274 15.1628 8.72958 15.1094C8.52642 15.056 8.35085 14.928 8.23783 14.7509L7.45564 13.5157C7.35655 13.3594 7.30528 13.1775 7.30813 12.9924C7.31099 12.8073 7.36784 12.627 7.4717 12.4738C7.59303 12.2937 7.76212 12.1509 7.96003 12.0615C8.15794 11.9721 8.37684 11.9395 8.5922 11.9675L9.7762 12.118C10.1265 12.1627 10.4822 12.1036 10.7992 11.9479C11.1162 11.7923 11.3805 11.547 11.5593 11.2425C11.6688 11.056 11.8306 10.9059 12.0247 10.8107C12.2188 10.7154 12.4366 10.6794 12.651 10.7069L13.1638 10.7724C13.4736 10.8112 13.7881 10.7686 14.0765 10.6489C14.3648 10.5292 14.617 10.3365 14.8082 10.0897L15.2603 9.5031C15.5572 9.11995 15.7239 8.65195 15.7361 8.16737C15.7483 7.6828 15.6054 7.20699 15.3282 6.80935L14.0288 4.93535C14.2705 4.92173 14.5138 4.91416 14.7589 4.91416C17.0139 4.91317 19.2294 5.50556 21.183 6.63185L21.5584 5.9826C19.7508 4.93996 17.7276 4.32706 15.6453 4.1913C13.5629 4.05554 11.4773 4.40056 9.54961 5.19967C7.62193 5.99878 5.90389 7.23057 4.52835 8.79978C3.15281 10.369 2.15663 12.2335 1.61687 14.2493C1.0771 16.265 1.00821 18.3779 1.41551 20.4245C1.82282 22.4711 2.69541 24.3966 3.9658 26.0521C5.2362 27.7076 6.87035 29.0487 8.74187 29.9717C10.6134 30.8946 12.6721 31.3748 14.7589 31.375V31.375ZM13.1695 5.01248L14.7119 7.23673C14.898 7.5037 14.994 7.82315 14.9857 8.14849C14.9775 8.47383 14.8656 8.78804 14.6663 9.04529L14.2142 9.63179C14.1031 9.77521 13.9566 9.88722 13.7891 9.95679C13.6216 10.0264 13.4388 10.0511 13.2588 10.0285L12.7463 9.96298C12.3862 9.91677 12.0204 9.97739 11.6945 10.1373C11.3685 10.2972 11.0967 10.5494 10.9128 10.8625C10.8083 11.0404 10.6539 11.1838 10.4686 11.2747C10.2834 11.3657 10.0755 11.4002 9.87083 11.374L8.68676 11.2237C8.33386 11.1777 7.97513 11.2311 7.65085 11.3777C7.32656 11.5243 7.04955 11.7583 6.85089 12.0536C6.66512 12.3277 6.56345 12.6501 6.55834 12.9812C6.55323 13.3124 6.64492 13.6377 6.82214 13.9175L7.60433 15.1526C7.81919 15.4892 8.15297 15.7326 8.53918 15.8342C8.9254 15.9357 9.3357 15.8881 9.68839 15.7008L10.4937 15.2695C10.7196 15.1493 10.9728 15.0894 11.2286 15.0956C11.4845 15.1018 11.7344 15.1739 11.9543 15.305L13.4826 16.222C13.5409 16.257 13.6076 16.2755 13.6756 16.2755C14.0221 16.2759 14.3636 16.3586 14.6719 16.5169C14.9802 16.6751 15.2465 16.9044 15.4489 17.1857L16.2181 18.258C16.2706 18.3312 16.3267 18.403 16.3849 18.4714L17.3632 19.6223C17.4073 19.6741 17.4403 19.7344 17.4604 19.7994C17.4804 19.8645 17.4871 19.9329 17.4799 20.0005C17.4727 20.0682 17.4519 20.1337 17.4186 20.1931C17.3853 20.2524 17.3404 20.3044 17.2864 20.3459L15.8038 21.4843C15.4104 21.7852 15.121 22.2015 14.9758 22.675L14.482 24.2773C14.443 24.4044 14.3791 24.5225 14.294 24.6246L13.8133 25.2027C13.4559 25.6317 13.2346 26.1575 13.1777 26.7129C13.1636 26.8493 13.1131 26.9793 13.0314 27.0894C12.9497 27.1995 12.8399 27.2856 12.7135 27.3385C12.66 27.361 12.6022 27.371 12.5444 27.3679C12.4865 27.3648 12.4301 27.3486 12.3794 27.3207C12.3287 27.2927 12.285 27.2536 12.2515 27.2063C12.2181 27.159 12.1957 27.1047 12.1862 27.0476L11.7334 24.3307C11.6769 23.9939 11.5394 23.6759 11.3325 23.4042L9.67345 21.2292C9.52397 21.0336 9.41343 20.811 9.34783 20.5737L8.80033 18.5982C8.70371 18.2529 8.5194 17.9385 8.26532 17.6855C8.01124 17.4325 7.69603 17.2495 7.35033 17.1544L7.23126 17.1219C6.98947 17.0557 6.76753 16.9314 6.58483 16.7598L5.56358 15.7985C5.40052 15.6451 5.2606 15.4689 5.1482 15.2752C4.911 14.8669 4.55227 14.5428 4.12203 14.348C3.6918 14.1533 3.21153 14.0978 2.7482 14.1891L2.39045 14.2597C3.7812 9.36548 8.00576 5.65198 13.1695 5.01248V5.01248Z" fill="#1B3281"/>
<path d="M14.7589 31.375C17.057 31.374 19.3174 30.7911 21.3295 29.6808C23.3416 28.5704 25.0397 26.9687 26.2657 25.0249C27.4917 23.0811 28.2055 20.8586 28.3407 18.5644C28.4759 16.2703 28.028 13.9793 27.0388 11.905L26.3625 12.2287C27.1916 13.9579 27.6195 15.8519 27.6145 17.7695C27.6145 17.8122 27.6133 17.8547 27.6128 17.8972L27.0596 17.9529C27.0325 17.9556 27.0053 17.9575 26.9784 17.9591L26.7255 17.9705C26.4254 17.983 26.1349 18.0797 25.8872 18.2496C25.6395 18.4195 25.4446 18.6557 25.325 18.9312L25.2603 19.0784C25.1402 19.352 24.943 19.5846 24.6929 19.748C24.4428 19.9114 24.1505 19.9984 23.8517 19.9984H22.7757C22.6132 19.9989 22.4564 19.9387 22.336 19.8297C22.2155 19.7207 22.14 19.5706 22.1243 19.4089L22.0813 18.9787C22.0579 18.7392 21.9806 18.5081 21.8551 18.3028C21.7296 18.0975 21.5591 17.9233 21.3566 17.7934C21.2481 17.7236 21.1588 17.6277 21.097 17.5144C21.0353 17.4011 21.0031 17.2741 21.0034 17.145V16.7142C21.0034 16.5726 21.0335 16.4327 21.0917 16.3037C21.1499 16.1747 21.2348 16.0595 21.3409 15.9658L23.1792 14.342C23.416 14.1321 23.5878 13.8588 23.6742 13.5543C23.7606 13.2499 23.758 12.9271 23.6667 12.6241C23.5716 12.3108 23.3876 12.0318 23.1371 11.8211C22.8866 11.6103 22.5803 11.4767 22.2553 11.4366L22.0698 11.4138C21.8105 11.382 21.572 11.2557 21.4001 11.059C21.3088 10.9549 21.2522 10.825 21.2379 10.6873C21.2237 10.5495 21.2527 10.4108 21.3208 10.2902L22.45 8.36004L21.8024 7.98123L20.6711 9.91466C20.5249 10.1709 20.4622 10.4663 20.4916 10.7598C20.521 11.0533 20.6412 11.3304 20.8354 11.5525C21.1287 11.888 21.5355 12.1035 21.9779 12.1577L22.1635 12.1806C22.3442 12.2029 22.5146 12.2772 22.654 12.3945C22.7934 12.5118 22.8957 12.667 22.9486 12.8413C22.9984 13.0068 22.9999 13.1831 22.9527 13.3493C22.9055 13.5156 22.8117 13.6649 22.6823 13.7795L20.844 15.4033C20.6583 15.5674 20.5096 15.7691 20.4078 15.995C20.3059 16.221 20.2532 16.466 20.2531 16.7138V17.1447C20.2526 17.3992 20.3161 17.6497 20.4379 17.8732C20.5597 18.0966 20.7358 18.2858 20.95 18.4233C21.0575 18.4924 21.1481 18.5849 21.2147 18.694C21.2814 18.803 21.3225 18.9258 21.335 19.053L21.378 19.4832C21.4116 19.8302 21.5735 20.1522 21.832 20.3862C22.0905 20.6201 22.427 20.7492 22.7756 20.7482H23.8518C24.2963 20.7481 24.7311 20.6186 25.1032 20.3756C25.4753 20.1325 25.7685 19.7864 25.9472 19.3794L26.0118 19.2322C26.0757 19.0852 26.1797 18.9591 26.312 18.8684C26.4442 18.7776 26.5993 18.726 26.7595 18.7194L27.0128 18.7078C27.0535 18.7059 27.0941 18.703 27.1346 18.6989L27.5833 18.6538C27.1273 25.3312 21.55 30.625 14.7589 30.625C7.67039 30.625 1.90345 24.858 1.90345 17.7695C1.90328 16.8599 1.99965 15.9529 2.19095 15.0636L2.8937 14.925C3.20379 14.8638 3.52523 14.901 3.81318 15.0313C4.10113 15.1616 4.34122 15.3785 4.49995 15.6519C4.6488 15.9082 4.83406 16.1416 5.04995 16.3447L6.07101 17.3062C6.34319 17.562 6.67383 17.7472 7.03408 17.8457L7.1532 17.8782C7.37354 17.9389 7.57445 18.0555 7.7364 18.2168C7.89835 18.378 8.01584 18.5784 8.07745 18.7985L8.62495 20.7737C8.71599 21.1032 8.86945 21.4122 9.07701 21.6838L10.736 23.8588C10.8689 24.0333 10.9572 24.2375 10.9935 24.4538L11.4463 27.1706C11.4741 27.3395 11.5399 27.4999 11.6386 27.6397C11.7374 27.7796 11.8665 27.8952 12.0164 27.9779C12.1663 28.0606 12.333 28.1083 12.5039 28.1173C12.6749 28.1263 12.8456 28.0964 13.0034 28.0299C13.254 27.9249 13.4717 27.7544 13.6337 27.5362C13.7956 27.318 13.8957 27.0601 13.9236 26.7899C13.9653 26.3824 14.1277 25.9967 14.3898 25.682L14.8705 25.1039C15.019 24.9257 15.1305 24.7197 15.1986 24.498L15.6924 22.8957C15.7919 22.5707 15.9905 22.285 16.2605 22.0785L17.743 20.9401C17.8776 20.8368 17.9897 20.7072 18.0727 20.5591C18.1556 20.4111 18.2077 20.2478 18.2256 20.0791C18.2435 19.9104 18.2269 19.7398 18.1769 19.5777C18.1268 19.4155 18.0444 19.2653 17.9345 19.136L16.9562 17.9852C16.9113 17.9324 16.868 17.8769 16.8274 17.8204L16.0581 16.7482C15.7969 16.3848 15.456 16.0859 15.0617 15.8743C14.6673 15.6627 14.2299 15.5439 13.7826 15.527L12.34 14.6614C12.0088 14.464 11.6322 14.3553 11.2467 14.3459C10.8612 14.3366 10.4798 14.4268 10.1394 14.608L9.33408 15.0392C9.14857 15.1378 8.93274 15.1628 8.72958 15.1094C8.52642 15.056 8.35085 14.928 8.23783 14.7509L7.45564 13.5157C7.35655 13.3594 7.30528 13.1775 7.30813 12.9924C7.31099 12.8073 7.36784 12.627 7.4717 12.4738C7.59303 12.2937 7.76212 12.1509 7.96003 12.0615C8.15794 11.9721 8.37684 11.9395 8.5922 11.9675L9.7762 12.118C10.1265 12.1627 10.4822 12.1036 10.7992 11.9479C11.1162 11.7923 11.3805 11.547 11.5593 11.2425C11.6688 11.056 11.8306 10.9059 12.0247 10.8107C12.2188 10.7154 12.4366 10.6794 12.651 10.7069L13.1638 10.7724C13.4736 10.8112 13.7881 10.7686 14.0765 10.6489C14.3648 10.5292 14.617 10.3365 14.8082 10.0897L15.2603 9.5031C15.5572 9.11995 15.7239 8.65195 15.7361 8.16737C15.7483 7.6828 15.6054 7.20699 15.3282 6.80935L14.0288 4.93535C14.2705 4.92173 14.5138 4.91416 14.7589 4.91416C17.0139 4.91317 19.2294 5.50556 21.183 6.63185L21.5584 5.9826C19.7508 4.93996 17.7276 4.32706 15.6453 4.1913C13.5629 4.05554 11.4773 4.40056 9.54961 5.19967C7.62193 5.99878 5.90389 7.23057 4.52835 8.79978C3.15281 10.369 2.15663 12.2335 1.61687 14.2493C1.0771 16.265 1.00821 18.3779 1.41551 20.4245C1.82282 22.4711 2.69541 24.3966 3.9658 26.0521C5.2362 27.7076 6.87035 29.0487 8.74187 29.9717C10.6134 30.8946 12.6721 31.3748 14.7589 31.375V31.375ZM13.1695 5.01248L14.7119 7.23673C14.898 7.5037 14.994 7.82315 14.9857 8.14849C14.9775 8.47383 14.8656 8.78804 14.6663 9.04529L14.2142 9.63179C14.1031 9.77521 13.9566 9.88722 13.7891 9.95679C13.6216 10.0264 13.4388 10.0511 13.2588 10.0285L12.7463 9.96298C12.3862 9.91677 12.0204 9.97739 11.6945 10.1373C11.3685 10.2972 11.0967 10.5494 10.9128 10.8625C10.8083 11.0404 10.6539 11.1838 10.4686 11.2747C10.2834 11.3657 10.0755 11.4002 9.87083 11.374L8.68676 11.2237C8.33386 11.1777 7.97513 11.2311 7.65085 11.3777C7.32656 11.5243 7.04955 11.7583 6.85089 12.0536C6.66512 12.3277 6.56345 12.6501 6.55834 12.9812C6.55323 13.3124 6.64492 13.6377 6.82214 13.9175L7.60433 15.1526C7.81919 15.4892 8.15297 15.7326 8.53918 15.8342C8.9254 15.9357 9.3357 15.8881 9.68839 15.7008L10.4937 15.2695C10.7196 15.1493 10.9728 15.0894 11.2286 15.0956C11.4845 15.1018 11.7344 15.1739 11.9543 15.305L13.4826 16.222C13.5409 16.257 13.6076 16.2755 13.6756 16.2755C14.0221 16.2759 14.3636 16.3586 14.6719 16.5169C14.9802 16.6751 15.2465 16.9044 15.4489 17.1857L16.2181 18.258C16.2706 18.3312 16.3267 18.403 16.3849 18.4714L17.3632 19.6223C17.4073 19.6741 17.4403 19.7344 17.4604 19.7994C17.4804 19.8645 17.4871 19.9329 17.4799 20.0005C17.4727 20.0682 17.4519 20.1337 17.4186 20.1931C17.3853 20.2524 17.3404 20.3044 17.2864 20.3459L15.8038 21.4843C15.4104 21.7852 15.121 22.2015 14.9758 22.675L14.482 24.2773C14.443 24.4044 14.3791 24.5225 14.294 24.6246L13.8133 25.2027C13.4559 25.6317 13.2346 26.1575 13.1777 26.7129C13.1636 26.8493 13.1131 26.9793 13.0314 27.0894C12.9497 27.1995 12.8399 27.2856 12.7135 27.3385C12.66 27.361 12.6022 27.371 12.5444 27.3679C12.4865 27.3648 12.4301 27.3486 12.3794 27.3207C12.3287 27.2927 12.285 27.2536 12.2515 27.2063C12.2181 27.159 12.1957 27.1047 12.1862 27.0476L11.7334 24.3307C11.6769 23.9939 11.5394 23.6759 11.3325 23.4042L9.67345 21.2292C9.52397 21.0336 9.41343 20.811 9.34783 20.5737L8.80033 18.5982C8.70371 18.2529 8.5194 17.9385 8.26532 17.6855C8.01124 17.4325 7.69603 17.2495 7.35033 17.1544L7.23126 17.1219C6.98947 17.0557 6.76753 16.9314 6.58483 16.7598L5.56358 15.7985C5.40052 15.6451 5.2606 15.4689 5.1482 15.2752C4.911 14.8669 4.55227 14.5428 4.12203 14.348C3.6918 14.1533 3.21153 14.0978 2.7482 14.1891L2.39045 14.2597C3.7812 9.36548 8.00576 5.65198 13.1695 5.01248V5.01248Z" stroke="#1B3281" stroke-width="0.4" mask="url(#path-1-outside-1)"/>
<path d="M22.3515 1.99276L22.3514 1.99288C21.4519 2.89973 20.9113 4.10179 20.8298 5.37654C20.7504 6.56798 21.128 7.79824 21.8917 8.84547L21.8917 8.84548L21.8924 8.84645L25.5024 13.6725L25.5824 13.6126L25.5024 13.6725C25.5466 13.7316 25.604 13.7796 25.67 13.8126C25.736 13.8457 25.8089 13.8629 25.8827 13.8629C25.9566 13.8629 26.0294 13.8457 26.0954 13.8126C26.1614 13.7796 26.2188 13.7316 26.2631 13.6725L26.183 13.6126L26.2631 13.6725L29.8727 8.84693C30.6396 7.82447 31.018 6.59217 30.9357 5.37731C30.8543 4.10229 30.3137 2.89993 29.414 1.99288L29.343 2.0633L29.4139 1.99276C28.951 1.5276 28.4007 1.15847 27.7947 0.906597C27.1887 0.654723 26.539 0.525061 25.8827 0.525061C25.2265 0.525061 24.5767 0.654723 23.9707 0.906597C23.3647 1.15847 22.8145 1.5276 22.3515 1.99276ZM21.7778 5.43926L21.7778 5.43896C21.8443 4.3932 22.2874 3.40695 23.0252 2.66285C23.3999 2.28647 23.8451 1.98781 24.3355 1.78401C24.8259 1.58022 25.3517 1.47531 25.8827 1.47531C26.4138 1.47531 26.9396 1.58022 27.43 1.78401C27.9203 1.98781 28.3656 2.28647 28.7402 2.66285C29.4782 3.4072 29.9214 4.39372 29.9879 5.43977L29.9879 5.44021C30.0549 6.42622 29.7449 7.43399 29.1124 8.27756L29.1924 8.33755L29.1124 8.27765L25.8827 12.5952L22.6565 8.28232C22.6564 8.28215 22.6563 8.28199 22.6562 8.28182C22.0237 7.41425 21.7134 6.40449 21.7778 5.43926Z" fill="#ED1C24" stroke="#ED1C24" stroke-width="0.2"/>
<path d="M28.2195 5.68602V5.68591C28.2188 5.0513 27.9663 4.44289 27.5176 3.99415C27.0689 3.54542 26.4605 3.293 25.8258 3.29227L25.8257 3.39227V3.29227C25.3523 3.29227 24.8895 3.43266 24.4958 3.69569C24.1022 3.95872 23.7954 4.33257 23.6142 4.76997C23.433 5.20738 23.3856 5.68868 23.478 6.15302C23.5703 6.61736 23.7983 7.04389 24.1331 7.37866C24.4679 7.71343 24.8944 7.94141 25.3587 8.03378C25.8231 8.12614 26.3044 8.07874 26.7418 7.89756C27.1792 7.71638 27.553 7.40957 27.8161 7.01592C28.0791 6.62227 28.2195 6.15946 28.2195 5.68602ZM27.2695 5.6858V5.68604C27.2694 5.87617 27.2315 6.06438 27.1581 6.23975C27.0847 6.41512 26.9771 6.57415 26.8417 6.70761L26.9119 6.77884L26.8416 6.70779C26.6042 6.94285 26.2928 7.08838 25.9602 7.1196C25.6276 7.15083 25.2945 7.06582 25.0176 6.87904C24.7406 6.69226 24.537 6.41527 24.4414 6.09523C24.3457 5.77519 24.3639 5.43189 24.4929 5.12378C24.622 4.81566 24.8538 4.5618 25.1489 4.4054C25.4441 4.249 25.7843 4.19974 26.1117 4.26601C26.4391 4.33228 26.7334 4.50998 26.9445 4.76885C27.1556 5.02773 27.2705 5.35177 27.2695 5.6858Z" fill="#ED1C24" stroke="#ED1C24" stroke-width="0.2"/>
</svg>
