<svg width="32" height="34" viewBox="0 0 32 34" fill="none" xmlns="http://www.w3.org/2000/svg">
<path d="M28.1966 28.3278V12.459C28.1966 9.14409 26.8971 6.01899 24.5374 3.65926C22.1776 1.29954 19.0525 0 15.7377 0C13.391 0 11.1 0.664128 9.11258 1.92052C8.80648 2.11409 8.71521 2.51914 8.90871 2.82523C9.10229 3.13127 9.50733 3.22274 9.81343 3.0291C11.5909 1.90543 13.6394 1.31147 15.7377 1.31147C21.8844 1.31147 26.8852 6.31224 26.8852 12.459V28.3278H4.59017V12.459C4.59017 10.3604 5.18414 8.31177 6.30781 6.53466C6.50131 6.22856 6.41017 5.82352 6.10407 5.62994C5.79777 5.43631 5.39286 5.52765 5.19935 5.83368C3.94283 7.82095 3.2787 10.1119 3.2787 12.459V28.3278C1.83241 28.3278 0.655762 29.5045 0.655762 30.9508V32.918C0.655762 33.2801 0.9494 33.5738 1.3115 33.5738H30.1638C30.5259 33.5738 30.8196 33.2801 30.8196 32.918V30.9508C30.8196 29.5045 29.6429 28.3278 28.1966 28.3278ZM29.5081 32.2623H1.96723V30.9508C1.96723 30.2276 2.55556 29.6393 3.2787 29.6393H28.1966C28.9198 29.6393 29.5081 30.2276 29.5081 30.9508V32.2623Z" fill="#1B3281"/>
<path d="M7.3916 4.76845C7.55953 4.76845 7.72747 4.70439 7.85553 4.57632C8.1116 4.32025 8.1116 3.90504 7.85553 3.64891C7.5994 3.39291 7.18432 3.39291 6.92812 3.64891L6.92779 3.64924C6.67172 3.9053 6.67192 4.32032 6.92799 4.57645C7.05605 4.70445 7.22379 4.76845 7.3916 4.76845Z" fill="#1B3281"/>
<path d="M31.4756 3.3443H29.9019V4.39348H31.4756V3.3443Z" fill="#ED1C24"/>
<path d="M29.9017 1.77051H28.8525V3.34428H29.9017V1.77051Z" fill="#ED1C24"/>
<path d="M28.8526 3.3443H27.2788V4.39348H28.8526V3.3443Z" fill="#ED1C24"/>
<path d="M29.9017 4.39343H28.8525V5.9672H29.9017V4.39343Z" fill="#ED1C24"/>
<path d="M4.19682 2.8197H2.62305V3.86888H4.19682V2.8197Z" fill="#ED1C24"/>
<path d="M2.62291 1.24591H1.57373V2.81968H2.62291V1.24591Z" fill="#ED1C24"/>
<path d="M1.57377 2.8197H0V3.86888H1.57377V2.8197Z" fill="#ED1C24"/>
<path d="M2.62291 3.86884H1.57373V5.44261H2.62291V3.86884Z" fill="#ED1C24"/>
<path d="M3.14757 13.3115H2.09839V14.3607H3.14757V13.3115Z" fill="#ED1C24"/>
<path d="M2.09825 12.2623H1.04907V13.3115H2.09825V12.2623Z" fill="#ED1C24"/>
<path d="M1.04918 13.3115H0V14.3607H1.04918V13.3115Z" fill="#ED1C24"/>
<path d="M2.09825 14.3607H1.04907V15.4099H2.09825V14.3607Z" fill="#ED1C24"/>
<path d="M32.0001 13.3115H30.9509V14.3607H32.0001V13.3115Z" fill="#ED1C24"/>
<path d="M30.951 12.2623H29.9019V13.3115H30.951V12.2623Z" fill="#ED1C24"/>
<path d="M29.9017 13.3115H28.8525V14.3607H29.9017V13.3115Z" fill="#ED1C24"/>
<path d="M30.951 14.3607H29.9019V15.4099H30.951V14.3607Z" fill="#ED1C24"/>
<path d="M14.2614 10.8465C12.8865 9.47233 10.196 9.31299 8.29164 9.31299C8.09441 9.31299 7.93433 9.47304 7.93433 9.67027C7.93433 11.5747 8.09297 14.2652 9.46785 15.6401C10.0481 16.2203 10.9378 16.4797 11.8196 16.4797C12.7779 16.4797 13.7276 16.1732 14.2614 15.6394C15.2854 14.6153 15.4734 12.0578 14.2614 10.8465ZM13.7562 15.1348C12.9916 15.8987 10.8685 16.0295 9.97383 15.1348C8.86404 14.0251 8.6718 11.7705 8.65106 10.0297C10.3918 10.0505 12.6464 10.2427 13.7562 11.3525C14.6509 12.2471 14.5201 14.3709 13.7562 15.1348Z" fill="#ED1C24"/>
<path fill-rule="evenodd" clip-rule="evenodd" d="M9.4679 15.6401L9.37516 15.7328C8.66065 15.0183 8.27036 13.9716 8.05684 12.8789C7.84286 11.7837 7.80322 10.6249 7.80322 9.67025C7.80322 9.40057 8.02204 9.18182 8.29168 9.18182C9.24639 9.18182 10.4052 9.22164 11.5003 9.43571C12.593 9.64931 13.6397 10.0396 14.3542 10.7537C14.9942 11.3934 15.2551 12.376 15.2311 13.3165C15.2071 14.2557 14.8979 15.1884 14.3542 15.7321C13.7876 16.2987 12.7991 16.6109 11.8197 16.6109C10.9165 16.6109 9.98813 16.3458 9.37516 15.7328L9.4679 15.6401ZM9.98333 15.1254L10.0666 15.0421C10.478 15.4534 11.19 15.6416 11.9109 15.6257C12.633 15.6097 13.3152 15.39 13.6636 15.042C14.0115 14.6941 14.2311 14.012 14.2471 13.2898C14.2631 12.5687 14.0749 11.8565 13.6635 11.4452L13.6635 11.4452C13.1355 10.9172 12.3245 10.5986 11.4139 10.4111C10.5527 10.2339 9.61837 10.177 8.78419 10.1628C8.79839 10.997 8.85528 11.9313 9.03255 12.7925C9.22 13.7031 9.5386 14.5141 10.0666 15.0421L9.98333 15.1254ZM8.65299 10.1609C8.65225 10.1169 8.65162 10.0731 8.65111 10.0297C8.69452 10.0302 8.73826 10.0308 8.78229 10.0316C10.5036 10.0606 12.6741 10.2703 13.7562 11.3524C14.6509 12.2471 14.5202 14.3709 13.7563 15.1348C12.9916 15.8987 10.8685 16.0295 9.97387 15.1348C8.89176 14.0527 8.682 11.8822 8.65299 10.1609ZM8.29168 9.31297C10.1961 9.31297 12.8866 9.47232 14.2615 10.8465C15.4735 12.0578 15.2855 14.6153 14.2615 15.6394C13.7277 16.1732 12.7779 16.4797 11.8197 16.4797C10.9378 16.4797 10.0482 16.2203 9.4679 15.6401C8.09301 14.2651 7.93437 11.5747 7.93437 9.67025C7.93437 9.47302 8.09445 9.31297 8.29168 9.31297Z" fill="#ED1C24"/>
<path d="M23.3149 10.7265C21.4105 10.7265 18.72 10.8851 17.3451 12.26C16.1331 13.4713 16.3211 16.0289 17.3451 17.0529C17.8789 17.586 18.8279 17.8926 19.7862 17.8926C20.668 17.8926 21.557 17.6339 22.1386 17.0536C23.5128 15.6787 23.6722 12.9883 23.6722 11.0838C23.6722 10.8866 23.5121 10.7265 23.3149 10.7265ZM21.632 16.5477C20.7373 17.4423 18.6135 17.3116 17.8496 16.5477C17.0857 15.7838 16.955 13.6599 17.8496 12.7653C18.9594 11.6555 21.214 11.4633 22.9547 11.4425C22.934 13.184 22.7418 15.4386 21.632 16.5477Z" fill="#ED1C24"/>
<path fill-rule="evenodd" clip-rule="evenodd" d="M17.3451 17.0529C16.3211 16.0288 16.1332 13.4713 17.3451 12.26C18.7201 10.8851 21.4105 10.7265 23.3149 10.7265C23.5122 10.7265 23.6723 10.8866 23.6722 11.0838C23.6722 12.9882 23.5129 15.6787 22.1387 17.0536C21.557 17.6338 20.668 17.8925 19.7862 17.8925C18.828 17.8925 17.8789 17.586 17.3451 17.0529ZM23.8034 11.0838C23.8034 10.8141 23.5846 10.5953 23.3149 10.5953C22.3603 10.5953 21.2015 10.635 20.1063 10.849C19.0136 11.0625 17.967 11.4528 17.2524 12.1673M23.8034 11.0838C23.8034 12.0385 23.7636 13.1973 23.5495 14.2924C23.3359 15.3852 22.9456 16.4318 22.2315 17.1463L22.2313 17.1465C21.617 17.7593 20.6894 18.0237 19.7862 18.0237C18.8067 18.0237 17.819 17.7115 17.2525 17.1457L17.2524 17.1456C16.7087 16.6019 16.3995 15.6692 16.3755 14.73C16.3515 13.7895 16.6124 12.8069 17.2524 12.1673M21.5393 16.4549L21.5394 16.4549C22.0673 15.9272 22.3859 15.1164 22.5734 14.2058C22.7506 13.3446 22.8075 12.4101 22.8217 11.5756C21.9875 11.5898 21.0532 11.6467 20.1921 11.8239C19.2814 12.0114 18.4704 12.33 17.9424 12.858C17.531 13.2693 17.3429 13.9815 17.3588 14.7026C17.3748 15.4248 17.5945 16.107 17.9424 16.4549C18.2903 16.8028 18.9725 17.0225 19.6947 17.0385C20.4158 17.0545 21.128 16.8663 21.5393 16.4549ZM22.8236 11.4444C21.1023 11.4734 18.9318 11.6831 17.8497 12.7652C16.955 13.6599 17.0858 15.7837 17.8497 16.5476C18.6136 17.3115 20.7374 17.4423 21.6321 16.5476C22.7142 15.4662 22.9239 13.2957 22.9529 11.5737C22.9536 11.5297 22.9543 11.4859 22.9548 11.4425C22.9114 11.443 22.8676 11.4437 22.8236 11.4444Z" fill="#ED1C24"/>
<path d="M20.7345 13.8193C20.6502 13.6399 20.4086 13.5785 20.2307 13.6613C17.4902 14.9498 16.1439 17.1965 15.5322 19.5061C14.7754 14.5953 12.5866 13.0982 11.6583 12.463C11.5425 12.3836 11.4525 12.3258 11.4025 12.2764C11.2631 12.1371 11.0366 12.1371 10.8972 12.2764C10.7579 12.4158 10.7579 12.6423 10.8972 12.7817C10.968 12.8517 11.0902 12.9396 11.2553 13.0525C12.3014 13.7678 15.0805 15.6694 15.0805 23.2478C15.0805 23.445 15.2406 23.6051 15.4378 23.6051C15.6351 23.6051 15.7951 23.445 15.7951 23.2485C15.7951 20.1864 16.6177 16.1496 20.5351 14.3088C20.5351 14.3081 20.593 14.2809 20.593 14.2809C20.7709 14.1966 20.8188 13.9979 20.7345 13.8193Z" fill="#ED1C24"/>
<path fill-rule="evenodd" clip-rule="evenodd" d="M10.8973 12.7817C10.7579 12.6423 10.7579 12.4158 10.8973 12.2764C11.0366 12.1371 11.2632 12.1371 11.4025 12.2764C11.4437 12.3171 11.5122 12.3635 11.5998 12.4231C11.6185 12.4357 11.638 12.449 11.6583 12.4629L11.6589 12.4633C12.5677 13.0853 14.683 14.5329 15.482 19.1971C15.4993 19.2985 15.5161 19.4015 15.5322 19.5061C15.5588 19.4055 15.5869 19.3051 15.6163 19.2049C16.2638 17.0027 17.6095 14.8937 20.2307 13.6613C20.4087 13.5785 20.6502 13.6399 20.7345 13.8193C20.8188 13.9979 20.771 14.1966 20.593 14.2809C20.593 14.2809 20.5352 14.3081 20.5352 14.3088C16.6177 16.1496 15.7952 20.1864 15.7952 23.2485C15.7952 23.445 15.6351 23.6051 15.4379 23.6051C15.2406 23.6051 15.0806 23.445 15.0806 23.2477C15.0806 15.6694 12.3015 13.7678 11.2553 13.0525C11.0902 12.9396 10.968 12.8517 10.8973 12.7817ZM15.566 18.9216C16.2484 16.782 17.61 14.7486 20.1749 13.5426L20.1754 13.5424C20.4046 13.4357 20.7318 13.5054 20.8531 13.7633C20.9589 13.9874 20.9088 14.2647 20.6663 14.3909V14.3921L20.5909 14.4275C16.7457 16.2344 15.9263 20.1999 15.9263 23.2485C15.9263 23.5176 15.7074 23.7362 15.4379 23.7362C15.1682 23.7362 14.9494 23.5174 14.9494 23.2477C14.9494 19.4742 14.2575 17.1273 13.4451 15.6393C12.6344 14.1543 11.6982 13.5142 11.1816 13.161L11.1813 13.1607L11.1813 13.1607C11.0186 13.0495 10.8858 12.9548 10.805 12.8749L10.8045 12.8744L10.8045 12.8744C10.614 12.6838 10.614 12.3743 10.8045 12.1837C10.995 11.9933 11.3043 11.9931 11.4949 12.1833C11.5268 12.2147 11.5822 12.2524 11.6691 12.3116C11.6886 12.3248 11.7097 12.3391 11.7324 12.3547C11.7324 12.3547 11.7324 12.3547 11.7324 12.3547C11.7324 12.3547 11.7324 12.3547 11.7325 12.3548L11.7332 12.3553C12.2011 12.6754 12.9954 13.2191 13.7665 14.3053C14.4774 15.3066 15.1644 16.763 15.566 18.9216ZM20.5974 14.4241C20.5974 14.4241 20.5974 14.4241 20.5974 14.4241Z" fill="#ED1C24"/>
<path fill-rule="evenodd" clip-rule="evenodd" d="M9.18038 24.1311V27.3442H21.3115V24.1311H9.18038ZM8.19678 23.9016C8.19678 23.4851 8.5344 23.1475 8.95088 23.1475H21.541C21.9575 23.1475 22.2951 23.4851 22.2951 23.9016V28.3279H8.19678V23.9016Z" fill="#ED1C24"/>
</svg>
