<svg width="32" height="32" viewBox="0 0 32 32" fill="none" xmlns="http://www.w3.org/2000/svg">
<circle cx="16" cy="16" r="16" fill="#F2BC18"/>
<path d="M15.6927 11.0503L14.7664 12.1388L13.4453 12.6836L14.1938 13.9006L14.3035 15.3246L15.6927 14.9886L17.0814 15.3246L17.1911 13.9006L17.9395 12.6836L16.6184 12.1388L15.6927 11.0503ZM16.1732 13.5691L16.1384 14.0265L15.6927 13.9183L15.2475 14.0265L15.2122 13.5691L14.9717 13.179L15.3958 13.0043L15.6927 12.6554L15.9896 13.0043L16.4137 13.179L16.1732 13.5691Z" fill="white"/>
<path d="M15.6497 12.2163L15.2028 12.7415L14.5654 13.0043L14.9265 13.5914L14.9795 14.2785L15.6497 14.1164L16.3197 14.2785L16.3726 13.5914L16.7337 13.0043L16.0963 12.7415L15.6497 12.2163ZM15.8815 13.4315L15.8647 13.6522L15.6497 13.6L15.4349 13.6522L15.4179 13.4315L15.3018 13.2433L15.5065 13.159L15.6497 12.9907L15.7929 13.159L15.9975 13.2433L15.8815 13.4315Z" fill="#F2BC18"/>
<path d="M9.79474 15.5738C9.9075 15.6728 9.97251 15.8153 9.97251 16.0134C9.97251 16.3004 9.73887 16.5335 9.45239 16.5335C9.16592 16.5335 8.93227 16.3004 8.93227 16.0134V15.4933H7.89202V16.0134C7.89202 16.8736 8.59221 17.5738 9.45239 17.5738C10.3126 17.5738 11.0128 16.8736 11.0128 15.9651C11.0128 15.5151 10.8182 15.0872 10.4802 14.7905L7.28504 11.9949C7.00948 11.7546 6.85177 11.4067 6.85177 11.0405C6.85177 10.3415 7.42091 9.7719 8.12034 9.7719H9.02116C9.43563 13.0643 11.3114 16.0571 14.1335 17.8567V23.2951H12.5731C11.1392 23.2951 9.97251 24.4618 9.97251 25.8957V26.4159H21.4152V25.8957C21.4152 24.4618 20.2485 23.2951 18.8146 23.2951H17.2542V17.8567C20.0763 16.0571 21.9514 13.0643 22.3666 9.7719H23.2674C23.9668 9.7719 24.536 10.3415 24.536 11.0405C24.536 11.4062 24.3783 11.7541 24.1027 11.9949L20.9076 14.7905C20.5695 15.0877 20.375 15.5151 20.375 16.0134C20.375 16.8736 21.0752 17.5738 21.9354 17.5738C22.7955 17.5738 23.4957 16.8736 23.4957 16.0134V15.4933H22.4555V16.0134C22.4555 16.3004 22.2218 16.5335 21.9354 16.5335C21.6489 16.5335 21.4152 16.3004 21.4152 15.9651C21.4152 15.8153 21.4803 15.6728 21.593 15.5738L24.7877 12.7781C25.2885 12.3403 25.5762 11.7069 25.5762 11.0405C25.5762 9.76733 24.54 8.73165 23.2674 8.73165H22.4441C22.4476 8.61661 22.4555 8.50283 22.4555 8.38728V7.69141H8.93227V8.38728C8.93227 8.50283 8.94014 8.61661 8.9437 8.73165H8.12034C6.84771 8.73165 5.81152 9.76733 5.81152 11.0405C5.81152 11.7064 6.09927 12.3398 6.60009 12.7781L9.79474 15.5738ZM20.2861 25.3756H11.1017C11.3165 24.7702 11.8948 24.3354 12.5731 24.3354H18.8146C19.493 24.3354 20.0712 24.7702 20.2861 25.3756ZM15.1738 23.2951V18.0939H16.214V23.2951H15.1738ZM21.4094 8.73165C21.3975 9.08162 21.3627 9.42803 21.3149 9.7719H19.8549V10.8121H21.1145C20.4806 13.3721 18.8687 15.6411 16.5886 17.0536H14.8004C12.5195 15.6411 10.9076 13.3721 10.2742 10.8121H18.8146V9.7719H10.0728C10.0251 9.42803 9.99029 9.08162 9.97836 8.73165H21.4094Z" fill="white"/>
<path d="M5.72662 18.7949V19.9699L4.89555 19.1392L4.25306 19.7817L5.08413 20.6124H3.90918V21.5211H5.08413L4.25306 22.3517L4.89555 22.9942L5.72662 22.1636V23.3385H6.63534V22.1636L7.46642 22.9942L8.10891 22.3517L7.27784 21.5211H8.45279V20.6124H7.27784L8.10891 19.7817L7.46642 19.1392L6.63534 19.9699V18.7949H5.72662ZM6.55725 20.158L7.0897 20.6905V21.443L6.55725 21.9754H5.80472L5.27226 21.443V20.6905L5.80472 20.158H6.55725Z" fill="white"/>
<path d="M30.1483 14.7742L30.7509 14.172L30.2851 13.7062L29.6825 14.3084V13.4565H29.0237V14.3084L28.4212 13.7062L27.9554 14.172L28.5579 14.7742H27.7061V15.433H28.5579L27.9554 16.0352L28.4212 16.501L29.0237 15.8988V16.7507H29.6825V15.8988L30.2851 16.501L30.7509 16.0352L30.1483 15.433H31.0002V14.7742H30.1483ZM30.0119 14.8308V15.3764L29.6259 15.7624H29.0803L28.6943 15.3764V14.8308L29.0803 14.4448H29.6259L30.0119 14.8308Z" fill="white"/>
<path d="M21.2588 19.7031H22.1675V20.6118H21.2588V19.7031Z" fill="white"/>
<path d="M20.3496 20.6118H21.2583V21.5205H20.3496V20.6118Z" fill="white"/>
<path d="M21.2588 21.521H22.1675V22.4297H21.2588V21.521Z" fill="white"/>
<path d="M22.167 20.6118H23.0757V21.5205H22.167V20.6118Z" fill="white"/>
<path d="M20.4355 4.05664H21.3443V4.96536H20.4355V4.05664Z" fill="white"/>
<path d="M19.5264 4.96533H20.4351V5.87405H19.5264V4.96533Z" fill="white"/>
<path d="M20.4355 5.87451H21.3443V6.78323H20.4355V5.87451Z" fill="white"/>
<path d="M21.3438 4.96533H22.2525V5.87405H21.3438V4.96533Z" fill="white"/>
<path d="M25.8398 23.8218H26.3888V24.3708H25.8398V23.8218Z" fill="white"/>
<path d="M25.291 24.3711H25.84V24.9201H25.291V24.3711Z" fill="white"/>
<path d="M25.8398 24.9194H26.3888V25.4684H25.8398V24.9194Z" fill="white"/>
<path d="M26.3896 24.3711H26.9386V24.9201H26.3896V24.3711Z" fill="white"/>
<path d="M10.1934 1.58594H10.7424V2.13493H10.1934V1.58594Z" fill="white"/>
<path d="M9.64453 2.13525H10.1935V2.68425H9.64453V2.13525Z" fill="white"/>
<path d="M10.1934 2.68359H10.7424V3.23259H10.1934V2.68359Z" fill="white"/>
<path d="M10.7432 2.13525H11.2922V2.68425H10.7432V2.13525Z" fill="white"/>
<path d="M3.54883 10.1621H4.09799V10.7113H3.54883V10.1621Z" fill="white"/>
<path d="M3 10.7114H3.54916V11.2606H3V10.7114Z" fill="white"/>
<path d="M3.54883 11.2607H4.09799V11.8099H3.54883V11.2607Z" fill="white"/>
<path d="M4.09863 10.7114H4.64779V11.2606H4.09863V10.7114Z" fill="white"/>
</svg>
