<svg width="32" height="32" viewBox="0 0 32 32" fill="none" xmlns="http://www.w3.org/2000/svg">
<path d="M9.5 11.908V13H10.5V11.908C10.7091 11.8333 10.8991 11.7131 11.0561 11.5561C11.2131 11.3991 11.3333 11.2091 11.408 11H12.5V10H11.408C11.3333 9.79088 11.2131 9.60095 11.0561 9.44392C10.8991 9.2869 10.7091 9.1667 10.5 9.092V8H9.5V9.092C9.29088 9.1667 9.10095 9.2869 8.94392 9.44392C8.7869 9.60095 8.6667 9.79088 8.592 10H7.5V11H8.592C8.6667 11.2091 8.7869 11.3991 8.94392 11.5561C9.10095 11.7131 9.29088 11.8333 9.5 11.908V11.908ZM10 10C10.0989 10 10.1956 10.0293 10.2778 10.0843C10.36 10.1392 10.4241 10.2173 10.4619 10.3087C10.4998 10.4 10.5097 10.5006 10.4904 10.5975C10.4711 10.6945 10.4235 10.7836 10.3536 10.8536C10.2836 10.9235 10.1945 10.9711 10.0975 10.9904C10.0006 11.0097 9.90002 10.9998 9.80866 10.9619C9.7173 10.9241 9.63921 10.86 9.58426 10.7778C9.52932 10.6956 9.5 10.5989 9.5 10.5C9.5 10.3674 9.55268 10.2402 9.64645 10.1464C9.74021 10.0527 9.86739 10 10 10Z" fill="#ED1C24"/>
<path d="M16.5 11.908V13H17.5V11.908C17.7091 11.8333 17.8991 11.7131 18.0561 11.5561C18.2131 11.3991 18.3333 11.2091 18.408 11H19.5V10H18.408C18.3333 9.79088 18.2131 9.60095 18.0561 9.44392C17.8991 9.2869 17.7091 9.1667 17.5 9.092V8H16.5V9.092C16.2909 9.1667 16.1009 9.2869 15.9439 9.44392C15.7869 9.60095 15.6667 9.79088 15.592 10H14.5V11H15.592C15.6667 11.2091 15.7869 11.3991 15.9439 11.5561C16.1009 11.7131 16.2909 11.8333 16.5 11.908ZM17 10C17.0989 10 17.1956 10.0293 17.2778 10.0843C17.36 10.1392 17.4241 10.2173 17.4619 10.3087C17.4998 10.4 17.5097 10.5006 17.4904 10.5975C17.4711 10.6945 17.4235 10.7836 17.3536 10.8536C17.2836 10.9235 17.1945 10.9711 17.0975 10.9904C17.0006 11.0097 16.9 10.9998 16.8087 10.9619C16.7173 10.9241 16.6392 10.86 16.5843 10.7778C16.5293 10.6956 16.5 10.5989 16.5 10.5C16.5 10.3674 16.5527 10.2402 16.6464 10.1464C16.7402 10.0527 16.8674 10 17 10Z" fill="#ED1C24"/>
<path d="M9.5 17.408V18.5H10.5V17.408C10.7091 17.3333 10.8991 17.2131 11.0561 17.0561C11.2131 16.8991 11.3333 16.7091 11.408 16.5H12.5V15.5H11.408C11.3333 15.2909 11.2131 15.1009 11.0561 14.9439C10.8991 14.7869 10.7091 14.6667 10.5 14.592V13.5H9.5V14.592C9.29088 14.6667 9.10095 14.7869 8.94392 14.9439C8.7869 15.1009 8.6667 15.2909 8.592 15.5H7.5V16.5H8.592C8.6667 16.7091 8.7869 16.8991 8.94392 17.0561C9.10095 17.2131 9.29088 17.3333 9.5 17.408ZM10 15.5C10.0989 15.5 10.1956 15.5293 10.2778 15.5843C10.36 15.6392 10.4241 15.7173 10.4619 15.8087C10.4998 15.9 10.5097 16.0006 10.4904 16.0975C10.4711 16.1945 10.4235 16.2836 10.3536 16.3536C10.2836 16.4235 10.1945 16.4711 10.0975 16.4904C10.0006 16.5097 9.90002 16.4998 9.80866 16.4619C9.7173 16.4241 9.63921 16.36 9.58426 16.2778C9.52932 16.1956 9.5 16.0989 9.5 16C9.5 15.8674 9.55268 15.7402 9.64645 15.6464C9.74021 15.5527 9.86739 15.5 10 15.5Z" fill="#ED1C24"/>
<path d="M16.5 17.408V18.5H17.5V17.408C17.7091 17.3333 17.8991 17.2131 18.0561 17.0561C18.2131 16.8991 18.3333 16.7091 18.408 16.5H19.5V15.5H18.408C18.3333 15.2909 18.2131 15.1009 18.0561 14.9439C17.8991 14.7869 17.7091 14.6667 17.5 14.592V13.5H16.5V14.592C16.2909 14.6667 16.1009 14.7869 15.9439 14.9439C15.7869 15.1009 15.6667 15.2909 15.592 15.5H14.5V16.5H15.592C15.6667 16.7091 15.7869 16.8991 15.9439 17.0561C16.1009 17.2131 16.2909 17.3333 16.5 17.408ZM17 15.5C17.0989 15.5 17.1956 15.5293 17.2778 15.5843C17.36 15.6392 17.4241 15.7173 17.4619 15.8087C17.4998 15.9 17.5097 16.0006 17.4904 16.0975C17.4711 16.1945 17.4235 16.2836 17.3536 16.3536C17.2836 16.4235 17.1945 16.4711 17.0975 16.4904C17.0006 16.5097 16.9 16.4998 16.8087 16.4619C16.7173 16.4241 16.6392 16.36 16.5843 16.2778C16.5293 16.1956 16.5 16.0989 16.5 16C16.5 15.8674 16.5527 15.7402 16.6464 15.6464C16.7402 15.5527 16.8674 15.5 17 15.5Z" fill="#ED1C24"/>
<path d="M5.5 30H31V29H30.5V27.5C30.5 27.3674 30.4473 27.2402 30.3536 27.1464C30.2598 27.0527 30.1326 27 30 27H28V6.5H30.5C30.6218 6.49997 30.7395 6.45544 30.8308 6.37479C30.9222 6.29413 30.9809 6.18291 30.996 6.062L31.496 2.062C31.5048 1.99166 31.4985 1.92026 31.4776 1.85253C31.4567 1.7848 31.4216 1.72229 31.3747 1.66914C31.3278 1.616 31.2702 1.57343 31.2056 1.54427C31.141 1.51511 31.0709 1.50002 31 1.5H28V1H27V1.5H24C23.9291 1.50002 23.859 1.51511 23.7944 1.54427C23.7298 1.57343 23.6722 1.616 23.6253 1.66914C23.5784 1.72229 23.5433 1.7848 23.5224 1.85253C23.5015 1.92026 23.4952 1.99166 23.504 2.062L24.004 6.062C24.0191 6.18291 24.0778 6.29413 24.1692 6.37479C24.2605 6.45544 24.3782 6.49997 24.5 6.5H27V27H25C24.8674 27 24.7402 27.0527 24.6464 27.1464C24.5527 27.2402 24.5 27.3674 24.5 27.5V29H23.4235L23.005 26.4895L23.95 18.95C24.4299 18.8406 24.8526 18.5582 25.1373 18.1566C25.4219 17.7551 25.5485 17.2626 25.4928 16.7736C25.4371 16.2846 25.203 15.8332 24.8353 15.506C24.4676 15.1788 23.9922 14.9986 23.5 15H23.0625L23.098 14.697C23.2572 13.3421 23.1277 11.9688 22.718 10.6675C22.3083 9.3662 21.6278 8.1664 20.7211 7.147C19.8145 6.12761 18.7023 5.31172 17.4577 4.75303C16.213 4.19433 14.8643 3.90548 13.5 3.90548C12.1357 3.90548 10.787 4.19433 9.54235 4.75303C8.29774 5.31172 7.18553 6.12761 6.27888 7.147C5.37223 8.1664 4.69168 9.3662 4.28201 10.6675C3.87234 11.9688 3.74283 13.3421 3.902 14.697L3.9375 15H3.5C3.0078 14.9986 2.53237 15.1788 2.1647 15.506C1.79703 15.8332 1.56294 16.2846 1.50723 16.7736C1.45152 17.2626 1.57809 17.7551 1.86274 18.1566C2.14738 18.5582 2.5701 18.8406 3.05 18.95L3.995 26.4895L3.5765 29H1V30H5.5ZM24.5665 2.5H30.4335L30.0585 5.5H24.9415L24.5665 2.5ZM19.691 27L20.691 29H6.309L7.309 27H19.691ZM25.5 28H29.5V29H25.5V28ZM21.809 29L20.809 27H22.0765L22.4095 29H21.809ZM4.895 14.58C4.75187 13.365 4.86766 12.1335 5.23475 10.9665C5.60184 9.79945 6.2119 8.7234 7.0248 7.80913C7.83769 6.89486 8.83498 6.1631 9.95103 5.662C11.0671 5.1609 12.2766 4.90183 13.5 4.90183C14.7234 4.90183 15.9329 5.1609 17.049 5.662C18.165 6.1631 19.1623 6.89486 19.9752 7.80913C20.7881 8.7234 21.3982 9.79945 21.7652 10.9665C22.1323 12.1335 22.2481 13.365 22.105 14.58L22.055 15H21.813C21.3288 15.0014 20.8613 15.1778 20.497 15.4968C20.1326 15.8157 19.8959 16.2557 19.8305 16.7355L19.4625 19.5H7.5375L7.169 16.736C7.10371 16.2561 6.86704 15.816 6.50267 15.4969C6.1383 15.1779 5.67082 15.0014 5.1865 15H4.9445L4.895 14.58ZM19 22.5H8V20.5H19V22.5ZM3.5 18C3.23478 18 2.98043 17.8946 2.79289 17.7071C2.60536 17.5196 2.5 17.2652 2.5 17C2.5 16.7348 2.60536 16.4804 2.79289 16.2929C2.98043 16.1054 3.23478 16 3.5 16H5.1865C5.42866 16.0006 5.66243 16.0888 5.84459 16.2484C6.02676 16.4079 6.14501 16.628 6.1775 16.868L7.0045 23.068C7.01029 23.0928 7.01815 23.117 7.028 23.1405C7.03399 23.1665 7.04236 23.192 7.053 23.2165C7.06971 23.2487 7.09 23.2789 7.1135 23.3065C7.12733 23.3271 7.14288 23.3465 7.16 23.3645C7.19057 23.3906 7.22414 23.4129 7.26 23.431C7.27784 23.4432 7.29637 23.4544 7.3155 23.4645C7.37417 23.488 7.4368 23.5001 7.5 23.5H19.5C19.564 23.4997 19.6273 23.487 19.6865 23.4625C19.7057 23.4524 19.7243 23.4411 19.742 23.4285C19.778 23.4109 19.8116 23.3887 19.842 23.3625C19.8591 23.3445 19.8747 23.3251 19.8885 23.3045C19.912 23.2769 19.9323 23.2467 19.949 23.2145C19.9597 23.1898 19.9681 23.1642 19.974 23.138C19.9839 23.1147 19.9918 23.0906 19.9975 23.066L20.8245 16.866C20.8574 16.6267 20.9755 16.4074 21.1572 16.2483C21.3389 16.0892 21.572 16.001 21.8135 16H23.5C23.7652 16 24.0196 16.1054 24.2071 16.2929C24.3946 16.4804 24.5 16.7348 24.5 17C24.5 17.2652 24.3946 17.5196 24.2071 17.7071C24.0196 17.8946 23.7652 18 23.5 18C23.3782 18 23.2605 18.0446 23.1692 18.1252C23.0778 18.2059 23.0191 18.3171 23.004 18.438L22.0585 26H4.9415L3.996 18.438C3.98089 18.3171 3.92215 18.2059 3.83082 18.1252C3.73949 18.0446 3.62185 18 3.5 18V18ZM4.9235 27H6.191L5.191 29H4.591L4.9235 27Z" fill="#1B3281"/>
</svg>
