<svg width="32" height="32" viewBox="0 0 32 32" fill="none" xmlns="http://www.w3.org/2000/svg">
<path d="M31.4636 14.7157H29.4202C28.4916 14.7157 27.7361 15.4712 27.7361 16.3998V16.5562H25.6184V15.0071C26.7727 14.0186 27.5064 12.5522 27.5064 10.9169C27.5064 7.94735 25.0905 5.53153 22.121 5.53153C19.1515 5.53153 16.7356 7.94741 16.7356 10.9169C16.7356 11.4915 16.827 12.045 16.9945 12.5647H15.2627C15.3787 12.0336 15.4403 11.4823 15.4403 10.9169C15.4403 6.6601 11.9771 3.19684 7.72027 3.19684C3.46338 3.19684 0 6.6601 0 10.917C0 13.645 1.42238 16.0472 3.56444 17.4207V28.2667C3.56444 28.563 3.80457 28.8032 4.10095 28.8032H25.0817C25.3781 28.8032 25.6182 28.563 25.6182 28.2667V24.8111H27.736V24.9676C27.736 25.8961 28.4915 26.6516 29.4201 26.6516H31.4634C31.7598 26.6516 31.9999 26.4114 31.9999 26.1151V15.2523C32.0001 14.956 31.7599 14.7157 31.4636 14.7157ZM1.07306 10.917C1.07306 7.25178 4.05495 4.26997 7.72008 4.26997C11.3853 4.26997 14.3671 7.25185 14.3671 10.917C14.3671 14.5822 11.3852 17.564 7.72008 17.564C4.05488 17.564 1.07306 14.5822 1.07306 10.917ZM24.5452 27.7301H4.63751V17.9942C5.58226 18.4073 6.62476 18.6371 7.72008 18.6371C11.0196 18.6371 13.8419 16.5561 14.9445 13.6379H17.4762C18.4127 15.2304 20.1435 16.3024 22.1208 16.3024C22.9926 16.3024 23.8159 16.0929 24.5452 15.7235V27.7301ZM22.1209 15.2293C19.743 15.2293 17.8085 13.2948 17.8085 10.9169C17.8085 8.53904 19.7429 6.60453 22.1209 6.60453C24.4987 6.60453 26.4332 8.53904 26.4332 10.9169C26.4332 13.2948 24.4987 15.2293 22.1209 15.2293ZM27.7361 23.738H25.6183V17.6293H27.7361V23.738ZM30.927 25.5784H29.4202C29.0832 25.5784 28.8092 25.3044 28.8092 24.9674V24.2744V17.0927V16.3999C28.8092 16.063 29.0832 15.7889 29.4202 15.7889H30.927V25.5784Z" fill="#1B3281"/>
<path d="M7.72001 8.24628C6.24738 8.24628 5.04932 9.44434 5.04932 10.917C5.04932 12.3896 6.24732 13.5877 7.72001 13.5877C9.19263 13.5877 10.3908 12.3897 10.3908 10.917C10.3908 9.44428 9.19263 8.24628 7.72001 8.24628ZM7.72001 12.5146C6.83913 12.5147 6.12238 11.798 6.12238 10.917C6.12238 10.036 6.83913 9.31934 7.72001 9.31934C8.60101 9.31934 9.31769 10.0361 9.31769 10.917C9.31769 11.7978 8.60101 12.5146 7.72001 12.5146Z" fill="#ED1C24"/>
<path d="M12.0098 6.62722C11.8002 6.41772 11.4606 6.41772 11.251 6.62722L10.0416 7.83659C9.83215 8.04609 9.83215 8.38584 10.0416 8.59528C10.1464 8.70009 10.2837 8.75246 10.421 8.75246C10.5583 8.75246 10.6956 8.70009 10.8005 8.59528L12.0098 7.3859C12.2194 7.1764 12.2194 6.83665 12.0098 6.62722Z" fill="#ED1C24"/>
<path d="M5.39833 13.2387C5.18871 13.0292 4.84908 13.0292 4.63945 13.2387L3.43007 14.4481C3.22057 14.6576 3.22057 14.9973 3.43007 15.2067C3.53489 15.3115 3.6722 15.3639 3.80951 15.3639C3.94683 15.3639 4.08414 15.3116 4.18895 15.2067L5.39833 13.9974C5.60783 13.7879 5.60783 13.4481 5.39833 13.2387Z" fill="#ED1C24"/>
<path d="M12.0099 14.4481L10.8005 13.2387C10.5909 13.0292 10.2512 13.0292 10.0417 13.2387C9.83211 13.4482 9.83217 13.7879 10.0417 13.9974L11.251 15.2067C11.3559 15.3115 11.4932 15.3639 11.6305 15.3639C11.7678 15.3639 11.9051 15.3116 12.0099 15.2067C12.2195 14.9972 12.2195 14.6576 12.0099 14.4481Z" fill="#ED1C24"/>
<path d="M5.39854 7.83659L4.18916 6.62722C3.97953 6.41772 3.63991 6.41772 3.43034 6.62722C3.22078 6.83672 3.22084 7.17647 3.43034 7.3859L4.63966 8.59528C4.74447 8.70003 4.88179 8.75246 5.0191 8.75246C5.15641 8.75246 5.29372 8.70009 5.39854 8.59528C5.60804 8.38578 5.60804 8.04603 5.39854 7.83659Z" fill="#ED1C24"/>
<path d="M24.4458 12.483L23.8442 11.8814C23.6345 11.6719 23.2949 11.6719 23.0853 11.8814C22.8758 12.0909 22.8758 12.4306 23.0853 12.6401L23.6869 13.2417C23.7917 13.3464 23.929 13.3989 24.0663 13.3989C24.2037 13.3989 24.341 13.3465 24.4458 13.2417C24.6553 13.0322 24.6553 12.6924 24.4458 12.483Z" fill="#ED1C24"/>
<path d="M21.1565 9.19394L20.5549 8.59231C20.3452 8.38281 20.0056 8.38281 19.796 8.59231C19.5865 8.80181 19.5865 9.14156 19.796 9.351L20.3976 9.95263C20.5024 10.0574 20.6397 10.1098 20.777 10.1098C20.9144 10.1098 21.0517 10.0574 21.1565 9.95263C21.366 9.74313 21.366 9.40344 21.1565 9.19394Z" fill="#ED1C24"/>
<path d="M21.1567 11.8814C20.9471 11.6719 20.6075 11.6719 20.3979 11.8814L19.7963 12.483C19.5868 12.6925 19.5868 13.0323 19.7963 13.2417C19.901 13.3464 20.0383 13.3989 20.1757 13.3989C20.3129 13.3989 20.4503 13.3465 20.5551 13.2417L21.1567 12.6401C21.3663 12.4306 21.3663 12.0908 21.1567 11.8814Z" fill="#ED1C24"/>
<path d="M24.4458 8.59231C24.2362 8.38281 23.8965 8.38281 23.687 8.59231L23.0853 9.19394C22.8758 9.40344 22.8758 9.74319 23.0853 9.95263C23.1901 10.0574 23.3274 10.1098 23.4647 10.1098C23.602 10.1098 23.7393 10.0574 23.8442 9.95263L24.4458 9.351C24.6553 9.1415 24.6553 8.80181 24.4458 8.59231Z" fill="#ED1C24"/>
<path d="M21.0907 20.7742H8.09192C7.79554 20.7742 7.55542 21.0145 7.55542 21.3107V24.7315C7.55542 25.0278 7.79554 25.268 8.09192 25.268H21.0907C21.3871 25.268 21.6272 25.0277 21.6272 24.7315V21.3107C21.6273 21.0145 21.3871 20.7742 21.0907 20.7742ZM8.62848 24.195V21.8473H20.5542V24.195H8.62848Z" fill="#ED1C24"/>
<path d="M15.0502 16.3039C14.1627 16.3039 13.4407 17.0259 13.4407 17.9134C13.4407 18.8009 14.1627 19.523 15.0502 19.523C15.9377 19.523 16.6597 18.801 16.6597 17.9134C16.6597 17.0259 15.9376 16.3039 15.0502 16.3039ZM15.0502 18.4499C14.7544 18.4499 14.5137 18.2093 14.5137 17.9134C14.5137 17.6176 14.7544 17.377 15.0502 17.377C15.346 17.377 15.5866 17.6176 15.5866 17.9134C15.5866 18.2092 15.3459 18.4499 15.0502 18.4499Z" fill="#ED1C24"/>
<path d="M18.913 16.3039C18.0255 16.3039 17.3035 17.0259 17.3035 17.9134C17.3035 18.8009 18.0255 19.523 18.913 19.523C19.8005 19.523 20.5225 18.801 20.5225 17.9134C20.5225 17.0259 19.8004 16.3039 18.913 16.3039ZM18.913 18.4499C18.6172 18.4499 18.3765 18.2093 18.3765 17.9134C18.3765 17.6176 18.6172 17.377 18.913 17.377C19.2088 17.377 19.4494 17.6176 19.4494 17.9134C19.4494 18.2092 19.2088 18.4499 18.913 18.4499Z" fill="#ED1C24"/>
<path d="M22.1212 11.4537C22.4175 11.4537 22.6577 11.2135 22.6577 10.9172C22.6577 10.6209 22.4175 10.3807 22.1212 10.3807C21.8249 10.3807 21.5847 10.6209 21.5847 10.9172C21.5847 11.2135 21.8249 11.4537 22.1212 11.4537Z" fill="#ED1C24"/>
</svg>
