<svg width="32" height="32" viewBox="0 0 32 32" fill="none" xmlns="http://www.w3.org/2000/svg">
<path d="M30.6919 13.4834C29.8438 12.8879 29.5452 11.7732 29.9819 10.8335C30.4099 9.91235 30.3643 8.87964 29.8564 8C29.3486 7.12036 28.4771 6.56445 27.4653 6.47461C26.4329 6.38306 25.6169 5.56714 25.5254 4.53467C25.4355 3.52295 24.8796 2.65137 24 2.14355C23.1204 1.63574 22.0876 1.59009 21.1665 2.01807C20.2266 2.45483 19.1121 2.15625 18.5166 1.30811C17.9329 0.476807 17.0156 0 16 0C14.9844 0 14.0671 0.476807 13.4834 1.30811C12.8879 2.15625 11.7732 2.45483 10.8335 2.01807C9.91235 1.58984 8.87964 1.63574 8 2.14355C7.12036 2.65137 6.56445 3.52295 6.47461 4.53467C6.38306 5.56714 5.56714 6.38306 4.53467 6.47461C3.52295 6.56445 2.65137 7.12036 2.14355 8C1.63574 8.87964 1.59009 9.91235 2.01807 10.8335C2.45508 11.7734 2.15625 12.8879 1.30811 13.4834C0.476807 14.0671 0 14.9844 0 16C0 17.0156 0.476807 17.9329 1.30811 18.5166C2.15625 19.1121 2.45483 20.2268 2.01807 21.1665C1.59009 22.0876 1.63574 23.1204 2.14355 24C2.65137 24.8796 3.52295 25.4355 4.53467 25.5254C5.56714 25.6169 6.38306 26.4329 6.47461 27.4653C6.56445 28.4771 7.12036 29.3486 8 29.8564C8.87964 30.3643 9.91235 30.4099 10.8335 29.9819C11.7734 29.5452 12.8879 29.8438 13.4834 30.6919C14.0671 31.5232 14.9844 32 16 32C17.0156 32 17.9329 31.5232 18.5166 30.6919C19.1121 29.8438 20.2268 29.5452 21.1665 29.9819C22.0876 30.4099 23.1204 30.3643 24 29.8564C24.8796 29.3486 25.4355 28.4771 25.5254 27.4653C25.6169 26.4329 26.4329 25.6169 27.4653 25.5254C28.4771 25.4355 29.3486 24.8796 29.8564 24C30.3643 23.1204 30.4099 22.0876 29.9819 21.1665C29.5449 20.2266 29.8438 19.1121 30.6919 18.5166C31.5232 17.9329 32 17.0156 32 16C32 14.9844 31.5232 14.0671 30.6919 13.4834ZM30.1533 17.7493C28.9329 18.606 28.5034 20.2095 29.1318 21.5618C29.4292 22.2019 29.3975 22.9199 29.0444 23.5312C28.6914 24.1426 28.0857 24.5291 27.3826 24.5916C25.8972 24.7234 24.7234 25.8972 24.5916 27.3826C24.5291 28.0857 24.1426 28.6914 23.5312 29.0444C22.9199 29.3975 22.2019 29.4292 21.5618 29.1318C20.2092 28.5032 18.606 28.9329 17.7493 30.1533C17.3435 30.7312 16.7061 31.0625 16 31.0625C15.2939 31.0625 14.6565 30.7312 14.2507 30.1533C13.6587 29.3101 12.7102 28.8445 11.7346 28.8445C11.2981 28.8445 10.8562 28.9375 10.4382 29.1318C9.7981 29.4294 9.08008 29.3975 8.46875 29.0447C7.85742 28.6917 7.47095 28.0857 7.40845 27.3826C7.27661 25.8972 6.10278 24.7234 4.61743 24.5916C3.91431 24.5293 3.30859 24.1428 2.95557 23.5315C2.60254 22.9199 2.5708 22.2021 2.86816 21.5618C3.49683 20.2095 3.06714 18.6062 1.84668 17.7493C1.2688 17.3435 0.9375 16.7061 0.9375 16C0.9375 15.2939 1.2688 14.6565 1.84668 14.2507C3.06714 13.394 3.49658 11.7905 2.86816 10.4382C2.5708 9.7981 2.60254 9.08008 2.95557 8.46875C3.30859 7.85742 3.91431 7.47095 4.61743 7.40845C6.10278 7.27661 7.27661 6.10278 7.40845 4.61743C7.47095 3.91431 7.85742 3.30859 8.46875 2.95557C9.08008 2.60254 9.7981 2.5708 10.4382 2.86816C11.7905 3.49658 13.3938 3.06689 14.2507 1.84668C14.6565 1.2688 15.2939 0.9375 16 0.9375C16.7061 0.9375 17.3435 1.2688 17.7493 1.84668L18.1328 1.57739L17.7493 1.84668C18.606 3.06714 20.2095 3.49683 21.5618 2.86841C22.2019 2.5708 22.9199 2.60254 23.5312 2.95557C24.1426 3.30859 24.5291 3.91431 24.5916 4.61768C24.7234 6.10278 25.8972 7.27661 27.3826 7.40845C28.0857 7.47095 28.6914 7.85742 29.0444 8.46875C29.3975 9.08008 29.4292 9.7981 29.1318 10.4382C28.5032 11.7905 28.9329 13.394 30.1533 14.2507C30.7312 14.6565 31.0625 15.2939 31.0625 16C31.0625 16.7061 30.7312 17.3435 30.1533 17.7493V17.7493Z" fill="#1B3281"/>
<path d="M27.9224 16.4824C27.6643 16.4617 27.4387 16.6548 27.4182 16.9128C27.1926 19.7761 25.9048 22.4336 23.792 24.3955C21.6677 26.3679 18.9006 27.4541 16 27.4541C13.0996 27.4541 10.3323 26.3679 8.20825 24.3955C6.09521 22.4336 4.80737 19.7761 4.58179 16.9128C4.56152 16.6548 4.33545 16.4612 4.07763 16.4824C3.81958 16.5027 3.62695 16.7283 3.64721 16.9863C3.89136 20.085 5.28467 22.9602 7.57031 25.0825C9.86841 27.2165 12.8623 28.3916 16.0002 28.3916C19.1382 28.3916 22.1318 27.2165 24.4299 25.0825C26.7156 22.9602 28.1089 20.085 28.353 16.9863C28.3733 16.7283 28.1804 16.5027 27.9224 16.4824V16.4824Z" fill="#1B3281"/>
<path d="M4.07763 15.5151C4.09009 15.5161 4.10254 15.5166 4.11499 15.5166C4.35718 15.5166 4.5625 15.3303 4.58179 15.0847C4.8081 12.2219 6.09619 9.56494 8.20898 7.60352C10.333 5.63184 13.0999 4.5459 16 4.5459C18.8984 4.5459 21.6643 5.63086 23.7878 7.60059C25.8999 9.56006 27.189 12.2146 27.4175 15.0757C27.438 15.3337 27.6643 15.5259 27.9221 15.5056C28.1802 15.4849 28.3726 15.259 28.352 15.001C28.1047 11.9053 26.7104 9.03296 24.4253 6.91333C22.1279 4.78223 19.1357 3.6084 16 3.6084C12.8625 3.6084 9.86914 4.7832 7.57129 6.9165C5.28564 9.03833 3.89209 11.9131 3.64721 15.011C3.62695 15.269 3.81958 15.4946 4.07763 15.5151V15.5151Z" fill="#1B3281"/>
<path d="M24.2503 13.4749C24.1126 13.0505 23.7355 12.7632 23.2899 12.7429L18.6332 12.531L16.9925 8.16773C16.8355 7.75024 16.4459 7.48047 15.9999 7.48047C15.5538 7.48047 15.1642 7.75024 15.0072 8.16773L13.3666 12.531L8.70982 12.7429C8.26426 12.7632 7.88706 13.0505 7.74937 13.4749C7.61143 13.8989 7.74766 14.353 8.09629 14.6314L11.7389 17.54L10.5016 22.0342C10.3832 22.4644 10.5399 22.9116 10.9007 23.1738C11.2616 23.4361 11.7355 23.4468 12.108 23.2012L15.9999 20.6358L19.8917 23.2014C20.0711 23.3196 20.2738 23.3782 20.4759 23.3782C20.6939 23.3782 20.9117 23.3098 21.099 23.1738C21.4598 22.9116 21.6166 22.4644 21.4981 22.0342L20.2608 17.54L23.9034 14.6314C24.2521 14.353 24.3883 13.8989 24.2503 13.4749V13.4749ZM23.3185 13.8987L19.4344 17.0003C19.2879 17.1172 19.2252 17.3101 19.275 17.491L20.5943 22.283C20.6092 22.3377 20.5938 22.3821 20.548 22.4153C20.5021 22.4487 20.4549 22.4497 20.4078 22.4185L16.2579 19.6829C16.1795 19.6314 16.0897 19.6055 15.9999 19.6055C15.91 19.6055 15.8202 19.6314 15.7418 19.6829L11.5919 22.4185C11.5448 22.4497 11.4977 22.4487 11.4518 22.4153C11.4061 22.3821 11.3905 22.3377 11.4054 22.283L12.7247 17.491C12.7745 17.3101 12.7118 17.1172 12.5653 17.0003L8.68125 13.8987C8.63706 13.8633 8.62339 13.8181 8.64097 13.7644C8.6583 13.7107 8.6959 13.6821 8.7523 13.6794L13.7176 13.4534C13.9051 13.4448 14.0692 13.3257 14.1351 13.1502L15.8846 8.49756C15.9044 8.44458 15.9432 8.41773 15.9999 8.41773C16.0563 8.41773 16.0951 8.44458 16.1151 8.49756L17.8644 13.1502C17.9305 13.3257 18.0946 13.4448 18.2818 13.4534L23.2472 13.6794C23.3038 13.6821 23.3412 13.7107 23.3587 13.7644C23.3763 13.8184 23.3626 13.8633 23.3185 13.8987V13.8987Z" fill="#ED1C24"/>
</svg>
