<svg width="32" height="32" viewBox="0 0 32 32" fill="none" xmlns="http://www.w3.org/2000/svg">
<g clip-path="url(#clip0)">
<path d="M16 6C14.5849 6 13.3913 7.07367 13.3913 8.44565V9.13043H12.0625C12.0462 9.12967 12.0299 9.12967 12.0136 9.13043C11.8958 9.14254 11.7857 9.19432 11.7013 9.27728C11.6168 9.36023 11.5631 9.46944 11.5489 9.58696L11.2962 11.7391H7.3424C6.50779 11.7391 5.82609 12.4294 5.82609 13.2636V22.1739H4.52174C4.50545 22.1731 4.48913 22.1731 4.47283 22.1739C4.34311 22.1861 4.22265 22.2465 4.13515 22.343C4.04765 22.4396 3.99944 22.5654 4 22.6957V25.4103C4 26.2265 4.70197 26.8696 5.51631 26.8696H26.4837C27.298 26.8696 28 26.2265 28 25.4103V22.6957C28 22.5573 27.945 22.4246 27.8472 22.3267C27.7493 22.2289 27.6166 22.1739 27.4783 22.1739H26.1739V13.2636C26.1739 12.4292 25.492 11.7391 24.6576 11.7391H20.7038L20.4511 9.58696C20.4353 9.46157 20.3745 9.34618 20.2801 9.26222C20.1856 9.17826 20.0639 9.13143 19.9375 9.13043H18.6087V8.44565C18.6087 7.07367 17.4151 6 16 6ZM16 7.04348C16.8972 7.04348 17.5652 7.67927 17.5652 8.44565V9.13043H14.4348V8.44565C14.4348 7.67927 15.1028 7.04348 16 7.04348ZM12.5272 10.1739H13.3913V10.6957C13.3903 10.7648 13.4031 10.8334 13.4289 10.8976C13.4547 10.9617 13.4929 11.0201 13.5415 11.0694C13.59 11.1186 13.6479 11.1577 13.7117 11.1844C13.7755 11.2111 13.8439 11.2248 13.913 11.2248C13.9822 11.2248 14.0506 11.2111 14.1144 11.1844C14.1782 11.1577 14.2361 11.1186 14.2846 11.0694C14.3332 11.0201 14.3714 10.9617 14.3972 10.8976C14.423 10.8334 14.4358 10.7648 14.4348 10.6957V10.1739H17.5652V10.6957C17.5642 10.7648 17.577 10.8334 17.6028 10.8976C17.6286 10.9617 17.6669 11.0201 17.7154 11.0694C17.7639 11.1186 17.8218 11.1577 17.8856 11.1844C17.9494 11.2111 18.0178 11.2248 18.087 11.2248C18.1561 11.2248 18.2246 11.2111 18.2883 11.1844C18.3521 11.1577 18.41 11.1186 18.4585 11.0694C18.5071 11.0201 18.5453 10.9617 18.5711 10.8976C18.5969 10.8334 18.6097 10.7648 18.6087 10.6957V10.1739H19.4728L20.4266 18.4891C20.4251 18.4983 20.419 18.5217 20.3696 18.5217H11.6304C11.581 18.5217 11.5749 18.4983 11.5734 18.4891L12.5272 10.1739ZM7.3424 12.7826H11.1739L10.5217 18.4239C10.5204 18.4456 10.5204 18.4674 10.5217 18.4891C10.5217 19.0919 11.0412 19.5652 11.6304 19.5652H20.3696C20.9588 19.5652 21.4783 19.0919 21.4783 18.4891C21.4796 18.4674 21.4796 18.4456 21.4783 18.4239L20.8261 12.7826H24.6576C24.9257 12.7826 25.1304 12.983 25.1304 13.2636V22.1739H6.86957V13.2636C6.86957 12.9835 7.07447 12.7826 7.3424 12.7826ZM5.04348 23.2174H12.087V23.5109C12.087 24.3459 12.7682 25.0435 13.6033 25.0435H18.3967C19.2318 25.0435 19.913 24.3459 19.913 23.5109V23.2174H26.9565V25.4103C26.9565 25.6265 26.7753 25.8261 26.4837 25.8261H5.51631C5.22475 25.8261 5.04348 25.6265 5.04348 25.4103V23.2174ZM13.1304 23.2174H18.8696V23.5109C18.8696 23.7908 18.6668 24 18.3967 24H13.6033C13.3332 24 13.1304 23.7908 13.1304 23.5109V23.2174Z" fill="#F2717D"/>
</g>
<defs>
<clipPath id="clip0">
<rect width="24" height="24" fill="white" transform="translate(4 4)"/>
</clipPath>
</defs>
</svg>
